SplineFontDB: 3.0
FontName: giggapop
FullName: giggapop
FamilyName: giggapop
Weight: Normal
Copyright: (c) Copyright 1996-2015 Terrence Curran http://www.grilledcheese.com
Version: 2015-03-29
ItalicAngle: 0
UnderlinePosition: -113
UnderlineWidth: 20
Ascent: 800
Descent: 200
InvalidEm: 0
sfntRevision: 0x00010000
LayerCount: 2
Layer: 0 0 "Back" 1
Layer: 1 0 "Fore" 0
XUID: [1021 270 -1463357204 14580208]
UniqueID: 4230615
FSType: 4
OS2Version: 3
OS2_WeightWidthSlopeOnly: 0
OS2_UseTypoMetrics: 1
CreationTime: 1427765227
ModificationTime: 1427747574
PfmFamily: 81
TTFWeight: 400
TTFWidth: 5
LineGap: 0
VLineGap: 0
Panose: 0 0 0 0 0 0 0 0 0 0
OS2TypoAscent: 800
OS2TypoAOffset: 0
OS2TypoDescent: -200
OS2TypoDOffset: 0
OS2TypoLinegap: 0
OS2WinAscent: 1000
OS2WinAOffset: 0
OS2WinDescent: 0
OS2WinDOffset: 0
HheadAscent: 800
HheadAOffset: 0
HheadDescent: -200
HheadDOffset: 0
OS2SubXSize: 650
OS2SubYSize: 600
OS2SubXOff: 0
OS2SubYOff: 75
OS2SupXSize: 650
OS2SupYSize: 600
OS2SupXOff: 0
OS2SupYOff: 350
OS2StrikeYSize: 20
OS2StrikeYPos: 300
OS2CapHeight: 0
OS2XHeight: 0
OS2Vendor: 'pyrs'
OS2CodePages: 20000001.00000000
OS2UnicodeRanges: 00000003.00000000.00000000.00000000
MarkAttachClasses: 1
DEI: 91125
LangName: 1033 "+//0A-Copyright 1996-1998 Terrence Curran http://www.chank.com/tea" "" "-007" "" "giggapop-007" "Version 1.000;PS 001.001;hotconv 1.0.56" "" "Please refer to the Copyright section for the font trademark attribution notices." "" "" "" "" "" "" "" "" "giggapop" "-007"
Encoding: ISO8859-1
UnicodeInterp: none
NameList: AGL For New Fonts
DisplaySize: -48
AntiAlias: 1
FitToEm: 1
WinInfo: 0 21 10
BeginPrivate: 1
BlueValues 23 [-11 1 488 491 769 770]
EndPrivate
BeginChars: 262 122

StartChar: .notdef
Encoding: 256 -1 0
Width: 448
Flags: MW
HStem: 124 199<266.5 273 273 274 274 281>
VStem: 223 78<149 152 152 174 149 187> 246 78<273 295 261 298>
LayerCount: 2
Back
Fore
SplineSet
338 49 m 2xa0
 276 48 l 2
 257 48 255 49 235 49 c 0
 184 49 157 67 157 122 c 2
 157 152 l 1
 96 213 l 1
 156 273 l 1
 156 360 l 2
 156 415 195 429 250 429 c 2
 324 428 l 1
 324 454 l 2
 324 468 336 479 349 479 c 2
 390 479 l 2
 403 479 414 466 414 452 c 2
 414 273 l 1
 354 213 l 1
 416 152 l 1
 416 79 l 2
 416 45 348 49 338 49 c 2xa0
263 212 m 1
 324 273 l 1
 324 298 l 2
 324 314 311 323 296 323 c 2
 274 323 l 2
 259 323 246 311 246 295 c 2
 246 261 l 1xa0
 198 212 l 1
 223 187 l 1
 223 152 l 2
 223 136 236 124 252 124 c 2
 273 124 l 2
 289 124 301 133 301 149 c 2
 301 174 l 1xc0
 263 212 l 1
EndSplineSet
EndChar

StartChar: zero
Encoding: 48 48 1
Width: 321
Flags: MW
VStem: 97 77<102 105 105 126 102 140> 117 78<623 626 626 631> 119 76<214 626>
LayerCount: 2
Back
Fore
SplineSet
284 32 m 2x80
 284 -3 219 1 209 1 c 0
 189 1 129 1 108 1 c 0
 57 1 30 19 30 75 c 2
 30 152 l 1
 -31 213 l 1
 27 273 l 1
 27 704 l 2
 27 759 47 771 102 770 c 2
 224 770 l 2
 273 770 284 718 284 704 c 2
 284 273 l 1
 227 213 l 1
 284 152 l 1
 284 32 l 2x80
136 165 m 1
 195 226 l 1
 195 626 l 2
 195 642 182 651 167 651 c 2
 145 651 l 2
 129 651 117 639 117 623 c 2x40
 119 214 l 1x20
 71 165 l 1
 97 140 l 1
 97 105 l 2
 97 89 109 77 125 77 c 2
 146 77 l 2
 162 77 174 86 174 102 c 2
 174 126 l 1
 136 165 l 1
EndSplineSet
EndChar

StartChar: one
Encoding: 49 49 2
Width: 188
Flags: MW
HStem: 1 20 678 91<36 76 10 142>
VStem: 11 156<731 742> 73 94<1 40> 76 91<273 678 678 678>
LayerCount: 2
Back
Fore
SplineSet
11 744 m 0xd0
 11 758 22 769 36 769 c 2
 142 769 l 2
 156 769 167 756 167 742 c 2
 167 273 l 1
 107 213 l 1
 167 153 l 1
 167 40 l 2
 167 17 146 1 112 1 c 2
 73 1 l 1xe0
 74 100 74 49 74 154 c 1
 16 212 l 1
 76 273 l 1xc8
 76 397 76 678 76 678 c 1
 10 678 l 1
 10 678 11 718 11 744 c 0xd0
EndSplineSet
EndChar

StartChar: two
Encoding: 50 50 3
Width: 286
Flags: MW
HStem: 0 20 47 277<115 221 151 221> 428 244<19 176> 749 20G<44 241 241 248>
VStem: 98 77<65.5 73 73 130 64 163>
LayerCount: 2
Back
Fore
SplineSet
175 64 m 1
 175 130 l 1
 256 50 l 1
 256 27 245 1 210 1 c 0
 200 1 41 0 36 0 c 0
 15 0 8 13 8 39 c 2
 9 152 l 1
 -53 213 l 1
 8 273 l 1
 8 360 l 2
 8 415 47 429 102 429 c 2
 176 428 l 1
 175 626 l 2
 175 672 156 672 129 672 c 2
 19 672 l 1
 19 744 l 2
 19 758 31 769 44 769 c 2
 241 769 l 2
 255 769 266 756 266 742 c 2
 264 370 l 2
 264 341 247 326 221 324 c 2
 126 323 l 2
 110 323 97 311 97 295 c 2
 97 261 l 1
 49 212 l 1
 98 163 l 1
 98 73 l 2
 98 58 102 47 115 47 c 2
 151 47 l 2
 164 47 175 64 175 64 c 1
EndSplineSet
EndChar

StartChar: three
Encoding: 51 51 4
Width: 280
Flags: MW
HStem: 0 185<57.5 71 5 93.5> 1 74<100 191> 324 105<74.5 172> 672 97<44 129 19 241>
VStem: 5 67<96 104 96 185> 8 256<357 360 360 370> 149 115<13 100> 173 91<275 275> 176 88
LayerCount: 2
Back
Fore
SplineSet
235 321 m 1x7880
 264 292 l 1
 264 275 l 1
 204 215 l 1
 266 154 l 1
 264 30 l 2
 264 -4 196 1 186 1 c 0
 166 1 104 0 83 0 c 0
 32 0 5 18 5 73 c 2
 5 185 l 1
 71 185 l 1
 72 104 l 2
 72 88 84 75 100 75 c 2x7880
 121 75 l 2
 137 75 149 85 149 100 c 2
 151 175 l 1
 113 214 l 1
 173 275 l 1x74
 172 324 l 1
 8 323 l 1x79
 8 360 l 2
 8 415 47 429 102 429 c 2
 176 428 l 1x7a
 175 626 l 2
 175 672 156 672 129 672 c 2
 19 672 l 1xb880
 19 744 l 2
 19 758 31 769 44 769 c 2
 241 769 l 2
 255 769 266 756 266 742 c 2
 264 370 l 2
 264 344 243 326 235 321 c 1x7880
EndSplineSet
EndChar

StartChar: four
Encoding: 52 52 5
Width: 287
Flags: MW
HStem: -1 20 324 104<172 172>
VStem: 8 86 149 115<30.5 38> 172 92<-1 30 275 292> 176 88<428 730 730 737>
LayerCount: 2
Back
Fore
SplineSet
149 38 m 2xe8
 151 175 l 1
 113 214 l 1
 172 275 l 1xf0
 172 324 l 1
 8 323 l 1
 7 632 l 2
 7 652 6 672 41 672 c 2
 69 672 l 2
 82 672 95 663 95 639 c 2
 94 428 l 1
 176 428 l 1xe8
 176 730 l 2
 176 750 175 770 210 770 c 2
 238 770 l 2
 251 770 264 761 264 737 c 2
 264 370 l 2
 264 344 243 326 235 321 c 1
 264 292 l 1
 264 275 l 1
 204 215 l 1
 264 154 l 1
 264 30 l 2
 264 11 239 2 217 -1 c 0
 200 -3 172 -1 172 -1 c 1xe4
 172 -1 149 23 149 38 c 2xe8
EndSplineSet
EndChar

StartChar: five
Encoding: 53 53 6
Width: 313
Flags: MW
HStem: 0 75<72.5 167 115 167 167 174.5 115 201> 325 105<106 158 61 180> 674 97<140 153 153 238 238 245 41 263>
VStem: 14 72<96 104 104 110 110 110> 16 90<430 628 430 744> 16 247<674 744 744 746 674 751> 184 95<105 152 273 298 298 306>
LayerCount: 2
Back
Fore
SplineSet
86 182 m 1xf2
 86 104 l 2
 86 88 99 75 115 75 c 2
 167 75 l 2
 182 75 184 89 184 105 c 2
 184 156 l 1
 129 212 l 1
 184 272 l 1
 184 298 l 2
 184 314 174 325 158 325 c 2
 61 325 l 2
 35 328 16 343 16 372 c 2xf2
 16 744 l 2
 16 758 27 771 41 771 c 2
 238 771 l 2
 252 771 263 760 263 746 c 2xea
 263 674 l 1
 153 674 l 2
 127 674 106 674 106 628 c 2xe4
 106 430 l 1
 180 430 l 2
 236 431 279 413 279 358 c 2
 279 273 l 1
 220 213 l 1
 279 152 l 1
 279 30 l 2
 279 -4 211 0 201 0 c 0
 182 0 119 0 98 0 c 0
 47 0 14 18 14 73 c 2xea
 14 110 l 1
 86 182 l 1xf2
EndSplineSet
EndChar

StartChar: six
Encoding: 54 54 7
Width: 278
Flags: MW
HStem: 0 75<100 101.5 100 108 108 160 100 194> 323 107<132 154 154 161.5> 674 97<132.5 238 231 238 231 256>
VStem: 15 84<273 628 360 628> 15 89<273 295 295 303 261 360 261 360> 15 241 16 63<104 151 151 151> 177 95<97 105 105 152> 180 92<275 275> 182 90<298 306>
LayerCount: 2
Back
Fore
SplineSet
213 213 m 1xe3
 272 152 l 1
 272 30 l 2
 272 -4 204 0 194 0 c 0
 174 0 112 0 91 0 c 0
 40 0 16 18 16 73 c 2
 16 151 l 1
 -46 213 l 1
 15 273 l 1xf1
 15 360 l 1
 14 744 l 2
 14 757 25 770 39 770 c 2
 231 771 l 2
 245 771 256 760 256 746 c 2xe4
 256 674 l 1
 146 674 l 2
 119 674 99 674 99 628 c 2xf1
 99 430 l 1
 177 430 l 2
 232 431 272 413 272 358 c 2
 272 273 l 1
 213 213 l 1xe3
121 212 m 1
 177 156 l 1
 177 105 l 2
 177 89 175 75 160 75 c 2
 108 75 l 2
 92 75 79 88 79 104 c 2
 79 191 l 1xe3
 56 212 l 1
 104 261 l 1
 104 295 l 2
 104 311 117 323 132 323 c 2
 154 323 l 2
 169 323 182 314 182 298 c 2xe840
 180 275 l 1xf080
 121 212 l 1
EndSplineSet
EndChar

StartChar: seven
Encoding: 55 55 8
Width: 336
Flags: MW
HStem: 1 20 678 91<45 239 19 305>
VStem: 19 311<678 742 731 742> 236 94<28.5 40 40 153> 239 91<273 678 678 678>
LayerCount: 2
Back
Fore
SplineSet
19 744 m 0xc8
 19 758 31 769 45 769 c 2
 305 769 l 2
 319 769 330 756 330 742 c 2
 330 273 l 1
 270 213 l 1
 330 153 l 1
 330 40 l 2
 330 17 309 1 275 1 c 2
 236 1 l 1xe0
 236 154 l 1
 179 212 l 1
 239 273 l 1xc8
 239 678 l 1
 19 678 l 1xd0
 19 678 19 718 19 744 c 0xc8
EndSplineSet
EndChar

StartChar: eight
Encoding: 56 56 9
Width: 321
Flags: MW
HStem: 1 76<82.5 146 125 146 146 154 125 209> 329 93<118 196 118 196> 651 119<137 145 145 167>
VStem: 27 92<214 273> 28 89 30 67<97 105 105 140 97 152 97 152> 174 110<102 126 126 126> 196 89<329 344 344 422>
LayerCount: 2
Back
Fore
SplineSet
284 704 m 2xe6
 285 407 l 1
 253 375 l 1
 285 344 l 1
 284 273 l 1xe9
 227 213 l 1
 284 152 l 1
 284 32 l 2
 284 -3 219 1 209 1 c 0
 189 1 129 1 108 1 c 0
 57 1 30 19 30 75 c 2
 30 152 l 1
 -31 213 l 1
 27 273 l 1xf2
 29 344 l 1
 60 375 l 1
 28 407 l 1xe9
 27 704 l 2xf1
 27 759 47 771 102 770 c 2
 224 770 l 2
 273 770 284 718 284 704 c 2xe6
118 422 m 1
 196 422 l 1
 195 626 l 2
 195 642 182 651 167 651 c 2
 145 651 l 2
 129 651 117 639 117 623 c 2
 118 422 l 1
195 226 m 1
 196 329 l 1
 118 329 l 1
 119 214 l 1xe6
 71 165 l 1
 97 140 l 1xf1
 97 105 l 2
 97 89 109 77 125 77 c 2
 146 77 l 2
 162 77 174 86 174 102 c 2
 174 126 l 1
 136 165 l 1
 195 226 l 1
EndSplineSet
EndChar

StartChar: nine
Encoding: 57 57 10
Width: 287
Flags: MW
HStem: -1 20 324 104<172 172> 662 107<93 176 93 93>
VStem: 7 87 149 115<30.5 38> 172 92<-1 30 275 292> 176 88
LayerCount: 2
Back
Fore
SplineSet
176 662 m 1xf2
 93 662 l 1
 94 428 l 1
 176 428 l 1
 176 662 l 1xf2
266 708 m 2
 264 370 l 2
 264 344 243 326 235 321 c 1
 264 292 l 1
 264 275 l 1
 204 215 l 1
 264 154 l 1
 264 30 l 2
 264 11 239 2 217 -1 c 0
 200 -3 172 -1 172 -1 c 1xf4
 172 -1 149 23 149 38 c 2xf8
 151 175 l 1
 113 214 l 1
 172 275 l 1xf4
 172 324 l 1
 7 323 l 1
 6 688 l 2
 3 737 9 769 52 769 c 2
 211 769 l 2
 224 769 266 760 266 708 c 2
EndSplineSet
EndChar

StartChar: A
Encoding: 65 65 11
Width: 305
Flags: MW
HStem: -9 20<208.5 258 218 258> 39 19<102 193> 114 20<108.5 141 119 141> 313 20G<136.5 163 142 163> 418 21G<118 192> 469 20G<213 257 217 257>
VStem: 15 20<122 148 148 148> 81 20<152 183 183 183> 103 20<265 295> 159 20<149 169 169 169> 182 20<439 454 429 464> 273 20<26 148 148 148>
LayerCount: 2
Back
Fore
SplineSet
15 122 m 2
 15 148 l 1
 -44 206 l 1
 -44 220 l 1
 14 278 l 1
 14 360 l 2
 14 425 62 439 118 439 c 2
 182 439 l 1
 182 454 l 2
 182 474 198 489 217 489 c 2
 257 489 l 2
 277 489 292 471 292 452 c 2
 292 423 l 1
 292 273 l 1
 289 266 l 1
 236 213 l 1
 290 159 l 1
 293 152 l 1
 293 26 l 2
 293 6 277 -9 258 -9 c 2
 218 -9 l 2
 199 -9 183 7 183 26 c 2
 183 39 l 1
 102 39 l 2
 47 39 15 60 15 122 c 2
35 152 m 1
 35 122 l 2
 35 73 55 59 102 59 c 2
 193 58 l 1
 203 48 l 1
 203 26 l 2
 203 18 210 11 218 11 c 2
 258 11 l 2
 267 11 273 18 273 26 c 2
 273 148 l 1
 215 206 l 1
 215 220 l 1
 272 277 l 1
 272 423 l 1
 272 452 l 2
 272 462 264 469 257 469 c 2
 217 469 l 2
 209 469 202 463 202 454 c 2
 202 429 l 1
 192 418 l 1
 118 419 l 2
 63 419 34 406 34 360 c 2
 34 273 l 1
 31 266 l 1
 -22 213 l 1
 32 159 l 1
 35 152 l 1
123 219 m 1
 181 278 l 1
 181 298 l 2
 181 307 175 313 163 313 c 2
 142 313 l 2
 131 313 123 305 123 295 c 2
 123 261 l 1
 121 254 l 1
 80 212 l 1
 98 194 l 1
 101 187 l 1
 101 152 l 2
 101 142 109 134 119 134 c 2
 141 134 l 2
 152 134 159 140 159 149 c 2
 159 169 l 1
 123 205 l 1
 123 219 l 1
201 273 m 1
 198 266 l 1
 145 212 l 1
 176 181 l 1
 179 174 l 1
 179 149 l 2
 179 126 160 114 141 114 c 2
 119 114 l 2
 98 114 81 131 81 152 c 2
 81 183 l 1
 58 205 l 1
 58 219 l 1
 103 265 l 1
 103 295 l 2
 103 316 120 333 142 333 c 2
 163 333 l 2
 182 333 201 321 201 298 c 2
 201 273 l 1
EndSplineSet
EndChar

StartChar: B
Encoding: 66 66 12
Width: 298
Flags: MW
HStem: -9 20<217 222> 37 20<115.5 163 127 163> 313 20G<132.5 159 138 159> 419 20G<184 211> 759 20G<41 85 45 85>
VStem: 10 20<27 39 27 40 278 341 341 342 342 742> 100 20<73 159 159 159 439 744> 175 20<73 149 149 149> 177 20<278 298 273 302.5> 268 20<40 149 149 149 277 341 341 360>
LayerCount: 2
Back
Fore
SplineSet
268 40 m 2xfec0
 268 149 l 1
 211 206 l 1
 211 220 l 1
 268 277 l 1
 268 341 l 1
 268 360 l 2
 268 406 238 419 184 419 c 2
 110 418 l 1
 100 428 l 1
 100 744 l 2
 100 752 93 759 85 759 c 2
 45 759 l 2
 37 759 30 751 30 742 c 2
 30 342 l 1
 30 273 l 1
 27 266 l 1
 -26 213 l 1
 28 159 l 1
 31 152 l 1
 30 39 l 2
 30 15 36 11 48 10 c 0
 53 10 212 11 222 11 c 0
 255 11 268 26 268 40 c 2xfec0
285 160 m 1
 288 153 l 1
 288 40 l 2
 288 9 260 -9 222 -9 c 0
 212 -9 53 -10 48 -9 c 0
 18 -9 10 11 10 40 c 2
 11 148 l 1
 -48 206 l 1
 -48 220 l 1
 10 278 l 1
 10 341 l 1
 10 742 l 2
 10 760 24 779 45 779 c 2
 85 779 l 2
 104 779 120 763 120 744 c 2
 120 439 l 1
 184 439 l 2
 240 439 288 425 288 360 c 2
 288 341 l 1
 288 273 l 1
 285 266 l 1
 232 213 l 1
 285 160 l 1
100 73 m 2
 100 159 l 1
 54 205 l 1
 54 219 l 1
 99 265 l 1
 99 295 l 2
 99 316 116 333 138 333 c 2
 159 333 l 2
 178 333 197 321 197 298 c 2
 197 273 l 1
 194 266 l 1
 141 212 l 1
 192 161 l 1
 195 153 l 1xff40
 195 73 l 2
 195 55 183 37 163 37 c 2
 127 37 l 2
 104 37 100 58 100 73 c 2
117 170 m 1
 120 163 l 1
 120 73 l 2
 120 59 124 57 127 57 c 2
 163 57 l 2
 168 57 175 62 175 73 c 2
 175 149 l 1
 120 205 l 1
 119 219 l 1
 177 278 l 1xfec0
 177 298 l 2
 177 307 171 313 159 313 c 2
 138 313 l 2
 127 313 119 305 119 295 c 2
 119 261 l 1
 117 254 l 1
 75 212 l 1
 117 170 l 1
EndSplineSet
EndChar

StartChar: C
Encoding: 67 67 13
Width: 291
Flags: MW
HStem: 39 19<102 254> 114 20<108.5 140 119 140 140 141 141 248> 313 20G<136 246 142 246 142 246> 418 20G<246 256>
VStem: 15 20<122 148 148 148> 81 20<152 183 183 183> 103 20<265 295 261 305.5> 272 20<76 98 352 401>
LayerCount: 2
Back
Fore
SplineSet
246 418 m 2
 118 419 l 2
 63 419 34 406 34 360 c 2
 34 273 l 1
 31 266 l 1
 -22 213 l 1
 32 159 l 1
 35 152 l 1
 35 122 l 2
 35 73 55 59 102 59 c 2
 247 58 l 2
 261 58 272 57 272 76 c 2
 272 98 l 2
 272 103 265 114 248 114 c 2
 248 114 147 114 141 114 c 2
 119 114 l 2
 98 114 81 131 81 152 c 2
 81 183 l 1
 58 205 l 1
 58 219 l 1
 103 265 l 1
 103 295 l 2
 103 316 120 333 142 333 c 2
 246 333 l 2
 258 333 272 346 272 352 c 2
 272 401 l 2
 272 408 266 418 246 418 c 2
118 439 m 2
 246 438 l 2
 273 438 292 423 292 401 c 2
 292 352 l 2
 292 330 264 313 246 313 c 2
 141 313 l 2
 131 313 123 305 123 295 c 2
 123 261 l 1
 121 254 l 1
 80 212 l 1
 98 194 l 1
 101 187 l 1
 101 152 l 2
 101 142 109 134 119 134 c 2
 140 134 l 2
 146 134 248 134 248 134 c 2
 272 134 292 118 292 98 c 2
 292 76 l 2
 292 44 272 38 247 39 c 2
 102 39 l 2
 47 39 15 60 15 122 c 2
 15 148 l 1
 -44 206 l 1
 -44 220 l 1
 14 278 l 1
 14 360 l 2
 14 425 62 439 118 439 c 2
EndSplineSet
EndChar

StartChar: D
Encoding: 68 68 14
Width: 302
Flags: MW
HStem: -9 20<221 226> 37 20<119.5 167 131 167> 313 20G<136.5 163 142 163> 418 21G<118 192> 759 20G<213 257 217 257>
VStem: 14 20<27 39 27 40 278 360> 103 20<265 295> 179 20<73 149 149 149> 182 20<439 744 428 753.5> 272 20<40 149 149 149 277 742>
LayerCount: 2
Back
Fore
SplineSet
257 759 m 2xfec0
 217 759 l 2
 209 759 202 752 202 744 c 2
 202 428 l 1
 192 418 l 1
 118 419 l 2
 63 419 34 406 34 360 c 2
 34 274 l 1
 31 266 l 1
 -22 213 l 1
 32 159 l 1
 35 152 l 1
 34 39 l 2
 34 15 40 11 52 10 c 0
 57 10 216 11 226 11 c 0
 259 11 272 26 272 40 c 2
 272 149 l 1
 215 206 l 1
 215 220 l 1
 272 277 l 1
 272 742 l 2
 272 751 264 759 257 759 c 2xfec0
217 779 m 2
 257 779 l 2
 277 779 292 760 292 742 c 2
 292 273 l 1
 289 266 l 1
 236 213 l 1
 289 160 l 1
 292 153 l 1
 292 40 l 2
 292 9 264 -9 226 -9 c 0
 216 -9 57 -10 52 -9 c 0
 22 -9 14 11 14 40 c 2
 15 148 l 1
 -44 206 l 1
 -44 220 l 1
 14 278 l 1
 14 360 l 2
 14 425 62 439 118 439 c 2
 182 439 l 1
 182 744 l 2
 182 763 198 779 217 779 c 2
104 73 m 2
 104 159 l 1
 58 205 l 1
 58 219 l 1
 103 265 l 1
 103 295 l 2
 103 316 120 333 142 333 c 2
 163 333 l 2
 182 333 201 321 201 298 c 2
 201 273 l 1
 198 266 l 1
 145 212 l 1
 196 161 l 1
 199 153 l 1xff40
 199 73 l 2
 199 55 187 37 167 37 c 2
 131 37 l 2
 108 37 104 58 104 73 c 2
121 170 m 1
 124 163 l 1
 124 73 l 2
 124 59 128 57 131 57 c 2
 167 57 l 2
 172 57 179 62 179 73 c 2
 179 149 l 1
 124 205 l 1
 123 219 l 1
 181 278 l 1
 181 298 l 2
 181 307 175 313 163 313 c 2
 142 313 l 2
 131 313 123 305 123 295 c 2
 123 261 l 1
 121 254 l 1
 79 212 l 1
 121 170 l 1
EndSplineSet
EndChar

StartChar: E
Encoding: 69 69 15
Width: 308
Flags: MW
HStem: 38 20<250 252 250 261> 114 20G<109.5 172 120 172 172 247> 203 20G<101 218 91 222 101 101> 203 67<124 171 124 222 101 171> 203 130<142 163 163 172.5 142 222 101 163> 419 20G<90 224 117 224>
VStem: 15 20<122 148 148 148> 81 20<152 203> 104 20<260 270> 181 20<278 298 273 302.5> 271 20<70 95 277 378>
LayerCount: 2
Back
Fore
SplineSet
250 38 m 2xe7e0
 102 39 l 2
 47 39 15 60 15 122 c 2
 15 148 l 1
 -44 206 l 1
 -44 220 l 1
 14 278 l 1
 14 360 l 2
 14 424 61 439 117 439 c 2
 224 439 l 2
 262 439 291 423 291 378 c 2
 291 273 l 1
 288 265 l 1
 229 206 l 1
 222 203 l 1
 101 203 l 1
 101 152 l 2
 101 142 109 134 120 134 c 2
 172 134 l 1
 172 134 241 134 247 134 c 0
 264 134 291 131 291 95 c 2
 291 70 l 2
 291 40 272 38 250 38 c 2xe7e0
270 62 m 0
 271 63 271 66 271 70 c 2
 271 95 l 2
 271 111 263 114 247 114 c 0
 241 114 172 114 172 114 c 1
 120 114 l 2
 99 114 81 131 81 152 c 2
 81 213 l 1
 91 223 l 1
 218 223 l 1
 271 277 l 1
 271 378 l 2
 271 408 256 419 224 419 c 2
 117 419 l 2
 63 419 34 406 34 360 c 2
 34 273 l 1
 31 266 l 1
 -22 213 l 1
 32 159 l 1
 35 152 l 1
 35 122 l 2
 35 73 55 59 102 59 c 2
 250 58 l 2
 254 58 269 58 270 62 c 0
181 278 m 1
 181 298 l 2
 181 307 175 313 163 313 c 2
 142 313 l 2
 131 313 123 305 123 295 c 2
 124 270 l 1xd7e0
 171 270 l 1
 181 278 l 1
201 298 m 2
 201 273 l 1
 197 266 l 1
 181 252 l 1
 175 250 l 1
 114 250 l 1
 104 260 l 1
 103 295 l 2
 103 316 120 333 142 333 c 2xcfe0
 163 333 l 2
 182 333 201 321 201 298 c 2
EndSplineSet
EndChar

StartChar: F
Encoding: 70 70 16
Width: 243
Flags: MW
HStem: -10 20<80 85 47 92.5> 314 20G<221 232> 420 20G<174 174> 420 270<109 174> 521 20G<173 174> 760 20G<173 174>
VStem: 9 20<27 39 27 40 279 742> 99 20<39 159 159 159 439 669> 142 20<540 629 629 630 540 630> 221 20<334 361 324 361 573 694>
LayerCount: 2
Back
Fore
SplineSet
-28 213 m 1xd7c0
 27 159 l 1
 30 152 l 1
 29 39 l 2
 29 15 35 11 47 10 c 0
 52 10 70 11 80 10 c 0
 90 10 99 17 99 39 c 2
 99 159 l 1
 53 205 l 1
 53 219 l 1
 98 265 l 1
 98 295 l 2
 98 316 115 333 136 333 c 2
 221 334 l 1
 221 361 l 2
 222 411 200 421 174 420 c 2
 109 419 l 1
 99 428 l 1
 99 680 l 1
 109 690 l 1
 142 689 162 676 162 630 c 0
 164 612 163 573 162 540 c 1
 173 541 l 2xefc0
 204 542 221 553 221 573 c 2
 221 694 l 2
 221 745 213 756 173 760 c 1
 44 759 l 2
 36 759 29 751 29 742 c 2
 29 275 l 1
 26 268 l 1
 -28 213 l 1xd7c0
9 40 m 2
 10 148 l 1
 -49 206 l 1
 -49 220 l 1
 9 279 l 1
 9 742 l 2
 9 760 24 779 44 779 c 2
 174 780 l 1
 228 775 241 751 241 694 c 2
 241 573 l 2
 241 535 206 523 174 521 c 2
 152 520 l 1
 142 530 l 1
 143 563 143 609 142 629 c 2
 142 630 l 2
 141 659 135 667 119 669 c 1
 119 439 l 1
 174 440 l 2
 211 441 241 422 241 361 c 2
 241 324 l 1
 232 314 l 1
 136 313 l 2
 126 313 118 305 118 295 c 2
 118 261 l 1
 115 254 l 1
 74 212 l 1
 116 170 l 1
 119 163 l 1
 119 39 l 2
 119 10 105 -10 80 -10 c 0
 70 -9 52 -10 47 -9 c 0
 17 -9 9 11 9 40 c 2
EndSplineSet
EndChar

StartChar: G
Encoding: 71 71 17
Width: 303
Flags: MW
HStem: -217 20<26.5 135 35 128> -131 20<32 129 35 129 35 135> -131 265<32 140 119 135> -12 20<15 79.5 11.5 80.5> -12 71<78.5 80.5> 418 21G<117 191> 469 20G<212 256 216 256>
VStem: -143 20<-212.5 -127 -212.5 -120> 4 20<-186 -141> 13 110<278 295 205 360> 14 20<122 148 148 148> 133 20<-1 39 39 39> 181 20<278 298 273 302.5 439 454> 195 20<-31 39 -37 49 -37 49> 273 20<79 148 148 148>
LayerCount: 2
Back
Fore
SplineSet
256 469 m 2xcf3a
 216 469 l 2
 208 469 201 463 201 454 c 2
 201 429 l 1
 191 418 l 1
 117 419 l 2
 63 419 33 406 33 360 c 2
 33 273 l 1
 31 266 l 1
 -23 213 l 1
 31 159 l 1
 34 152 l 1
 34 122 l 2
 34 73 55 59 102 59 c 2
 143 58 l 1
 153 48 l 1
 153 -14 l 1
 141 -24 l 1
 120 -17 92 -12 69 -12 c 0
 -39 -12 -123 -84 -123 -170 c 0
 -123 -255 -39 -327 69 -327 c 0
 112 -327 149 -316 181 -296 c 1
 154 -275 136 -248 128 -217 c 1
 35 -217 l 2
 18 -217 4 -203 4 -186 c 2xcf96
 4 -141 l 2
 4 -124 18 -111 35 -111 c 2
 129 -111 l 1
 142 -79 165 -52 195 -31 c 1
 195 49 l 1
 205 59 l 1
 219 59 273 57 273 79 c 2
 273 148 l 1
 214 206 l 1
 214 220 l 1
 271 277 l 1
 271 452 l 2
 271 462 264 469 256 469 c 2xcf3a
216 489 m 2
 256 489 l 2
 277 489 291 471 291 452 c 2
 291 273 l 1
 289 266 l 1
 236 213 l 1
 290 159 l 1
 293 152 l 1
 293 79 l 2
 293 42 241 39 215 39 c 1
 215 -37 l 1
 210 -45 l 1
 179 -65 157 -93 145 -124 c 1
 135 -131 l 1
 35 -131 l 2
 29 -131 24 -135 24 -141 c 2
 24 -186 l 2
 24 -192 29 -197 35 -197 c 2
 135 -197 l 1
 145 -205 l 1
 153 -238 172 -267 204 -288 c 1
 204 -305 l 1
 167 -331 122 -347 69 -347 c 0
 -46 -347 -143 -269 -143 -170 c 0
 -143 -70 -46 8 69 8 c 0xa75a
 90 8 113 4 133 -1 c 1
 133 39 l 1
 102 39 l 2
 46 38 14 60 14 122 c 2
 14 148 l 1
 -44 206 l 1
 -44 220 l 1
 13 278 l 1xd73a
 13 360 l 2
 13 425 61 439 117 439 c 2
 181 439 l 1
 181 454 l 2
 181 474 197 489 216 489 c 2
144 212 m 1
 175 181 l 1
 178 174 l 1
 178 149 l 2
 178 126 160 114 140 114 c 2
 119 114 l 2
 97 114 80 131 80 152 c 2
 80 183 l 1
 58 205 l 1
 58 219 l 1
 103 265 l 1
 103 295 l 2
 103 316 120 333 141 333 c 2
 163 333 l 2
 182 333 201 321 201 298 c 2
 201 273 l 1
 198 266 l 1
 144 212 l 1
158 149 m 2
 158 169 l 1
 123 205 l 1
 123 219 l 1
 181 278 l 1
 181 298 l 2
 181 307 174 313 163 313 c 2
 141 313 l 2
 131 313 123 305 123 295 c 2
 123 261 l 1
 120 254 l 1
 79 212 l 1
 97 194 l 1
 100 187 l 1
 100 152 l 2
 100 142 109 134 119 134 c 2
 140 134 l 2
 152 134 158 140 158 149 c 2
EndSplineSet
EndChar

StartChar: H
Encoding: 72 72 18
Width: 316
Flags: MW
HStem: -10 20<93 98 60 105.5> 40 20<207 243 243 244 197 243> 313 20G<144.5 171 150 171> 419 20G<196 223> 759 20G<53 97 57 97>
VStem: 22 20<27 39 27 40 278 341 341 342 342 742> 112 20<39 159 159 159 439 744> 187 20<60 149 149 149> 189 20<278 298 273 302.5> 281 20<79 148 148 148>
LayerCount: 2
Back
Fore
SplineSet
196 419 m 2xfec0
 122 418 l 1
 112 428 l 1
 112 744 l 2
 112 752 105 759 97 759 c 2
 57 759 l 2
 49 759 42 751 42 742 c 2
 42 342 l 1
 42 273 l 1
 39 266 l 1
 -14 213 l 1
 40 159 l 1
 43 152 l 1
 42 39 l 2
 42 15 48 11 60 10 c 0
 65 10 83 11 93 10 c 0
 103 10 112 17 112 39 c 2
 112 159 l 1
 66 205 l 1
 66 219 l 1
 111 265 l 1
 111 295 l 2
 111 316 128 333 150 333 c 2
 171 333 l 2
 190 333 209 321 209 298 c 2
 209 273 l 1
 206 266 l 1
 153 212 l 1
 204 161 l 1
 207 154 l 1xff40
 207 60 l 1
 219 60 238 59 243 60 c 0
 251 60 281 65 281 79 c 2
 281 148 l 1
 223 206 l 1
 223 220 l 1
 280 277 l 1
 280 341 l 1
 280 360 l 2
 280 406 250 419 196 419 c 2xfec0
132 439 m 1
 196 439 l 2
 252 439 300 425 300 360 c 2
 300 341 l 1
 300 273 l 1
 297 266 l 1
 244 213 l 1
 298 159 l 1
 301 152 l 1
 301 79 l 2
 301 50 266 42 244 40 c 0
 239 39 203 40 197 40 c 1
 187 50 l 1
 187 149 l 1
 132 205 l 1
 131 219 l 1
 189 278 l 1xfec0
 189 298 l 2
 189 307 183 313 171 313 c 2
 150 313 l 2
 139 313 131 305 131 295 c 2
 131 261 l 1
 129 254 l 1
 87 212 l 1
 129 170 l 1
 132 163 l 1
 132 39 l 2
 132 10 118 -10 93 -10 c 0
 83 -9 65 -10 60 -9 c 0
 30 -9 22 11 22 40 c 2
 23 148 l 1
 -36 206 l 1
 -36 220 l 1
 22 278 l 1
 22 341 l 1
 22 742 l 2
 22 760 36 779 57 779 c 2
 97 779 l 2
 116 779 132 763 132 744 c 2
 132 439 l 1
EndSplineSet
EndChar

StartChar: I
Encoding: 73 73 19
Width: 135
Flags: MW
HStem: -10 20<77 82 44 89.5> 406 20G<9 49 -2 59> 469 20G<48 76>
VStem: -12 147<416 436> 6 20<27 39 27 40> 49 20<363 406 406 406> 96 20<39 159 159 159> 115 20<403 430.5>
LayerCount: 2
Back
Fore
SplineSet
23 266 m 1xee
 -30 213 l 1
 24 159 l 1
 27 152 l 1
 26 39 l 2
 26 15 32 11 44 10 c 0
 49 10 67 11 77 10 c 0
 87 10 96 17 96 39 c 2
 96 159 l 1
 50 205 l 1
 50 219 l 1
 95 265 l 1
 95 290 l 1
 25 334 l 1
 26 274 l 1
 23 266 l 1xee
-52 206 m 1
 -52 220 l 1
 6 278 l 1
 5 352 l 1
 21 361 l 1
 111 304 l 1
 115 295 l 1xee
 115 261 l 1
 113 254 l 1
 71 212 l 1
 113 170 l 1
 116 163 l 1xed
 116 39 l 2
 116 10 102 -10 77 -10 c 0
 67 -9 49 -10 44 -9 c 0
 14 -9 6 11 6 40 c 2
 7 148 l 1
 -52 206 l 1
61 469 m 0
 35 469 14 451 9 426 c 1
 59 426 l 1
 69 416 l 1
 69 363 l 1
 94 368 115 390 115 416 c 0xed
 115 445 91 469 61 469 c 0
61 489 m 0
 102 489 135 456 135 416 c 0
 135 375 99 342 59 342 c 1
 49 352 l 1
 49 406 l 1
 -2 406 l 1
 -12 416 l 1xf0
 -12 456 21 489 61 489 c 0
EndSplineSet
EndChar

StartChar: J
Encoding: 74 74 20
Width: 149
Flags: MW
HStem: -20 20<108 109 108 122.5> 406 20G<25 65 14 75> 469 20G<64 92>
VStem: -144 20<4.29497e+09 4.29497e+09> -29 21 4 147<416 436> 23 20<45 148 148 148> 65 20<363 406 406 406> 112 20<39 159 159 159> 131 20<403 430.5>
LayerCount: 2
Back
Fore
SplineSet
77 469 m 0xfb40
 51 469 30 451 25 426 c 1
 75 426 l 1
 85 416 l 1
 85 363 l 1
 110 368 131 390 131 416 c 0
 131 445 107 469 77 469 c 0xfb40
77 489 m 0
 118 489 151 456 151 416 c 0
 151 375 115 342 75 342 c 1
 65 352 l 1
 65 406 l 1
 14 406 l 1
 4 416 l 1xfc
 4 456 37 489 77 489 c 0
36 -317 m 1
 -49 -232 -63 -76 75 -9 c 0
 84 -5 97 0 108 0 c 0
 109 0 109 0 109 0 c 1
 114 6 112 33 112 39 c 2xfb80
 112 159 l 1
 66 205 l 1
 66 219 l 1
 111 265 l 1
 111 290 l 1
 41 334 l 1
 42 274 l 1
 39 266 l 1
 -14 213 l 1
 40 159 l 1
 43 152 l 1
 43 45 l 2
 43 37 42 29 40 22 c 2
 34 14 l 1
 -56 -17 -126 -103 -124 -169 c 0
 -121 -243 -63 -295 36 -317 c 1
77 -325 m 1
 70 -343 l 1
 -55 -327 -140 -268 -144 -170 c 0
 -147 -94 -71 -3 22 31 c 1
 22 33 l 2
 23 37 23 42 23 45 c 2
 23 148 l 1
 -36 206 l 1
 -36 220 l 1
 22 278 l 1
 21 352 l 1
 37 361 l 1
 127 304 l 1
 131 295 l 1xfb80
 131 261 l 1
 129 254 l 1
 87 212 l 1
 129 170 l 1
 132 163 l 1xfb40
 132 39 l 2
 132 20 137 -20 108 -20 c 1
 108 -20 105 -20 101 -21 c 0
 97 -21 91 -23 84 -27 c 0
 -50 -92 -26 -254 77 -325 c 1
EndSplineSet
EndChar

StartChar: K
Encoding: 75 75 21
Width: 304
Flags: MW
HStem: -10 20<85 90 52 97.5 196 233> 558 20G<209.5 248 219 248> 759 20G<45 89 49 89>
VStem: 14 20<27 39 27 40 278 341 341 342 342 742> 104 20<40 176 304 744> 176 20<10 123 123 123 357 536 536 537> 273 20<34 148 148 148>
LayerCount: 2
Back
Fore
SplineSet
176 357 m 1
 176 536 l 2
 176 565 189 578 219 578 c 2
 248 578 l 2
 279 578 292 567 292 538 c 2
 292 273 l 1
 289 266 l 1
 236 213 l 1
 290 159 l 1
 293 152 l 1
 293 33 l 2
 293 6 259 -10 233 -10 c 2
 233 -10 191 -10 186 -10 c 2
 176 0 l 1
 176 123 l 1
 124 176 l 1
 124 39 l 2
 124 10 110 -10 85 -10 c 0
 75 -9 57 -10 52 -9 c 0
 22 -9 14 11 14 40 c 2
 15 148 l 1
 -44 206 l 1
 -44 220 l 1
 14 278 l 1
 14 341 l 1
 14 742 l 2
 14 760 28 779 49 779 c 2
 89 779 l 2
 108 779 124 763 124 744 c 2
 124 304 l 1
 176 357 l 1
196 537 m 2
 196 352 l 1
 193 345 l 1
 121 273 l 1
 104 280 l 1
 104 744 l 2
 104 752 97 759 89 759 c 2
 49 759 l 2
 41 759 34 751 34 742 c 2
 34 342 l 1
 34 273 l 1
 31 266 l 1
 -22 213 l 1
 32 159 l 1
 35 152 l 1
 34 39 l 2
 34 15 40 11 52 10 c 0
 57 10 75 11 85 10 c 0
 95 10 104 17 104 40 c 2
 104 200 l 1
 121 207 l 1
 193 135 l 1
 196 128 l 1
 196 10 l 1
 210 10 233 10 233 10 c 2
 257 10 273 24 273 34 c 2
 273 148 l 1
 215 206 l 1
 215 220 l 1
 272 277 l 1
 272 538 l 2
 272 555 270 558 248 558 c 2
 219 558 l 2
 200 558 196 554 196 537 c 2
EndSplineSet
EndChar

StartChar: L
Encoding: 76 76 22
Width: 136
Flags: MW
HStem: -10 20<81 86 48 93.5> 759 20G<41 85 45 85>
VStem: 10 20<27 39 27 40 278 742> 100 20<39 159 159 159 629 748>
LayerCount: 2
Back
Fore
SplineSet
85 759 m 2
 45 759 l 2
 37 759 30 751 30 742 c 2
 30 274 l 1
 27 266 l 1
 -26 213 l 1
 28 159 l 1
 31 152 l 1
 30 39 l 2
 30 15 36 11 48 10 c 0
 53 10 71 11 81 10 c 0
 91 10 100 17 100 39 c 2
 100 159 l 1
 54 205 l 1
 54 219 l 1
 99 265 l 1
 99 353 99 359 99 399 c 0
 100 439 100 514 100 744 c 0
 100 752 93 759 85 759 c 2
45 779 m 2
 85 779 l 2
 104 779 120 763 120 744 c 0
 120 514 120 439 119 399 c 0
 119 359 119 353 119 261 c 1
 117 254 l 1
 75 212 l 1
 117 170 l 1
 120 163 l 1
 120 39 l 2
 120 10 106 -10 81 -10 c 0
 71 -9 53 -10 48 -9 c 0
 18 -9 10 11 10 40 c 2
 11 148 l 1
 -48 206 l 1
 -48 220 l 1
 10 278 l 1
 10 742 l 2
 10 760 24 779 45 779 c 2
EndSplineSet
EndChar

StartChar: M
Encoding: 77 77 23
Width: 474
Flags: MW
HStem: -11 20<353 412.5> 256 20G<127 228 127 232 117 228> 337 20G<37 73 37 37>
VStem: 18 20<27 39 27 40> 107 20<276 276 276 303 303 303> 180 20<10 123 123 123> 277 20<34 148 148 148> 344 20<8 122 122 122> 441 20<32 146 146 146>
LayerCount: 2
Back
Fore
SplineSet
284 304 m 1
 239 259 l 1
 232 256 l 1
 117 256 l 1
 107 266 l 1
 107 303 l 2
 104 330 99 337 73 337 c 2
 37 337 l 1
 38 274 l 1
 35 266 l 1
 -18 213 l 1
 36 159 l 1
 39 152 l 1
 38 39 l 2
 38 15 44 11 56 10 c 0
 61 10 79 11 89 10 c 0
 99 10 108 17 108 40 c 2
 108 200 l 1
 125 207 l 1
 197 135 l 1
 200 128 l 1
 200 10 l 1
 214 10 237 10 237 10 c 2
 261 10 277 24 277 34 c 2
 277 148 l 1
 247 180 l 1
 247 193 l 1
 264 217 l 1
 280 218 l 1
 361 133 l 1
 364 126 l 1
 364 8 l 1
 378 8 401 9 401 9 c 2
 424 9 441 23 441 32 c 2
 441 146 l 1
 364 223 304 284 284 304 c 1
127 276 m 1
 228 276 l 1
 277 325 l 1
 291 325 l 1
 291 325 361 254 458 158 c 1
 461 151 l 1
 461 32 l 2
 461 5 427 -11 401 -11 c 2
 401 -11 359 -12 353 -11 c 2
 344 -1 l 1
 344 122 l 1
 273 196 l 1
 268 188 l 1
 295 159 l 1
 297 152 l 1
 297 33 l 2
 297 6 263 -10 237 -10 c 2
 237 -10 195 -10 190 -10 c 2
 180 0 l 1
 180 123 l 1
 128 176 l 1
 128 39 l 2
 128 10 114 -10 89 -10 c 0
 79 -9 61 -10 56 -9 c 0
 26 -9 18 11 18 40 c 2
 19 148 l 1
 -40 206 l 1
 -40 220 l 1
 18 278 l 1
 17 347 l 1
 27 357 l 1
 73 357 l 2
 112 357 123 339 127 304 c 1
 127 276 l 1
EndSplineSet
EndChar

StartChar: N
Encoding: 78 78 24
Width: 299
Flags: MW
HStem: -10 20<85 90 52 97.5 196 233> 256 20G<123 165 113 170> 337 20G<33 69 33 33>
VStem: 14 20<27 39 27 40> 103 20<276 303 303 303> 176 20<10 123 123 123> 273 20<34 148 148 148>
LayerCount: 2
Back
Fore
SplineSet
103 266 m 1
 103 303 l 2
 100 330 95 337 69 337 c 2
 33 337 l 1
 34 274 l 1
 31 266 l 1
 -22 213 l 1
 32 159 l 1
 35 152 l 1
 34 39 l 2
 34 15 40 11 52 10 c 0
 57 10 75 11 85 10 c 0
 95 10 104 17 104 40 c 2
 104 200 l 1
 121 207 l 1
 193 135 l 1
 196 128 l 1
 196 10 l 1
 210 10 233 10 233 10 c 2
 257 10 273 24 273 34 c 2
 273 148 l 1
 165 256 l 1
 113 256 l 1
 103 266 l 1
123 304 m 1
 123 276 l 1
 170 276 l 1
 177 273 l 1
 291 159 l 1
 293 152 l 1
 293 33 l 2
 293 6 259 -10 233 -10 c 2
 233 -10 191 -10 186 -10 c 2
 176 0 l 1
 176 123 l 1
 124 176 l 1
 124 39 l 2
 124 10 110 -10 85 -10 c 0
 75 -9 57 -10 52 -9 c 0
 22 -9 14 11 14 40 c 2
 15 148 l 1
 -44 206 l 1
 -44 220 l 1
 14 278 l 1
 13 347 l 1
 23 357 l 1
 69 357 l 2
 108 357 119 339 123 304 c 1
EndSplineSet
EndChar

StartChar: O
Encoding: 79 79 25
Width: 306
Flags: MW
HStem: 38 20<218 234 218 239> 114 20<112.5 145 123 145> 313 20G<140.5 167 146 167> 417 20G<95 217 122 217>
VStem: 19 20<122 148 148 148> 85 20<152 183 183 183> 107 20<265 295> 163 20<149 169 169 169> 185 20<278 298 273 302.5> 276 20<277 367 273 380>
LayerCount: 2
Back
Fore
SplineSet
277 120 m 2
 277 148 l 1
 219 206 l 1
 219 220 l 1
 276 277 l 1
 276 367 l 2
 276 393 252 417 217 417 c 2
 122 417 l 2
 68 417 38 401 38 355 c 2
 38 274 l 1
 35 266 l 1
 -18 213 l 1
 36 159 l 1
 39 152 l 1
 39 122 l 2
 39 73 59 59 106 59 c 2
 218 58 l 2
 250 58 277 79 277 120 c 2
294 159 m 1
 297 152 l 1
 297 119 l 2
 297 67 260 38 218 38 c 2
 106 39 l 2
 51 39 19 60 19 122 c 2
 19 148 l 1
 -40 206 l 1
 -40 220 l 1
 18 278 l 1
 18 355 l 2
 18 419 65 437 122 437 c 2
 217 437 l 2
 261 437 296 407 296 367 c 2
 296 273 l 1
 293 266 l 1
 240 213 l 1
 294 159 l 1
149 212 m 1
 180 181 l 1
 183 174 l 1
 183 149 l 2
 183 126 164 114 145 114 c 2
 123 114 l 2
 102 114 85 131 85 152 c 2
 85 183 l 1
 62 205 l 1
 62 219 l 1
 107 265 l 1
 107 295 l 2
 107 316 124 333 146 333 c 2
 167 333 l 2
 186 333 205 321 205 298 c 2
 205 273 l 1
 202 266 l 1
 149 212 l 1
163 149 m 2
 163 169 l 1
 127 205 l 1
 127 219 l 1
 185 278 l 1
 185 298 l 2
 185 307 179 313 167 313 c 2
 146 313 l 2
 135 313 127 305 127 295 c 2
 127 261 l 1
 125 254 l 1
 84 212 l 1
 102 194 l 1
 105 187 l 1
 105 152 l 2
 105 142 113 134 123 134 c 2
 145 134 l 2
 156 134 163 140 163 149 c 2
EndSplineSet
EndChar

StartChar: P
Encoding: 80 80 26
Width: 307
Flags: MW
HStem: -347 20<19 94.5 19 99.5> -347 150<39 99.5> -131 20<36 134 39 134 39 141> -131 135<36 104 104 104 104 141> 39 19<104 210 104 104> 39 95<123 144 144 150 123 210 104 144> 39 294<145 167 167 176.5 145 210 104 167>
VStem: -139 20<-212.5 -133.5 -212.5 -128.5> 8 20<-186 -141> 18 20<2 148 148 148> 84 20<4 39 4 48 4 48 152 183 183 183> 107 20<265 295> 162 20<149 169 169 169> 185 20<278 298> 277 20<79 148 148 148>
LayerCount: 2
Back
Fore
SplineSet
52 489 m 2x59be
 93 489 l 2
 112 489 128 474 128 454 c 2
 127 439 l 1
 191 439 l 2
 248 439 295 425 295 360 c 2
 295 273 l 1
 293 266 l 1
 240 213 l 1
 294 159 l 1
 297 152 l 1
 297 79 l 2
 297 40 236 39 210 39 c 2
 104 39 l 1
 104 4 l 1
 134 2 189 -12 214 -28 c 1
 214 -45 l 1
 183 -65 162 -93 150 -124 c 1
 141 -131 l 1
 39 -131 l 2
 33 -131 28 -135 28 -141 c 2
 28 -186 l 2
 28 -192 33 -197 39 -197 c 2
 139 -197 l 1
 149 -205 l 1
 157 -238 176 -267 208 -288 c 1
 208 -305 l 1
 171 -331 126 -347 73 -347 c 0
 -42 -347 -139 -269 -139 -170 c 0
 -139 -87 -69 -19 18 2 c 1xa97e
 18 148 l 1
 -40 206 l 1
 -40 220 l 1
 17 278 l 1
 17 451 l 2
 17 469 32 489 52 489 c 2x59be
93 469 m 2
 52 469 l 2
 45 469 37 461 37 451 c 2
 37 273 l 1
 35 266 l 1
 -19 213 l 1
 35 159 l 1
 38 152 l 1
 38 -7 l 1
 30 -16 l 1
 -55 -34 -119 -97 -119 -170 c 0
 -119 -255 -35 -327 73 -327 c 0
 116 -327 153 -316 185 -296 c 1
 158 -275 140 -248 132 -217 c 1
 39 -217 l 2
 22 -217 8 -203 8 -186 c 2xa9be
 8 -141 l 2
 8 -124 22 -111 39 -111 c 2
 134 -111 l 1
 146 -83 164 -58 190 -38 c 1
 161 -25 113 -15 94 -15 c 1
 84 -5 l 1
 84 48 l 1
 94 58 l 1
 211 58 l 2
 224 58 277 58 277 79 c 2
 277 148 l 1
 218 206 l 1
 218 220 l 1
 275 277 l 1
 275 360 l 2
 275 406 246 419 192 419 c 2
 117 418 l 1
 107 429 l 1
 108 454 l 2
 108 463 101 469 93 469 c 2
127 219 m 1
 185 278 l 1
 185 298 l 2
 185 307 178 313 167 313 c 2
 145 313 l 2
 135 313 127 305 127 295 c 2
 127 261 l 1
 124 254 l 1
 83 212 l 1
 101 194 l 1
 104 187 l 1
 104 152 l 2
 104 142 113 134 123 134 c 2xa5be
 144 134 l 2
 156 134 162 140 162 149 c 2
 162 169 l 1
 127 205 l 1
 127 219 l 1
205 273 m 1
 202 266 l 1
 148 212 l 1
 179 181 l 1
 182 174 l 1
 182 149 l 2
 182 126 164 114 144 114 c 2
 123 114 l 2
 101 114 84 131 84 152 c 2
 84 183 l 1
 62 205 l 1
 62 219 l 1
 107 265 l 1
 107 295 l 2
 107 316 124 333 145 333 c 2xa3be
 167 333 l 2
 186 333 205 321 205 298 c 2
 205 273 l 1
EndSplineSet
EndChar

StartChar: Q
Encoding: 81 81 27
Width: 303
Flags: MW
HStem: -390 20<273 273 273 283> -347 236<35 80.5> -334 20<273 273> -217 19<129 129> -217 106<129 129> -12 20<15 80.5> -12 71<78.5 80.5> 417 20G<90.5 213 117 213>
VStem: -143 20<-212.5 -127 -212.5 -120> 4 20<-186 -141> 14 20<122 148 148 148> 80 20<152 183 183 183> 80 98<152 174 137.5 183 137.5 183> 103 20<265 295> 103 98<273 295 295 298 273 305.5> 273 20<-370 -334 -334 -334 9 148 148 148>
LayerCount: 2
Back
Fore
SplineSet
4 -186 m 2xb3b5
 4 -141 l 2
 4 -124 18 -111 35 -111 c 2
 130 -111 l 1
 156 -47 206 -5 273 9 c 1
 273 148 l 1
 214 206 l 1
 214 220 l 1
 271 277 l 1
 271 367 l 2
 271 393 248 417 213 417 c 2
 117 417 l 2
 64 417 33 401 33 355 c 2
 33 274 l 1
 31 266 l 1
 -23 213 l 1
 31 159 l 1
 34 152 l 1xb5d5
 34 122 l 2
 34 73 55 59 102 59 c 2
 237 58 l 1
 238 39 l 1
 202 33 155 7 138 -17 c 1
 127 -21 l 1
 106 -14 92 -12 69 -12 c 0
 -39 -12 -123 -84 -123 -170 c 0
 -123 -255 -39 -327 69 -327 c 0
 92 -327 113 -318 135 -311 c 1
 146 -315 l 1
 171 -350 226 -367 273 -370 c 1
 273 -334 l 1
 189 -329 136 -261 129 -217 c 1
 35 -218 l 2
 18 -218 4 -203 4 -186 c 2xb3b5
24 -141 m 2xc5b5
 24 -186 l 2
 24 -192 29 -198 35 -198 c 2
 138 -198 l 1
 148 -208 l 1
 148 -240 197 -314 283 -314 c 1
 293 -324 l 1
 293 -380 l 1
 283 -390 l 1
 234 -390 168 -374 134 -332 c 1
 113 -339 92 -347 69 -347 c 0xb5c9
 -46 -347 -143 -269 -143 -170 c 0
 -143 -70 -46 8 69 8 c 0
 92 8 107 6 126 0 c 1
 138 15 157 28 177 39 c 1
 102 39 l 2
 46 39 14 60 14 122 c 2
 14 148 l 1
 -44 206 l 1
 -44 220 l 1
 13 278 l 1
 13 355 l 2
 13 419 60 437 117 437 c 2
 213 437 l 2
 256 437 291 407 291 367 c 2
 291 273 l 1
 289 266 l 1
 236 213 l 1
 290 159 l 1
 293 152 l 1
 293 0 l 1
 285 -9 l 1
 218 -22 171 -58 146 -124 c 1
 136 -131 l 1
 35 -131 l 2
 29 -131 24 -135 24 -141 c 2xc5b5
144 212 m 1
 175 181 l 1
 178 174 l 1
 178 149 l 2
 178 126 160 114 140 114 c 2
 119 114 l 2
 97 114 80 131 80 152 c 2
 80 183 l 1
 58 205 l 1
 58 219 l 1
 103 265 l 1xb5b3
 103 295 l 2
 103 316 120 333 141 333 c 2
 163 333 l 2
 182 333 201 321 201 298 c 2xb5b5
 201 273 l 1
 198 266 l 1
 144 212 l 1
158 149 m 2
 158 169 l 1
 123 205 l 1xb5b5
 123 219 l 1
 181 278 l 1
 181 298 l 2
 181 307 174 313 163 313 c 2
 141 313 l 2
 131 313 123 305 123 295 c 2
 123 261 l 1
 120 254 l 1
 79 212 l 1
 97 194 l 1
 100 187 l 1
 100 152 l 2
 100 142 109 134 119 134 c 2
 140 134 l 2
 152 134 158 140 158 149 c 2
EndSplineSet
EndChar

StartChar: R
Encoding: 82 82 28
Width: 313
Flags: MW
HStem: -9 20<41 69 41 69 31 69> 204 20G<223 228> 313 20G<144.5 171 150 171> 420 20G<133 197 133 197 123 197> 471 20G<54 98 58 98>
VStem: 21 20<1 11> 105 20<41 167 167 167> 113 20<440 456 440 456 440 460> 189 20<278 298 273 302.5> 281 20<282 361 277 384>
LayerCount: 2
Back
Fore
SplineSet
281 282 m 1xfdc0
 281 361 l 2
 281 407 251 420 197 420 c 2
 123 420 l 1
 113 430 l 1
 113 456 l 2
 113 464 106 471 98 471 c 2
 58 471 l 2
 50 471 43 463 43 454 c 2
 42 273 l 1
 39 266 l 1
 -14 213 l 1
 40 159 l 1
 43 152 l 1
 41 11 l 1
 69 11 l 2
 95 11 105 15 105 41 c 2xfec0
 105 167 l 1
 66 205 l 1
 66 219 l 1
 111 265 l 1
 111 295 l 2
 111 316 128 333 150 333 c 2
 171 333 l 2
 190 333 209 321 209 298 c 2
 209 273 l 1
 206 266 l 1
 163 223 l 1
 223 224 l 1
 281 282 l 1xfdc0
301 361 m 2
 301 277 l 1
 298 270 l 1
 234 207 l 1
 228 204 l 1
 139 202 l 1
 131 219 l 1
 189 278 l 1
 189 298 l 2
 189 307 183 313 171 313 c 2
 150 313 l 2
 139 313 131 305 131 295 c 2
 131 261 l 1
 129 254 l 1
 88 212 l 1
 122 178 l 1
 125 171 l 1
 125 41 l 2
 125 -2 100 -9 69 -9 c 2
 31 -9 l 1
 21 1 l 1
 23 148 l 1
 -36 206 l 1
 -36 220 l 1
 22 278 l 1
 23 454 l 2
 23 472 37 491 58 491 c 2
 98 491 l 2
 117 491 133 475 133 456 c 2xfdc0
 133 440 l 1
 197 440 l 2
 253 440 301 426 301 361 c 2
EndSplineSet
EndChar

StartChar: S
Encoding: 83 83 29
Width: 303
Flags: MW
HStem: 40 20<64.5 233 86 233> 114 20<113.5 144 122 144> 142 20G<86 95> 142 80<86 134> 250 20G<125 174 115 178> 250 83<145 166 166 174 115 166> 420 20G<275 285>
VStem: 15 20<96 143> 15 89<147 152 147 154 147 154> 105 20<261 270> 107 20<296 296> 162 20<149 169 169 169> 185 110<292 297.5> 275 20<99 99 302 420 420 420>
LayerCount: 2
Back
Fore
SplineSet
86 60 m 2xeb54
 233 60 l 2
 267 60 273 58 275 99 c 2
 277 148 l 1
 174 250 l 1
 115 250 l 1
 105 261 l 1
 107 296 l 2xd734
 108 316 124 333 145 333 c 2
 166 333 l 2
 185 333 200 318 204 302 c 1
 275 302 l 1
 275 420 l 1
 121 419 l 2
 67 418 37 406 37 360 c 2
 37 273 l 1
 34 266 l 1
 -9 223 l 1
 134 222 l 1
 141 219 l 1
 179 181 l 1
 182 174 l 1
 182 149 l 2
 182 126 163 114 144 114 c 2
 122 114 l 2
 105 114 90 126 86 142 c 1
 35 143 l 1
 35 96 l 2
 35 72 48 60 86 60 c 2xeb54
233 40 m 2
 86 40 l 2
 43 40 15 56 15 96 c 2
 15 154 l 1
 26 164 l 1
 95 162 l 1xeb58
 104 152 l 1
 104 142 112 134 122 134 c 2
 144 134 l 2
 156 134 162 140 162 149 c 2
 162 169 l 1
 130 202 l 1
 -33 203 l 1
 -40 220 l 1
 17 278 l 1
 17 360 l 2
 17 424 65 438 121 439 c 2
 285 440 l 1
 295 430 l 1
 295 292 l 1
 285 282 l 1
 195 282 l 1
 185 292 l 1xeb38
 185 303 176 313 166 313 c 2
 145 313 l 2
 135 313 127 305 127 295 c 2
 125 270 l 1xeab4
 178 270 l 1
 185 267 l 1
 294 159 l 1
 297 152 l 1
 295 99 l 2
 293 45 278 40 233 40 c 2
EndSplineSet
EndChar

StartChar: T
Encoding: 84 84 30
Width: 299
Flags: MW
HStem: -9 20<100 110 100 203> 66 20<139.5 171 150 171> 94 20<208 281> 203 20G<-17 12 -17 16> 265 20G<232 247.5 232 251> 314 20G<87 118 92 108> 420 20G<267 277>
VStem: 9 20<278 360 273 392> 54 20<265 295 261 306> 108 20<221 314 314 314> 112 179<93.5 104> 169 20<166 299> 267 20<318 420 420 420> 271 20<31 94 94 94>
LayerCount: 2
Back
Fore
SplineSet
171 66 m 2xffa0
 150 66 l 2
 129 66 112 83 112 104 c 1
 115 111 l 1
 169 166 l 1xffd4
 169 324 l 1
 186 331 l 1
 232 285 l 1
 263 285 267 295 267 318 c 2
 267 420 l 1
 113 419 l 2
 59 418 29 406 29 360 c 2
 29 273 l 1
 26 266 l 1
 -17 223 l 1
 12 223 l 1
 54 265 l 1
 54 295 l 2
 54 317 71 334 92 334 c 2
 118 334 l 1
 128 324 l 1
 128 221 l 1
 146 200 l 1
 146 187 l 1
 32 70 l 1
 33 25 54 11 100 11 c 0
 120 11 183 11 203 11 c 0
 217 11 271 9 271 31 c 2xffd8
 271 94 l 1
 208 94 l 1
 204 78 190 66 171 66 c 2xffa0
150 86 m 2
 171 86 l 2
 181 86 189 94 189 105 c 1
 199 115 l 1
 281 114 l 1
 291 104 l 1
 291 31 l 2
 291 -10 230 -8 203 -9 c 0
 183 -9 120 -9 100 -9 c 0
 44 -9 12 12 12 74 c 1
 15 81 l 1
 125 194 l 1
 111 210 l 1
 108 217 l 1
 108 314 l 1
 92 314 l 2
 82 314 74 305 74 295 c 2
 74 261 l 1
 71 254 l 1
 23 206 l 1
 16 203 l 1
 -41 203 l 1
 -48 220 l 1
 9 278 l 1
 9 360 l 2
 9 424 57 438 113 439 c 2
 277 440 l 1
 287 430 l 1xffd8
 287 318 l 2
 287 283 274 265 228 265 c 1
 221 268 l 1
 189 299 l 1
 189 162 l 1
 186 155 l 1
 132 100 l 1
 134 92 141 86 150 86 c 2
EndSplineSet
EndChar

StartChar: U
Encoding: 85 85 31
Width: 305
Flags: MW
HStem: -9 19 66 20<162 165.5 162 173.5> 420 20G<100 110> 469 20G<213 255 219 255>
VStem: 13 20<73 148 148 148> 80 20<104.5 110> 102 20 178 20<108 149 149 149 277 447> 178 112<277 448 448 449 449 449> 270 23
LayerCount: 2
Back
Fore
SplineSet
219 489 m 2xfe80
 255 489 l 2
 276 490 290 471 290 452 c 2
 290 273 l 1
 287 266 l 1
 235 213 l 1
 289 159 l 1
 292 152 l 1
 290 64 315 -9 205 -9 c 0
 185 -9 122 -10 102 -10 c 0
 46 -10 13 11 13 73 c 2
 13 148 l 1
 -45 206 l 1
 -45 220 l 1
 12 278 l 1
 12 360 l 2
 12 424 52 441 110 440 c 1
 120 430 l 1
 122 261 l 1
 119 254 l 1
 78 212 l 1
 96 194 l 1
 99 187 l 1
 100 111 l 2
 100 98 111 85 118 85 c 2
 162 86 l 2
 169 86 178 95 178 108 c 2
 178 149 l 1
 122 205 l 1
 122 219 l 1
 178 277 l 1
 178 448 l 1
 178 449 l 2
 179 473 194 489 219 489 c 2xfe80
255 469 m 2
 219 469 l 2
 207 469 200 463 198 447 c 2xff40
 198 273 l 1
 195 267 l 1
 143 212 l 1
 195 161 l 1
 198 154 l 1
 198 108 l 2
 198 89 185 66 162 66 c 2
 118 65 l 2
 95 65 80 92 80 110 c 2
 79 183 l 1
 57 205 l 1
 57 219 l 1
 102 265 l 1
 100 420 l 1
 54 419 32 404 32 360 c 2
 32 273 l 1
 29 266 l 1
 -24 213 l 1
 30 159 l 1
 33 152 l 1
 33 73 l 2
 33 25 55 10 102 10 c 0
 122 10 185 11 205 11 c 0
 247 11 269 20 270 44 c 2
 272 148 l 1
 213 206 l 1
 213 220 l 1
 270 277 l 1
 270 452 l 2
 270 462 263 469 255 469 c 2
EndSplineSet
EndChar

StartChar: V
Encoding: 86 86 32
Width: 302
Flags: MW
HStem: -9 20<79 175 79 179 69 175> 420 20G<100 110> 469 20G<213 255 219 255>
VStem: 12 20<278 360 273 392> 59 20<11 101 101 101> 102 20 178 20<277 447 273 448 273 449 273 449> 270 20<101 106 277 452>
LayerCount: 2
Back
Fore
SplineSet
59 1 m 1
 59 101 l 1
 52 109 25 136 -45 206 c 1
 -45 220 l 1
 12 278 l 1
 12 360 l 2
 12 424 52 441 110 440 c 1
 120 430 l 1
 122 261 l 1
 119 254 l 1
 78 212 l 1
 96 194 l 1
 162 130 l 1
 179 148 l 1
 122 205 l 1
 122 219 l 1
 178 277 l 1
 178 448 l 1
 178 449 l 2
 179 473 194 489 219 489 c 2
 255 489 l 2
 276 490 290 471 290 452 c 2
 290 273 l 1
 287 266 l 1
 235 213 l 1
 289 159 l 1
 292 152 l 1
 290 101 l 1
 287 95 l 1
 186 -6 l 1
 179 -9 l 1
 69 -9 l 1
 59 1 l 1
77 111 m 1
 79 105 l 1
 79 11 l 1
 175 11 l 1
 270 106 l 1
 272 148 l 1
 213 206 l 1
 213 220 l 1
 270 277 l 1
 270 452 l 2
 270 462 263 469 255 469 c 2
 219 469 l 2
 207 469 200 463 198 447 c 2
 198 273 l 1
 195 267 l 1
 143 212 l 1
 200 155 l 1
 200 141 l 1
 169 109 l 1
 155 109 l 1
 82 180 l 1
 57 205 l 1
 57 219 l 1
 102 265 l 1
 100 420 l 1
 54 419 32 404 32 360 c 2
 32 273 l 1
 29 266 l 1
 -24 213 l 1
 58 131 77 111 77 111 c 1
EndSplineSet
EndChar

StartChar: W
Encoding: 87 87 33
Width: 462
Flags: MW
HStem: -11 20<246 341 246 345 236 341> 264 21G 420 20G<105 115> 468 20G<386 422 386 422>
VStem: 17 20<278 360 273 392> 64 20<11 101 101 101> 107 20 226 20<9 28 28 28> 344 20<276 445 272 446 272 447 272 447> 436 20<99 104>
LayerCount: 2
Back
Fore
SplineSet
244 211 m 1
 275 181 l 1
 328 128 l 1
 346 146 l 1
 288 203 l 1
 288 217 l 1
 344 276 l 1
 344 446 l 1
 344 447 l 2
 346 471 360 487 386 488 c 2
 422 488 l 2
 442 488 457 469 457 451 c 2
 457 271 l 1
 454 264 l 1
 401 211 l 1
 455 157 l 1
 458 150 l 1
 456 99 l 1
 453 93 l 1
 352 -8 l 1
 345 -11 l 1
 236 -11 l 1
 226 -1 l 1
 226 28 l 1
 191 -6 l 1
 184 -9 l 1
 74 -9 l 1
 64 1 l 1
 64 101 l 1
 57 109 30 136 -40 206 c 1
 -40 220 l 1
 17 278 l 1
 17 360 l 2
 17 424 57 441 115 440 c 1
 125 430 l 1
 127 261 l 1
 124 254 l 1
 83 212 l 1
 101 194 l 1
 167 130 l 1
 184 148 l 1
 127 205 l 1
 127 219 l 1
 185 280 l 1
 192 283 l 1
 293 285 l 1
 301 268 l 1
 244 211 l 1
321 107 m 1
 260 167 l 1
 223 203 l 1
 223 218 l 1
 269 264 l 1
 197 264 l 1
 148 212 l 1
 205 155 l 1
 205 141 l 1
 174 109 l 1
 160 109 l 1
 87 180 l 1
 62 205 l 1
 62 219 l 1
 107 265 l 1
 105 420 l 1
 59 419 37 404 37 360 c 2
 37 273 l 1
 34 266 l 1
 -19 213 l 1
 63 131 82 111 82 111 c 1
 84 105 l 1
 84 11 l 1
 180 11 l 1
 229 60 l 1
 246 53 l 1
 246 9 l 1
 341 9 l 1
 436 104 l 1
 438 146 l 1
 380 204 l 1
 380 218 l 1
 437 275 l 1
 437 451 l 2
 437 460 429 468 422 468 c 2
 386 468 l 2
 373 467 366 461 364 445 c 2
 364 272 l 1
 361 265 l 1
 309 211 l 1
 367 153 l 1
 367 139 l 1
 335 107 l 1
 321 107 l 1
EndSplineSet
EndChar

StartChar: X
Encoding: 88 88 34
Width: 298
Flags: MW
HStem: -10 21<227 266> 135 20G<38 73 34 77> 264 21G<32 80> 346 20G<215.5 260 220 260>
VStem: -40 130<212 212 212 220 220 220> 32 20<11 40 11 44 11 44> 70 20<212 212 212 264 264 264> 99 20<11 34 1 38 1 38> 185 20<278 305 305 331> 188 20<132 184 128 188 128 188> 275 20<277 329 273 334>
LayerCount: 2
Back
Fore
SplineSet
90 212 m 1xf7a0
 105 197 l 1
 185 278 l 1
 185 305 l 1
 185 331 l 2
 185 351 200 366 220 366 c 2
 260 366 l 2
 280 366 295 348 295 329 c 2
 295 273 l 1
 292 266 l 1
 253 230 218 194 208 184 c 1xf960
 208 128 l 1
 205 121 l 1xf7a0
 195 110 l 1
 297 8 l 1
 290 -10 l 1
 222 -10 l 1
 215 -7 l 1
 147 62 l 1
 119 34 l 1
 119 1 l 1
 109 -9 l 1
 42 -9 l 1
 32 1 l 1
 32 44 l 1
 35 51 l 1
 96 112 l 1
 73 135 l 1
 34 135 l 1
 27 138 l 1
 -40 206 l 1xf760
 -40 220 l 1
 20 281 l 1
 27 283 l 1
 80 285 l 1
 90 275 l 1
 90 212 l 1xf7a0
99 38 m 1
 102 45 l 1
 140 84 l 1
 154 84 l 1
 227 11 l 1
 266 11 l 1
 174 103 l 1
 174 117 l 1
 188 132 l 1
 188 188 l 1
 191 195 l 1
 191 195 230 236 275 277 c 1
 275 329 l 2
 275 339 267 346 260 346 c 2
 220 346 l 2
 211 346 205 340 205 331 c 2xf7a0
 205 305 l 1
 205 273 l 1
 202 266 l 1
 122 186 l 1
 122 176 l 1
 105 169 l 1
 73 201 l 1
 70 208 l 1
 70 264 l 1
 32 264 l 1
 -19 213 l 1
 38 155 l 1
 77 155 l 1
 84 152 l 1
 117 119 l 1
 117 105 l 1
 52 40 l 1
 52 11 l 1
 99 11 l 1
 99 38 l 1
EndSplineSet
EndChar

StartChar: Y
Encoding: 89 89 35
Width: 308
Flags: MW
HStem: -346 20<24 99.5 24 104> -216 20<133 140> -130 20<41 136 44 136 44 143> -12 20<78 88.5> 135 20G<44 79 40 83> 382 20G<68 135 82 125>
VStem: -134 20<-211.5 -126.5 -211.5 -119.5> 13 20<-186 -141> 23 20<274 278> 104 20<8 110 110 110> 125 20<294 382 382 382> 190 20<-37 184 -42 188 -42 188 331 335.5> 281 20<277 329 273 329>
LayerCount: 2
Back
Fore
SplineSet
83 224 m 1xff78
 107 200 l 1
 107 201 l 1
 190 278 l 1
 191 305 l 1
 190 331 l 2
 190 351 206 366 225 366 c 2
 266 366 l 2
 286 366 300 348 301 329 c 2
 301 273 l 1
 298 266 l 1
 259 230 221 194 210 184 c 1
 210 -42 l 1
 206 -51 l 1
 175 -70 165 -91 152 -124 c 1
 143 -130 l 1
 44 -130 l 2
 38 -130 33 -135 33 -141 c 2
 33 -186 l 2
 33 -192 38 -197 44 -197 c 2
 140 -196 l 1
 150 -204 l 1
 159 -238 181 -266 213 -288 c 1
 213 -304 l 1
 176 -331 130 -346 78 -346 c 0
 -38 -346 -134 -269 -134 -169 c 0
 -134 -70 -38 8 78 8 c 0
 86 8 96 10 104 8 c 1
 104 110 l 1
 79 135 l 1
 40 135 l 1
 33 138 l 1
 -35 206 l 1
 -35 220 l 1
 23 278 l 1xfef8
 22 343 l 2
 22 381 43 402 82 402 c 2
 135 402 l 1
 145 392 l 1
 145 289 l 1
 142 282 l 1
 83 224 l 1xff78
210 273 m 1
 207 266 l 1
 124 190 l 1
 124 179 l 1
 107 172 l 1
 62 217 l 1
 62 231 l 1
 125 294 l 1
 125 382 l 1
 82 382 l 2
 54 382 42 370 42 343 c 2
 43 274 l 1
 40 266 l 1
 -13 213 l 1
 44 155 l 1
 83 155 l 1
 90 152 l 1
 121 121 l 1
 124 114 l 1
 124 -6 l 1
 111 -15 l 1
 92 -9 99 -12 78 -12 c 0
 -30 -12 -114 -84 -114 -169 c 0
 -114 -254 -30 -326 78 -326 c 0
 121 -326 158 -315 190 -296 c 1
 163 -275 143 -248 133 -216 c 1
 44 -217 l 2
 27 -217 13 -203 13 -186 c 2xff78
 13 -141 l 2
 13 -124 27 -110 44 -110 c 2
 136 -110 l 1
 148 -81 160 -58 190 -37 c 1
 190 188 l 1
 193 195 l 1
 193 195 236 236 281 277 c 1
 281 329 l 2
 280 339 273 346 266 346 c 2
 225 346 l 2
 217 346 210 340 210 331 c 2
 211 305 l 1
 210 273 l 1
EndSplineSet
EndChar

StartChar: Z
Encoding: 90 90 36
Width: 300
Flags: MW
HStem: -9 20<47 270 67 270 67 280> 118 20G<157 224 157 225 157 227> 203 20G<-14 57 -14 61> 313 20G<135 162 140 162> 419 20G<89 230 116 230>
VStem: 10 20<44 103> 102 20<265 295 261 305.5> 180 20<278 298 273 302.5> 269 20<277 382 273 399>
LayerCount: 2
Back
Fore
SplineSet
157 138 m 1
 224 138 l 1
 261 144 290 105 290 76 c 2
 290 1 l 1
 280 -9 l 1
 67 -9 l 2
 27 -9 10 3 10 44 c 2
 10 107 l 1
 13 115 l 1
 180 278 l 1
 180 298 l 2
 180 307 173 313 162 313 c 2
 140 313 l 2
 130 313 122 305 122 295 c 2
 122 261 l 1
 119 253 l 1
 68 207 l 1
 61 203 l 1
 -38 203 l 1
 -45 220 l 1
 12 278 l 1
 12 360 l 2
 12 425 60 439 116 439 c 2
 230 439 l 2
 271 439 289 430 289 382 c 2
 289 273 l 1
 286 266 l 1
 286 266 252 230 157 138 c 1
133 118 m 1
 126 135 l 1
 217 224 259 266 269 277 c 1
 269 382 l 2
 269 416 264 419 230 419 c 2
 116 419 l 2
 62 419 32 406 32 360 c 2
 32 273 l 1
 29 266 l 1
 -14 223 l 1
 57 223 l 1
 102 265 l 1
 102 295 l 2
 102 316 119 333 140 333 c 2
 162 333 l 2
 181 333 200 321 200 298 c 2
 200 273 l 1
 197 266 l 1
 30 103 l 1
 30 44 l 2
 30 16 36 11 67 11 c 2
 270 11 l 1
 270 76 l 2
 270 98 248 122 227 118 c 1
 225 118 l 1
 133 118 l 1
EndSplineSet
EndChar

StartChar: underscore
Encoding: 95 95 37
Width: 314
Flags: MW
HStem: 142 20G 178 20G 263 20G<34 108 34 34 201 263 201 201>
LayerCount: 2
Back
Fore
SplineSet
295 266 m 1
 242 213 l 1
 296 159 l 1
 289 142 l 1
 29 144 l 1
 22 146 l 1
 -38 206 l 1
 -38 220 l 1
 22 280 l 1
 29 283 l 1
 133 283 l 1
 140 266 l 1
 85 212 l 1
 100 197 l 1
 137 198 l 1
 129 205 l 1
 129 219 l 1
 190 280 l 1
 197 283 l 1
 287 283 l 1
 295 266 l 1
220 206 m 1
 220 220 l 1
 263 263 l 1
 201 263 l 1
 150 212 l 1
 169 195 l 1
 162 178 l 1
 97 177 l 1
 89 180 l 1
 64 205 l 1
 64 219 l 1
 108 263 l 1
 34 263 l 1
 -17 213 l 1
 33 163 l 1
 265 162 l 1
 220 206 l 1
EndSplineSet
EndChar

StartChar: grave
Encoding: 96 96 38
Width: 189
Flags: MW
HStem: 600 81
VStem: 39 123 49 24<666 671>
LayerCount: 2
Back
Fore
SplineSet
152 625 m 2xa0
 169 622 164 597 148 600 c 2
 39 621 l 1
 49 671 l 2
 52 687 76 682 73 666 c 2
 68 641 l 1
 152 625 l 2xa0
EndSplineSet
EndChar

StartChar: a
Encoding: 97 97 39
Width: 285
Flags: MW
HStem: 49 75<60.5 125> 323 105<118 176 126 176>
VStem: 8 89<273 295 261 360 261 387.5> 9 66<144 152 144 152 144 152> 153 114<149 152> 176 90<428 452 273 454 273 461>
LayerCount: 2
Back
Fore
SplineSet
86 49 m 0xd4
 35 49 9 67 9 122 c 2
 9 152 l 1
 -53 213 l 1
 8 273 l 1xe8
 8 360 l 2
 8 415 47 429 102 429 c 2
 176 428 l 1
 176 454 l 2
 176 468 187 479 201 479 c 2
 241 479 l 2
 255 479 266 466 266 452 c 2
 266 423 l 1
 266 273 l 1
 206 213 l 1
 267 152 l 1xe4
 267 26 l 2
 267 12 256 1 242 1 c 2
 202 1 l 2
 188 1 177 12 177 26 c 2
 177 48 l 1
 177 48 107 49 86 49 c 0xd4
153 174 m 1
 115 212 l 1
 175 273 l 1
 175 298 l 2
 175 314 163 323 147 323 c 2
 126 323 l 2
 110 323 97 311 97 295 c 2
 97 261 l 1
 49 212 l 1
 75 187 l 1xd8
 75 152 l 2
 75 136 87 124 103 124 c 2
 125 124 l 2
 140 124 153 133 153 149 c 2
 153 174 l 1
EndSplineSet
EndChar

StartChar: b
Encoding: 98 98 40
Width: 286
Flags: MW
HStem: 0 20 47 276<118 126 126 147 118 151 118 157.5>
VStem: 97 78<273 295 261 298> 98 75<65.5 154 73 154 73 163>
LayerCount: 2
Back
Fore
SplineSet
266 40 m 2xd0
 266 17 245 1 210 1 c 0
 200 1 41 0 36 0 c 0
 15 0 8 13 8 39 c 2
 9 152 l 1
 -53 213 l 1
 8 273 l 1
 8 341 l 1
 8 742 l 2
 8 756 19 769 33 769 c 2
 73 769 l 2
 87 769 98 758 98 744 c 2
 98 428 l 1
 172 429 l 2
 227 429 266 415 266 360 c 2
 266 341 l 1
 266 273 l 1
 206 213 l 1
 266 153 l 1
 266 40 l 2xd0
98 73 m 2
 98 58 102 47 115 47 c 2
 151 47 l 2
 164 47 173 58 173 73 c 2
 173 154 l 1xd0
 115 212 l 1
 175 273 l 1
 175 298 l 2
 175 314 163 323 147 323 c 2
 126 323 l 2
 110 323 97 311 97 295 c 2
 97 261 l 1xe0
 49 212 l 1
 98 163 l 1
 98 73 l 2
EndSplineSet
EndChar

StartChar: c
Encoding: 99 99 41
Width: 275
Flags: MW
HStem: 124 199<118 125 125 126 126 230 118 232 118 242>
LayerCount: 2
Back
Fore
SplineSet
266 401 m 2
 266 352 l 2
 266 338 245 323 230 323 c 2
 126 323 l 2
 110 323 97 311 97 295 c 2
 97 261 l 1
 49 212 l 1
 75 187 l 1
 75 152 l 2
 75 136 87 124 103 124 c 2
 125 124 l 2
 130 124 232 124 232 124 c 2
 252 124 266 110 266 98 c 2
 266 76 l 2
 266 45 241 49 231 48 c 2
 231 48 92 48 86 49 c 0
 35 49 9 67 9 122 c 2
 9 152 l 1
 -53 213 l 1
 8 273 l 1
 8 360 l 2
 8 415 47 429 102 429 c 2
 230 428 l 2
 253 428 266 415 266 401 c 2
EndSplineSet
EndChar

StartChar: d
Encoding: 100 100 42
Width: 286
Flags: MW
HStem: 0 20 47 276<118 126 126 147 118 151 118 157.5>
VStem: 97 78<273 295 261 298> 98 75<65.5 154 73 154 73 163>
LayerCount: 2
Back
Fore
SplineSet
266 742 m 2xd0
 266 273 l 1
 206 213 l 1
 266 153 l 1
 266 40 l 2
 266 17 245 1 210 1 c 0
 200 1 41 0 36 0 c 0
 15 0 8 13 8 39 c 2
 9 152 l 1
 -53 213 l 1
 8 273 l 1
 8 360 l 2
 8 415 47 429 102 429 c 2
 176 428 l 1
 176 744 l 2
 176 758 187 769 201 769 c 2
 241 769 l 2
 255 769 266 756 266 742 c 2xd0
98 73 m 2
 98 58 102 47 115 47 c 2
 151 47 l 2
 164 47 173 58 173 73 c 2
 173 154 l 1xd0
 115 212 l 1
 175 273 l 1
 175 298 l 2
 175 314 163 323 147 323 c 2
 126 323 l 2
 110 323 97 311 97 295 c 2
 97 261 l 1xe0
 49 212 l 1
 98 163 l 1
 98 73 l 2
EndSplineSet
EndChar

StartChar: e
Encoding: 101 101 43
Width: 292
Flags: MW
HStem: 48 76<234 239> 213 47<75 159 98 159 98 206> 323 106<118 126 126 147>
VStem: 8 89<295 303 295 360 295 387.5> 9 66<144 152 144 152 144 152> 175 90<273 298 298 306>
LayerCount: 2
Back
Fore
SplineSet
265 95 m 2xec
 265 70 l 2
 265 50 256 48 234 48 c 2
 234 48 107 49 86 49 c 0
 35 49 9 67 9 122 c 2
 9 152 l 1
 -53 213 l 1
 8 273 l 1xec
 8 360 l 2
 8 415 46 429 101 429 c 2
 208 429 l 2
 243 429 265 416 265 378 c 2
 265 272 l 1
 206 213 l 1
 75 213 l 1xf4
 75 152 l 2
 75 136 88 124 104 124 c 2
 156 124 l 1
 156 124 225 124 231 124 c 0
 247 124 265 121 265 95 c 2xec
159 260 m 1
 175 273 l 1
 175 298 l 2
 175 314 163 323 147 323 c 2
 126 323 l 2
 110 323 97 311 97 295 c 2xf4
 98 260 l 1
 159 260 l 1
EndSplineSet
EndChar

StartChar: f
Encoding: 102 102 44
Width: 227
Flags: MW
HStem: 0 20 430 101<158 173 157 174> 430 250<93 174> 750 20G<157 157>
VStem: 93 43<530 630 630 650.5 530 680>
LayerCount: 2
Back
Fore
SplineSet
-58 213 m 1xb8
 3 275 l 1
 3 742 l 2
 3 756 14 769 28 769 c 0
 31 769 157 770 157 770 c 1
 205 766 215 748 215 694 c 2
 215 573 l 2
 215 543 189 531 157 531 c 2xd8
 136 530 l 1
 137 563 138 610 136 630 c 0
 136 671 120 679 93 680 c 1
 93 428 l 1
 158 430 l 2
 190 430 215 416 215 361 c 2
 215 324 l 1
 120 323 l 2
 105 323 92 311 92 295 c 2
 92 261 l 1
 44 212 l 1
 93 163 l 1
 93 39 l 2
 93 13 81 0 64 0 c 0
 54 1 36 0 31 0 c 0
 10 0 3 13 3 39 c 2
 4 152 l 1
 -58 213 l 1xb8
EndSplineSet
EndChar

StartChar: g
Encoding: 103 103 45
Width: 311
Flags: MW
HStem: -337 20 -207 86<19 119> -2 51<60.5 65> 124 199<117 124 124 125 125 132>
VStem: 74 78<149 152 152 174 149 187> 97 78<273 295 261 298>
LayerCount: 2
Back
Fore
SplineSet
240 479 m 2xf4
 254 479 265 466 265 452 c 2
 265 273 l 1
 205 213 l 1
 267 152 l 1
 267 79 l 2
 267 45 199 49 189 49 c 1
 189 -37 l 1
 156 -58 132 -87 119 -121 c 1
 19 -121 l 2
 7 -121 -2 -130 -2 -141 c 2
 -2 -186 l 2
 -2 -198 7 -207 19 -207 c 2
 119 -207 l 1
 127 -243 149 -274 182 -297 c 1
 147 -322 104 -337 53 -337 c 0
 -59 -337 -149 -262 -149 -170 c 0
 -149 -77 -59 -2 53 -2 c 0
 77 -2 106 -8 127 -14 c 1
 127 48 l 1
 107 48 106 49 86 49 c 0
 35 49 8 67 8 122 c 2
 8 152 l 1
 -53 213 l 1
 7 273 l 1
 7 360 l 2
 7 415 46 429 101 429 c 2
 175 428 l 1
 175 454 l 2
 175 468 187 479 200 479 c 2
 240 479 l 2xf4
114 212 m 1
 175 273 l 1
 175 298 l 2
 175 314 162 323 147 323 c 2
 125 323 l 2
 109 323 97 311 97 295 c 2
 97 261 l 1xf4
 49 212 l 1
 74 187 l 1
 74 152 l 2
 74 136 87 124 103 124 c 2
 124 124 l 2
 140 124 152 133 152 149 c 2
 152 174 l 1xf8
 114 212 l 1
EndSplineSet
EndChar

StartChar: h
Encoding: 104 104 46
Width: 300
Flags: MW
HStem: 0 20 749 20G<33 73 73 80>
VStem: 97 78<273 295 261 298> 98 75<26 154 50 154 50 163>
LayerCount: 2
Back
Fore
SplineSet
266 360 m 2xd0
 266 341 l 1
 266 273 l 1
 206 213 l 1
 267 152 l 1
 267 79 l 2
 267 61 243 52 219 50 c 0
 214 49 179 49 173 50 c 1
 173 154 l 1xd0
 115 212 l 1
 175 273 l 1
 175 298 l 2
 175 314 163 323 147 323 c 2
 126 323 l 2
 110 323 97 311 97 295 c 2
 97 261 l 1xe0
 49 212 l 1
 98 163 l 1
 98 39 l 2
 98 13 86 0 69 0 c 0
 59 1 41 0 36 0 c 0
 15 0 8 13 8 39 c 2
 9 152 l 1
 -53 213 l 1
 8 273 l 1
 8 341 l 1
 8 742 l 2
 8 756 19 769 33 769 c 2
 73 769 l 2
 87 769 98 758 98 744 c 2
 98 428 l 1
 172 429 l 2
 227 429 266 415 266 360 c 2xd0
EndSplineSet
EndChar

StartChar: i
Encoding: 105 105 47
Width: 123
Flags: MW
HStem: 0 20
LayerCount: 2
Back
Fore
SplineSet
8 273 m 1
 7 352 l 1
 97 295 l 1
 97 261 l 1
 49 212 l 1
 98 163 l 1
 98 39 l 2
 98 13 86 0 69 0 c 0
 59 1 41 0 36 0 c 0
 15 0 8 13 8 39 c 2
 9 152 l 1
 -53 213 l 1
 8 273 l 1
117 416 m 0
 117 381 86 352 51 352 c 1
 51 416 l 1
 -10 416 l 1
 -10 451 18 479 53 479 c 0
 89 479 117 451 117 416 c 0
EndSplineSet
EndChar

StartChar: j
Encoding: 106 106 48
Width: 141
Flags: MW
HStem: -333 20
LayerCount: 2
Back
Fore
SplineSet
117 416 m 0
 117 381 86 352 51 352 c 1
 51 416 l 1
 -10 416 l 1
 -10 451 18 479 53 479 c 0
 89 479 117 451 117 416 c 0
-158 -169 m 0
 -160 -98 -86 -8 6 23 c 1
 6 23 9 39 9 45 c 2
 9 152 l 1
 -53 213 l 1
 8 273 l 1
 7 352 l 1
 97 295 l 1
 97 261 l 1
 49 212 l 1
 98 163 l 1
 98 39 l 2
 98 13 101 -10 84 -10 c 1
 84 -10 71 -10 55 -18 c 0
 -88 -87 -59 -260 47 -333 c 1
 -76 -317 -154 -260 -158 -169 c 0
EndSplineSet
EndChar

StartChar: k
Encoding: 107 107 49
Width: 300
Flags: MW
HStem: 0 20 749 20G<33 73 73 80>
VStem: 8 90<26 39 280 341 341 742 742 744> 170 96<352 536 536 538 273 547.5>
LayerCount: 2
Back
Fore
SplineSet
98 280 m 1
 170 352 l 1
 170 536 l 2
 170 559 178 568 203 568 c 2
 232 568 l 2
 258 568 266 561 266 538 c 2
 266 273 l 1
 206 213 l 1
 267 152 l 1
 267 33 l 2
 267 15 242 0 217 0 c 2
 217 0 176 0 170 0 c 1
 170 128 l 1
 98 200 l 1
 98 39 l 2
 98 13 86 0 69 0 c 0
 59 1 41 0 36 0 c 0
 15 0 8 13 8 39 c 2
 9 152 l 1
 -53 213 l 1
 8 273 l 1
 8 341 l 1
 8 742 l 2
 8 756 19 769 33 769 c 2
 73 769 l 2
 87 769 98 758 98 744 c 2
 98 280 l 1
EndSplineSet
EndChar

StartChar: l
Encoding: 108 108 50
Width: 120
Flags: MW
HStem: 0 20 749 20G<33 73 73 80>
LayerCount: 2
Back
Fore
SplineSet
98 744 m 0
 97 284 97 445 97 261 c 1
 49 212 l 1
 98 163 l 1
 98 39 l 2
 98 13 86 0 69 0 c 0
 59 1 41 0 36 0 c 0
 15 0 8 13 8 39 c 2
 9 152 l 1
 -53 213 l 1
 8 273 l 1
 8 273 8 273 8 742 c 0
 8 756 19 769 33 769 c 2
 73 769 l 2
 87 769 98 758 98 744 c 0
EndSplineSet
EndChar

StartChar: m
Encoding: 109 109 51
Width: 454
Flags: MW
HStem: -1 20
VStem: 98 72<26 39 39 128 0 200> 267 67<24 33 33 126 -1 152>
LayerCount: 2
Back
Fore
SplineSet
264 318 m 1
 264 318 334 247 431 151 c 1
 431 32 l 2
 431 14 406 -1 381 -1 c 2
 381 -1 339 -2 334 -1 c 1
 334 126 l 1
 252 211 l 1
 235 187 l 1
 267 152 l 1
 267 33 l 2
 267 15 242 0 217 0 c 2
 217 0 176 0 170 0 c 1
 170 128 l 1
 98 200 l 1
 98 39 l 2
 98 13 86 0 69 0 c 0
 59 1 41 0 36 0 c 0
 15 0 8 13 8 39 c 2
 9 152 l 1
 -53 213 l 1
 8 273 l 1
 7 347 l 1
 53 347 l 2
 85 347 94 335 97 303 c 2
 97 266 l 1
 212 266 l 1
 264 318 l 1
EndSplineSet
EndChar

StartChar: n
Encoding: 110 110 52
Width: 283
Flags: MW
HStem: 0 20
VStem: 98 72<26 39 39 128 0 200>
LayerCount: 2
Back
Fore
SplineSet
97 266 m 1
 154 266 l 1
 267 152 l 1
 267 33 l 2
 267 15 242 0 217 0 c 2
 217 0 176 0 170 0 c 1
 170 128 l 1
 98 200 l 1
 98 39 l 2
 98 13 86 0 69 0 c 0
 59 1 41 0 36 0 c 0
 15 0 8 13 8 39 c 2
 9 152 l 1
 -53 213 l 1
 8 273 l 1
 7 347 l 1
 53 347 l 2
 85 347 94 335 97 303 c 2
 97 266 l 1
EndSplineSet
EndChar

StartChar: o
Encoding: 111 111 53
Width: 282
Flags: MW
HStem: 124 199<118 125 125 126 126 132.5>
VStem: 75 78<149 152 152 174 149 187> 97 78<273 295 261 298>
LayerCount: 2
Back
Fore
SplineSet
267 119 m 2xc0
 267 73 235 48 198 48 c 2
 198 48 107 49 86 49 c 0
 35 49 9 67 9 122 c 2
 9 152 l 1
 -53 213 l 1
 8 273 l 1
 8 355 l 2
 8 410 46 427 102 427 c 2
 197 427 l 2
 236 427 266 400 266 367 c 2
 266 273 l 1
 206 213 l 1
 267 152 l 1
 267 119 l 2xc0
115 212 m 1
 175 273 l 1
 175 298 l 2
 175 314 163 323 147 323 c 2
 126 323 l 2
 110 323 97 311 97 295 c 2
 97 261 l 1xa0
 49 212 l 1
 75 187 l 1
 75 152 l 2
 75 136 87 124 103 124 c 2
 125 124 l 2
 140 124 153 133 153 149 c 2
 153 174 l 1
 115 212 l 1
EndSplineSet
EndChar

StartChar: p
Encoding: 112 112 54
Width: 299
Flags: MW
HStem: -337 130<19 78.5> -121 116<13 86 74 86 74 121> 48 76<103 124 124 132 103 190 74 124> 323 106<117 199.5 125 199.5>
VStem: -149 147<-192 -186 -186 -141 -192 -130.5> 7 90<273 295> 8 66<-5 48 144 152> 152 115<149 152 63 174 63 174> 175 90<273 298 298 306>
LayerCount: 2
Back
Fore
SplineSet
32 479 m 2xfc80
 73 479 l 2
 86 479 98 468 98 454 c 2
 97 428 l 1
 172 429 l 2
 227 429 265 415 265 360 c 2
 265 273 l 1
 205 213 l 1
 267 152 l 1xfc80
 267 79 l 2
 267 47 205 48 190 48 c 2
 74 48 l 1
 74 -5 l 1
 98 -5 162 -20 189 -37 c 1
 156 -58 134 -87 121 -121 c 1
 19 -121 l 2
 7 -121 -2 -130 -2 -141 c 2
 -2 -186 l 2
 -2 -198 7 -207 19 -207 c 2
 119 -207 l 1
 127 -243 149 -274 182 -297 c 1
 147 -322 104 -337 53 -337 c 0
 -59 -337 -149 -262 -149 -170 c 0
 -149 -91 -80 -25 8 -7 c 1
 8 152 l 1
 -53 213 l 1
 7 273 l 1xfb
 7 451 l 2
 7 465 19 479 32 479 c 2xfc80
152 174 m 1
 114 212 l 1
 175 273 l 1
 175 298 l 2
 175 314 162 323 147 323 c 2
 125 323 l 2
 109 323 97 311 97 295 c 2
 97 261 l 1
 49 212 l 1
 74 187 l 1xfb
 74 152 l 2
 74 136 87 124 103 124 c 2
 124 124 l 2
 140 124 152 133 152 149 c 2
 152 174 l 1
EndSplineSet
EndChar

StartChar: q
Encoding: 113 113 55
Width: 299
Flags: MW
HStem: -208 87<19 120> -2 51<60.5 65> 124 199<117 124 124 125 125 132>
VStem: 74 78<149 152 152 174 149 187> 97 78<273 295 261 298>
LayerCount: 2
Back
Fore
SplineSet
19 -208 m 2xf0
 122 -208 l 1
 122 -245 176 -324 267 -324 c 1
 267 -380 l 1
 216 -380 151 -362 122 -320 c 1
 100 -327 78 -337 53 -337 c 0
 -59 -337 -149 -262 -149 -170 c 0
 -149 -77 -59 -2 53 -2 c 0
 77 -2 92 -5 113 -11 c 1
 133 16 183 43 221 48 c 1
 221 48 106 49 86 49 c 0
 35 49 8 67 8 122 c 2
 8 152 l 1
 -53 213 l 1
 7 273 l 1
 7 355 l 2
 7 410 46 427 101 427 c 2
 197 427 l 2
 236 427 265 400 265 367 c 2
 265 273 l 1
 205 213 l 1
 267 152 l 1
 267 0 l 1
 239 -5 211 -12 184 -34 c 0
 154 -58 133 -87 120 -121 c 1
 19 -121 l 2
 7 -121 -2 -130 -2 -141 c 2
 -2 -186 l 2
 -2 -198 7 -207 19 -208 c 2xf0
114 212 m 1
 175 273 l 1
 175 298 l 2
 175 314 162 323 147 323 c 2
 125 323 l 2
 109 323 97 311 97 295 c 2
 97 261 l 1xe8
 49 212 l 1
 74 187 l 1
 74 152 l 2
 74 136 87 124 103 124 c 2
 124 124 l 2
 140 124 152 133 152 149 c 2
 152 174 l 1
 114 212 l 1
EndSplineSet
EndChar

StartChar: r
Encoding: 114 114 56
Width: 293
Flags: MW
HStem: 1 20
VStem: 97 78<273 295 261 298>
LayerCount: 2
Back
Fore
SplineSet
267 277 m 1
 203 214 l 1
 115 212 l 1
 175 273 l 1
 175 298 l 2
 175 314 163 323 147 323 c 2
 126 323 l 2
 110 323 97 311 97 295 c 2
 97 261 l 1
 49 212 l 1
 91 171 l 1
 91 41 l 2
 91 6 74 1 45 1 c 2
 7 1 l 1
 9 152 l 1
 -53 213 l 1
 8 273 l 1
 9 454 l 2
 9 467 20 481 34 481 c 2
 74 481 l 2
 88 481 99 469 99 456 c 2
 99 430 l 1
 173 430 l 2
 228 430 267 416 267 361 c 2
 267 277 l 1
EndSplineSet
EndChar

StartChar: s
Encoding: 115 115 57
Width: 279
Flags: MW
HStem: 124 88<122 122 122 132 122 140> 152 60<82 122> 260 63<125 133 133 154 125 166 125 166>
VStem: 82 78<149 152> 103 80<260 299.5> 105 78<295 299.5 292 303>
LayerCount: 2
Back
Fore
SplineSet
13 96 m 2x68
 13 154 l 1
 82 152 l 1x70
 82 136 95 124 110 124 c 2
 132 124 l 2
 148 124 160 133 160 149 c 2
 160 174 l 1xb0
 122 212 l 1
 -45 213 l 1
 15 273 l 1
 15 360 l 2
 15 415 54 429 109 429 c 2
 273 430 l 1
 273 292 l 1
 183 292 l 1
 183 307 170 323 154 323 c 2
 133 323 l 2
 117 323 105 311 105 295 c 2xa4
 103 260 l 1
 166 260 l 1
 275 152 l 1
 273 99 l 2
 273 53 262 50 221 50 c 2
 221 50 94 50 74 50 c 0
 34 50 13 64 13 96 c 2x68
EndSplineSet
EndChar

StartChar: t
Encoding: 116 116 58
Width: 307
Flags: MW
HStem: 1 20 104 171<118 244 224 277>
VStem: 60 54<261 295 261 261> 118 77<97 104>
LayerCount: 2
Back
Fore
SplineSet
167 76 m 2
 183 76 195 89 195 105 c 1
 277 104 l 1
 277 31 l 2
 277 -3 208 2 199 1 c 0
 179 1 116 1 96 1 c 0
 45 1 18 19 18 74 c 1
 134 194 l 1
 114 217 l 1
 114 324 l 1
 88 324 l 2
 73 324 60 311 60 295 c 2
 60 261 l 1
 12 213 l 1
 -45 213 l 1
 15 273 l 1
 15 360 l 2
 15 415 54 429 109 429 c 2
 273 430 l 1
 273 318 l 2
 273 289 264 275 224 275 c 1
 175 324 l 1
 175 162 l 1
 118 104 l 1
 118 88 130 76 146 76 c 2
 167 76 l 2
EndSplineSet
EndChar

StartChar: u
Encoding: 117 117 59
Width: 309
Flags: MW
HStem: 1 74
VStem: 22 90<261 360> 23 67<102.5 110 102.5 152 102.5 152> 188 92<44 154 273 448 448 448>
LayerCount: 2
Back
Fore
SplineSet
188 273 m 1xb0
 188 448 l 2
 190 468 200 479 219 479 c 2
 255 479 l 2
 269 479 280 466 280 452 c 2
 280 273 l 1
 220 213 l 1
 282 152 l 1
 280 44 l 2
 279 10 245 1 205 1 c 0
 185 1 122 0 102 0 c 0
 51 0 23 18 23 73 c 2
 23 152 l 1
 -38 213 l 1
 22 273 l 1xb0
 22 360 l 2
 22 415 55 431 110 430 c 1
 112 261 l 1
 64 212 l 1
 89 187 l 1
 90 110 l 2xd0
 90 95 103 75 118 75 c 2
 162 76 l 2
 177 76 188 92 188 108 c 2
 188 154 l 1
 129 212 l 1
 188 273 l 1xb0
EndSplineSet
EndChar

StartChar: v
Encoding: 118 118 60
Width: 302
Flags: MW
VStem: 22 90<261 360> 188 92<273 448 448 448>
LayerCount: 2
Back
Fore
SplineSet
179 1 m 1
 69 1 l 1
 69 105 l 1
 69 105 50 125 -38 213 c 1
 22 273 l 1
 22 360 l 2
 22 415 55 431 110 430 c 1
 112 261 l 1
 64 212 l 1
 89 187 l 1
 162 116 l 1
 193 148 l 1
 129 212 l 1
 188 273 l 1
 188 448 l 2
 190 468 200 479 219 479 c 2
 255 479 l 2
 269 479 280 466 280 452 c 2
 280 273 l 1
 220 213 l 1
 282 152 l 1
 280 102 l 1
 179 1 l 1
EndSplineSet
EndChar

StartChar: w
Encoding: 119 119 61
Width: 450
Flags: MW
HStem: -1 276<281 281 281 333 224 281>
VStem: 15 90<261 360> 342 93<272 446 446 446>
LayerCount: 2
Back
Fore
SplineSet
281 275 m 1
 218 211 l 1
 256 174 l 1
 316 114 l 1
 348 146 l 1
 283 211 l 1
 342 272 l 1
 342 446 l 2
 345 466 355 477 374 478 c 2
 410 478 l 2
 424 478 435 465 435 451 c 2
 435 271 l 1
 375 211 l 1
 436 150 l 1
 434 100 l 1
 333 -1 l 1
 224 -1 l 1
 224 53 l 1
 172 1 l 1
 62 1 l 1
 62 105 l 1
 62 105 43 125 -45 213 c 1
 15 273 l 1
 15 360 l 2
 15 415 47 431 103 430 c 1
 105 261 l 1
 57 212 l 1
 82 187 l 1
 155 116 l 1
 186 148 l 1
 122 212 l 1
 181 273 l 1
 281 275 l 1
EndSplineSet
EndChar

StartChar: x
Encoding: 120 120 62
Width: 286
Flags: MW
HStem: 1 20
LayerCount: 2
Back
Fore
SplineSet
275 4 m 1
 207 4 l 1
 135 77 l 1
 97 38 l 1
 97 1 l 1
 30 1 l 1
 30 44 l 1
 98 112 l 1
 65 145 l 1
 22 145 l 1
 -45 213 l 1
 15 273 l 1
 68 275 l 1
 68 208 l 1
 100 176 l 1
 100 190 l 1
 183 273 l 1
 183 305 l 1
 183 331 l 2
 183 345 194 356 208 356 c 2
 248 356 l 2
 262 356 273 343 273 329 c 2
 273 273 l 1
 227 231 186 188 186 188 c 1
 186 128 l 1
 169 110 l 1
 275 4 l 1
EndSplineSet
EndChar

StartChar: y
Encoding: 121 121 63
Width: 292
Flags: MW
HStem: -336 129<22 28 22 87> -120 118<22 28 28 74 6 127> 145 247<66 67 24 119>
VStem: -140 147<-191.5 -186 -186 -141 -191.5 -123> 17 102<273 392> 98 86<-6 114 114 114 179 188 -42 194 -42 194> 184 91<-42 329 273 329 273 338>
LayerCount: 2
Back
Fore
SplineSet
98 179 m 1xfa
 98 194 l 1
 184 273 l 1
 185 305 l 1
 184 331 l 2
 184 345 196 356 209 356 c 2
 250 356 l 2
 263 356 275 343 275 329 c 2xf4
 275 273 l 1
 229 231 184 188 184 188 c 1
 184 -42 l 1
 151 -64 140 -87 127 -120 c 1
 28 -120 l 2
 16 -120 7 -129 7 -141 c 2
 7 -186 l 2
 7 -197 16 -207 28 -207 c 2
 124 -206 l 1
 134 -243 158 -273 191 -296 c 1
 156 -322 112 -336 62 -336 c 0
 -50 -336 -140 -261 -140 -169 c 0
 -140 -77 -50 -2 62 -2 c 0
 86 -2 77 1 98 -6 c 1xfa
 98 114 l 1
 67 145 l 1
 24 145 l 1
 -43 213 l 1
 17 273 l 1xf4
 16 343 l 2
 16 375 33 392 66 392 c 2
 119 392 l 1
 119 289 l 1
 53 224 l 1
 98 179 l 1xfa
EndSplineSet
EndChar

StartChar: z
Encoding: 122 122 64
Width: 300
Flags: MW
HStem: 1 127<49.5 225 133 225 133 280> 323 105<132 190 140 190>
VStem: 22 90<273 295 261 360 261 387.5> 190 90<273 298 298 306 428 452>
LayerCount: 2
Back
Fore
SplineSet
280 76 m 2
 280 1 l 1
 280 1 92 1 67 1 c 0
 32 1 20 9 20 44 c 2
 20 107 l 1
 190 273 l 1
 190 298 l 2
 190 314 177 323 162 323 c 2
 140 323 l 2
 124 323 112 311 112 295 c 2
 112 261 l 1
 61 214 l 1
 -38 213 l 1
 22 273 l 1
 22 360 l 2
 22 415 61 429 116 429 c 2
 190 428 l 1
 190 454 l 2
 190 468 202 479 215 479 c 2
 255 479 l 2
 269 479 280 466 280 452 c 2
 280 273 l 1
 192 184 241 233 133 128 c 1
 153 128 205 128 225 128 c 0
 254 133 280 102 280 76 c 2
EndSplineSet
EndChar

StartChar: Adieresis
Encoding: 196 196 65
Width: 305
Flags: MW
HStem: -9 20<208.5 258 218 258> 39 19<102 193> 114 20<108.5 141 119 141> 313 20G<136.5 163 142 163> 418 21G<118 192> 469 20G<213 257 217 257>
VStem: 15 20<122 148 148 148> 81 20<152 183 183 183> 103 20<265 295> 159 20<149 169 169 169> 182 20<439 454 429 464> 273 20<26 148 148 148>
LayerCount: 2
Back
Fore
SplineSet
15 122 m 2
 15 148 l 1
 -44 206 l 1
 -44 220 l 1
 14 278 l 1
 14 360 l 2
 14 425 62 439 118 439 c 2
 182 439 l 1
 182 454 l 2
 182 474 198 489 217 489 c 2
 257 489 l 2
 277 489 292 471 292 452 c 2
 292 423 l 1
 292 273 l 1
 289 266 l 1
 236 213 l 1
 290 159 l 1
 293 152 l 1
 293 26 l 2
 293 6 277 -9 258 -9 c 2
 218 -9 l 2
 199 -9 183 7 183 26 c 2
 183 39 l 1
 102 39 l 2
 47 39 15 60 15 122 c 2
35 152 m 1
 35 122 l 2
 35 73 55 59 102 59 c 2
 193 58 l 1
 203 48 l 1
 203 26 l 2
 203 18 210 11 218 11 c 2
 258 11 l 2
 267 11 273 18 273 26 c 2
 273 148 l 1
 215 206 l 1
 215 220 l 1
 272 277 l 1
 272 423 l 1
 272 452 l 2
 272 462 264 469 257 469 c 2
 217 469 l 2
 209 469 202 463 202 454 c 2
 202 429 l 1
 192 418 l 1
 118 419 l 2
 63 419 34 406 34 360 c 2
 34 273 l 1
 31 266 l 1
 -22 213 l 1
 32 159 l 1
 35 152 l 1
123 219 m 1
 181 278 l 1
 181 298 l 2
 181 307 175 313 163 313 c 2
 142 313 l 2
 131 313 123 305 123 295 c 2
 123 261 l 1
 121 254 l 1
 80 212 l 1
 98 194 l 1
 101 187 l 1
 101 152 l 2
 101 142 109 134 119 134 c 2
 141 134 l 2
 152 134 159 140 159 149 c 2
 159 169 l 1
 123 205 l 1
 123 219 l 1
201 273 m 1
 198 266 l 1
 145 212 l 1
 176 181 l 1
 179 174 l 1
 179 149 l 2
 179 126 160 114 141 114 c 2
 119 114 l 2
 98 114 81 131 81 152 c 2
 81 183 l 1
 58 205 l 1
 58 219 l 1
 103 265 l 1
 103 295 l 2
 103 316 120 333 142 333 c 2
 163 333 l 2
 182 333 201 321 201 298 c 2
 201 273 l 1
EndSplineSet
EndChar

StartChar: Aring
Encoding: 197 197 66
Width: 305
Flags: MW
HStem: -9 20<208.5 258 218 258> 39 19<102 193> 114 20<108.5 141 119 141> 313 20G<136.5 163 142 163> 418 21G<118 192> 469 20G<213 257 217 257>
VStem: 15 20<122 148 148 148> 81 20<152 183 183 183> 103 20<265 295> 159 20<149 169 169 169> 182 20<439 454 429 464> 273 20<26 148 148 148>
LayerCount: 2
Back
Fore
SplineSet
15 122 m 2
 15 148 l 1
 -44 206 l 1
 -44 220 l 1
 14 278 l 1
 14 360 l 2
 14 425 62 439 118 439 c 2
 182 439 l 1
 182 454 l 2
 182 474 198 489 217 489 c 2
 257 489 l 2
 277 489 292 471 292 452 c 2
 292 423 l 1
 292 273 l 1
 289 266 l 1
 236 213 l 1
 290 159 l 1
 293 152 l 1
 293 26 l 2
 293 6 277 -9 258 -9 c 2
 218 -9 l 2
 199 -9 183 7 183 26 c 2
 183 39 l 1
 102 39 l 2
 47 39 15 60 15 122 c 2
35 152 m 1
 35 122 l 2
 35 73 55 59 102 59 c 2
 193 58 l 1
 203 48 l 1
 203 26 l 2
 203 18 210 11 218 11 c 2
 258 11 l 2
 267 11 273 18 273 26 c 2
 273 148 l 1
 215 206 l 1
 215 220 l 1
 272 277 l 1
 272 423 l 1
 272 452 l 2
 272 462 264 469 257 469 c 2
 217 469 l 2
 209 469 202 463 202 454 c 2
 202 429 l 1
 192 418 l 1
 118 419 l 2
 63 419 34 406 34 360 c 2
 34 273 l 1
 31 266 l 1
 -22 213 l 1
 32 159 l 1
 35 152 l 1
123 219 m 1
 181 278 l 1
 181 298 l 2
 181 307 175 313 163 313 c 2
 142 313 l 2
 131 313 123 305 123 295 c 2
 123 261 l 1
 121 254 l 1
 80 212 l 1
 98 194 l 1
 101 187 l 1
 101 152 l 2
 101 142 109 134 119 134 c 2
 141 134 l 2
 152 134 159 140 159 149 c 2
 159 169 l 1
 123 205 l 1
 123 219 l 1
201 273 m 1
 198 266 l 1
 145 212 l 1
 176 181 l 1
 179 174 l 1
 179 149 l 2
 179 126 160 114 141 114 c 2
 119 114 l 2
 98 114 81 131 81 152 c 2
 81 183 l 1
 58 205 l 1
 58 219 l 1
 103 265 l 1
 103 295 l 2
 103 316 120 333 142 333 c 2
 163 333 l 2
 182 333 201 321 201 298 c 2
 201 273 l 1
EndSplineSet
EndChar

StartChar: Eacute
Encoding: 201 201 67
Width: 308
Flags: MW
HStem: 38 20<250 252 250 261> 114 20G<109.5 172 120 172 172 247> 203 20G<101 218 91 222 101 101> 203 67<124 171 124 222 101 171> 203 130<142 163 163 172.5 142 222 101 163> 419 20G<90 224 117 224>
VStem: 15 20<122 148 148 148> 81 20<152 203> 104 20<260 270> 181 20<278 298 273 302.5> 271 20<70 95 277 378>
LayerCount: 2
Back
Fore
SplineSet
250 38 m 2xe7e0
 102 39 l 2
 47 39 15 60 15 122 c 2
 15 148 l 1
 -44 206 l 1
 -44 220 l 1
 14 278 l 1
 14 360 l 2
 14 424 61 439 117 439 c 2
 224 439 l 2
 262 439 291 423 291 378 c 2
 291 273 l 1
 288 265 l 1
 229 206 l 1
 222 203 l 1
 101 203 l 1
 101 152 l 2
 101 142 109 134 120 134 c 2
 172 134 l 1
 172 134 241 134 247 134 c 0
 264 134 291 131 291 95 c 2
 291 70 l 2
 291 40 272 38 250 38 c 2xe7e0
270 62 m 0
 271 63 271 66 271 70 c 2
 271 95 l 2
 271 111 263 114 247 114 c 0
 241 114 172 114 172 114 c 1
 120 114 l 2
 99 114 81 131 81 152 c 2
 81 213 l 1
 91 223 l 1
 218 223 l 1
 271 277 l 1
 271 378 l 2
 271 408 256 419 224 419 c 2
 117 419 l 2
 63 419 34 406 34 360 c 2
 34 273 l 1
 31 266 l 1
 -22 213 l 1
 32 159 l 1
 35 152 l 1
 35 122 l 2
 35 73 55 59 102 59 c 2
 250 58 l 2
 254 58 269 58 270 62 c 0
181 278 m 1
 181 298 l 2
 181 307 175 313 163 313 c 2
 142 313 l 2
 131 313 123 305 123 295 c 2
 124 270 l 1xd7e0
 171 270 l 1
 181 278 l 1
201 298 m 2
 201 273 l 1
 197 266 l 1
 181 252 l 1
 175 250 l 1
 114 250 l 1
 104 260 l 1
 103 295 l 2
 103 316 120 333 142 333 c 2xcfe0
 163 333 l 2
 182 333 201 321 201 298 c 2
EndSplineSet
EndChar

StartChar: Ntilde
Encoding: 209 209 68
Width: 299
Flags: MW
HStem: -10 20<85 90 52 97.5 196 233> 256 20G<123 165 113 170> 337 20G<33 69 33 33>
VStem: 14 20<27 39 27 40> 103 20<276 303 303 303> 176 20<10 123 123 123> 273 20<34 148 148 148>
LayerCount: 2
Back
Fore
SplineSet
103 266 m 1
 103 303 l 2
 100 330 95 337 69 337 c 2
 33 337 l 1
 34 274 l 1
 31 266 l 1
 -22 213 l 1
 32 159 l 1
 35 152 l 1
 34 39 l 2
 34 15 40 11 52 10 c 0
 57 10 75 11 85 10 c 0
 95 10 104 17 104 40 c 2
 104 200 l 1
 121 207 l 1
 193 135 l 1
 196 128 l 1
 196 10 l 1
 210 10 233 10 233 10 c 2
 257 10 273 24 273 34 c 2
 273 148 l 1
 165 256 l 1
 113 256 l 1
 103 266 l 1
123 304 m 1
 123 276 l 1
 170 276 l 1
 177 273 l 1
 291 159 l 1
 293 152 l 1
 293 33 l 2
 293 6 259 -10 233 -10 c 2
 233 -10 191 -10 186 -10 c 2
 176 0 l 1
 176 123 l 1
 124 176 l 1
 124 39 l 2
 124 10 110 -10 85 -10 c 0
 75 -9 57 -10 52 -9 c 0
 22 -9 14 11 14 40 c 2
 15 148 l 1
 -44 206 l 1
 -44 220 l 1
 14 278 l 1
 13 347 l 1
 23 357 l 1
 69 357 l 2
 108 357 119 339 123 304 c 1
EndSplineSet
EndChar

StartChar: Odieresis
Encoding: 214 214 69
Width: 306
Flags: MW
HStem: 38 20<218 234 218 239> 114 20<112.5 145 123 145> 313 20G<140.5 167 146 167> 417 20G<95 217 122 217>
VStem: 19 20<122 148 148 148> 85 20<152 183 183 183> 107 20<265 295> 163 20<149 169 169 169> 185 20<278 298 273 302.5> 276 20<277 367 273 380>
LayerCount: 2
Back
Fore
SplineSet
277 120 m 2
 277 148 l 1
 219 206 l 1
 219 220 l 1
 276 277 l 1
 276 367 l 2
 276 393 252 417 217 417 c 2
 122 417 l 2
 68 417 38 401 38 355 c 2
 38 274 l 1
 35 266 l 1
 -18 213 l 1
 36 159 l 1
 39 152 l 1
 39 122 l 2
 39 73 59 59 106 59 c 2
 218 58 l 2
 250 58 277 79 277 120 c 2
294 159 m 1
 297 152 l 1
 297 119 l 2
 297 67 260 38 218 38 c 2
 106 39 l 2
 51 39 19 60 19 122 c 2
 19 148 l 1
 -40 206 l 1
 -40 220 l 1
 18 278 l 1
 18 355 l 2
 18 419 65 437 122 437 c 2
 217 437 l 2
 261 437 296 407 296 367 c 2
 296 273 l 1
 293 266 l 1
 240 213 l 1
 294 159 l 1
149 212 m 1
 180 181 l 1
 183 174 l 1
 183 149 l 2
 183 126 164 114 145 114 c 2
 123 114 l 2
 102 114 85 131 85 152 c 2
 85 183 l 1
 62 205 l 1
 62 219 l 1
 107 265 l 1
 107 295 l 2
 107 316 124 333 146 333 c 2
 167 333 l 2
 186 333 205 321 205 298 c 2
 205 273 l 1
 202 266 l 1
 149 212 l 1
163 149 m 2
 163 169 l 1
 127 205 l 1
 127 219 l 1
 185 278 l 1
 185 298 l 2
 185 307 179 313 167 313 c 2
 146 313 l 2
 135 313 127 305 127 295 c 2
 127 261 l 1
 125 254 l 1
 84 212 l 1
 102 194 l 1
 105 187 l 1
 105 152 l 2
 105 142 113 134 123 134 c 2
 145 134 l 2
 156 134 163 140 163 149 c 2
98 528 m 2
 118 528 l 2
 131 528 143 517 143 503 c 2
 143 484 l 2
 143 470 131 459 118 459 c 2
 98 459 l 2
 85 459 73 470 73 484 c 2
 73 503 l 2
 73 517 85 528 98 528 c 2
185 528 m 2
 204 528 l 2
 218 528 229 517 229 503 c 2
 229 484 l 2
 229 470 218 459 204 459 c 2
 185 459 l 2
 171 459 160 470 160 484 c 2
 160 503 l 2
 160 517 171 528 185 528 c 2
EndSplineSet
EndChar

StartChar: Udieresis
Encoding: 220 220 70
Width: 305
Flags: MW
HStem: -9 19 66 20<162 165.5 162 173.5> 420 20G<100 110> 469 20G<213 255 219 255>
VStem: 13 20<73 148 148 148> 80 20<104.5 110> 102 20 178 20<108 149 149 149 277 447> 178 112<277 448 448 449 449 449> 270 23
LayerCount: 2
Back
Fore
SplineSet
219 489 m 2xfe80
 255 489 l 2
 276 490 290 471 290 452 c 2
 290 273 l 1
 287 266 l 1
 235 213 l 1
 289 159 l 1
 292 152 l 1
 290 64 315 -9 205 -9 c 0
 185 -9 122 -10 102 -10 c 0
 46 -10 13 11 13 73 c 2
 13 148 l 1
 -45 206 l 1
 -45 220 l 1
 12 278 l 1
 12 360 l 2
 12 424 52 441 110 440 c 1
 120 430 l 1
 122 261 l 1
 119 254 l 1
 78 212 l 1
 96 194 l 1
 99 187 l 1
 100 111 l 2
 100 98 111 85 118 85 c 2
 162 86 l 2
 169 86 178 95 178 108 c 2
 178 149 l 1
 122 205 l 1
 122 219 l 1
 178 277 l 1
 178 448 l 1
 178 449 l 2
 179 473 194 489 219 489 c 2xfe80
255 469 m 2
 219 469 l 2
 207 469 200 463 198 447 c 2xff40
 198 273 l 1
 195 267 l 1
 143 212 l 1
 195 161 l 1
 198 154 l 1
 198 108 l 2
 198 89 185 66 162 66 c 2
 118 65 l 2
 95 65 80 92 80 110 c 2
 79 183 l 1
 57 205 l 1
 57 219 l 1
 102 265 l 1
 100 420 l 1
 54 419 32 404 32 360 c 2
 32 273 l 1
 29 266 l 1
 -24 213 l 1
 30 159 l 1
 33 152 l 1
 33 73 l 2
 33 25 55 10 102 10 c 0
 122 10 185 11 205 11 c 0
 247 11 269 20 270 44 c 2
 272 148 l 1
 213 206 l 1
 213 220 l 1
 270 277 l 1
 270 452 l 2
 270 462 263 469 255 469 c 2
EndSplineSet
EndChar

StartChar: aacute
Encoding: 225 225 71
Width: 285
Flags: MW
HStem: 49 75<60.5 125> 323 105<118 176 126 176>
VStem: 8 89<273 295 261 360 261 387.5> 9 66<144 152 144 152 144 152> 153 114<149 152> 176 90<428 452 273 454 273 461>
LayerCount: 2
Back
Fore
SplineSet
86 49 m 0xd4
 35 49 9 67 9 122 c 2
 9 152 l 1
 -53 213 l 1
 8 273 l 1xe8
 8 360 l 2
 8 415 47 429 102 429 c 2
 176 428 l 1
 176 454 l 2
 176 468 187 479 201 479 c 2
 241 479 l 2
 255 479 266 466 266 452 c 2
 266 423 l 1
 266 273 l 1
 206 213 l 1
 267 152 l 1xe4
 267 26 l 2
 267 12 256 1 242 1 c 2
 202 1 l 2
 188 1 177 12 177 26 c 2
 177 48 l 1
 177 48 107 49 86 49 c 0xd4
153 174 m 1
 115 212 l 1
 175 273 l 1
 175 298 l 2
 175 314 163 323 147 323 c 2
 126 323 l 2
 110 323 97 311 97 295 c 2
 97 261 l 1
 49 212 l 1
 75 187 l 1xd8
 75 152 l 2
 75 136 87 124 103 124 c 2
 125 124 l 2
 140 124 153 133 153 149 c 2
 153 174 l 1
86 515 m 2
 170 531 l 1
 165 556 l 2
 162 572 187 577 190 561 c 2
 199 511 l 1
 91 490 l 2
 75 487 70 512 86 515 c 2
EndSplineSet
EndChar

StartChar: agrave
Encoding: 224 224 72
Width: 285
Flags: MW
HStem: 49 75<95 96.5> 323 105<126 176 147 176>
VStem: 8 89<273 295 295 303 261 360 273 273> 9 66<94.5 187 122 187> 153 114<141 149 149 152 26 174> 176 90<428 452 452 454 428 428>
LayerCount: 2
Back
Fore
SplineSet
86 49 m 0xd4
 107 49 177 48 177 48 c 1
 177 26 l 2
 177 12 188 1 202 1 c 2
 242 1 l 2
 256 1 267 12 267 26 c 2
 267 152 l 1xe8
 206 213 l 1
 266 273 l 1
 266 423 l 1
 266 452 l 2
 266 466 255 479 241 479 c 2
 201 479 l 2
 187 479 176 468 176 454 c 2
 176 428 l 1
 102 429 l 2
 47 429 8 415 8 360 c 2
 8 273 l 1xe4
 -53 213 l 1
 9 152 l 1
 9 122 l 2
 9 67 35 49 86 49 c 0xd4
115 212 m 1
 153 174 l 1
 153 149 l 2
 153 133 140 124 125 124 c 2
 103 124 l 2
 87 124 75 136 75 152 c 2
 75 187 l 1xd8
 49 212 l 1
 97 261 l 1
 97 295 l 2
 97 311 110 323 126 323 c 2
 147 323 l 2
 163 323 175 314 175 298 c 2
 175 273 l 1
 115 212 l 1
181 521 m 2
 198 518 193 493 177 496 c 2
 68 517 l 1
 78 567 l 2
 81 583 105 578 102 562 c 2
 97 537 l 1
 181 521 l 2
EndSplineSet
EndChar

StartChar: acircumflex
Encoding: 226 226 73
Width: 285
Flags: MW
HStem: 49 75<60.5 125> 323 105<118 176 126 176>
VStem: 8 89<273 295 261 360 261 387.5> 9 66<144 152 144 152 144 152> 153 114<149 152> 176 90<428 452 273 454 273 461>
LayerCount: 2
Back
Fore
SplineSet
86 49 m 0xd4
 35 49 9 67 9 122 c 2
 9 152 l 1
 -53 213 l 1
 8 273 l 1xe8
 8 360 l 2
 8 415 47 429 102 429 c 2
 176 428 l 1
 176 454 l 2
 176 468 187 479 201 479 c 2
 241 479 l 2
 255 479 266 466 266 452 c 2
 266 423 l 1
 266 273 l 1
 206 213 l 1
 267 152 l 1xe4
 267 26 l 2
 267 12 256 1 242 1 c 2
 202 1 l 2
 188 1 177 12 177 26 c 2
 177 48 l 1
 177 48 107 49 86 49 c 0xd4
153 174 m 1
 115 212 l 1
 175 273 l 1
 175 298 l 2
 175 314 163 323 147 323 c 2
 126 323 l 2
 110 323 97 311 97 295 c 2
 97 261 l 1
 49 212 l 1
 75 187 l 1xd8
 75 152 l 2
 75 136 87 124 103 124 c 2
 125 124 l 2
 140 124 153 133 153 149 c 2
 153 174 l 1
34 500 m 2
 48 487 l 1
 95 534 l 1
 158 470 l 2
 170 459 152 441 140 453 c 2
 95 499 l 1
 49 453 l 1
 17 481 l 2
 5 492 21 511 34 500 c 2
EndSplineSet
EndChar

StartChar: adieresis
Encoding: 228 228 74
Width: 285
Flags: MW
HStem: 49 75<60.5 125> 323 105<118 176 126 176>
VStem: 8 89<273 295 261 360 261 387.5> 9 66<144 152 144 152 144 152> 153 114<149 152> 176 90<428 452 273 454 273 461>
LayerCount: 2
Back
Fore
SplineSet
86 49 m 0xd4
 35 49 9 67 9 122 c 2
 9 152 l 1
 -53 213 l 1
 8 273 l 1xe8
 8 360 l 2
 8 415 47 429 102 429 c 2
 176 428 l 1
 176 454 l 2
 176 468 187 479 201 479 c 2
 241 479 l 2
 255 479 266 466 266 452 c 2
 266 423 l 1
 266 273 l 1
 206 213 l 1
 267 152 l 1xe4
 267 26 l 2
 267 12 256 1 242 1 c 2
 202 1 l 2
 188 1 177 12 177 26 c 2
 177 48 l 1
 177 48 107 49 86 49 c 0xd4
153 174 m 1
 115 212 l 1
 175 273 l 1
 175 298 l 2
 175 314 163 323 147 323 c 2
 126 323 l 2
 110 323 97 311 97 295 c 2
 97 261 l 1
 49 212 l 1
 75 187 l 1xd8
 75 152 l 2
 75 136 87 124 103 124 c 2
 125 124 l 2
 140 124 153 133 153 149 c 2
 153 174 l 1
86 568 m 2
 106 568 l 2
 119 568 131 557 131 543 c 2
 131 524 l 2
 131 510 119 499 106 499 c 2
 86 499 l 2
 73 499 61 510 61 524 c 2
 61 543 l 2
 61 557 73 568 86 568 c 2
173 568 m 2
 192 568 l 2
 206 568 217 557 217 543 c 2
 217 524 l 2
 217 510 206 499 192 499 c 2
 173 499 l 2
 159 499 148 510 148 524 c 2
 148 543 l 2
 148 557 159 568 173 568 c 2
EndSplineSet
EndChar

StartChar: atilde
Encoding: 227 227 75
Width: 285
Flags: MW
HStem: 49 75<60.5 125> 323 105<118 176 126 176>
VStem: 8 89<273 295 261 360 261 387.5> 9 66<144 152 144 152 144 152> 153 114<149 152> 176 90<428 452 273 454 273 461>
LayerCount: 2
Back
Fore
SplineSet
86 49 m 0xd4
 35 49 9 67 9 122 c 2
 9 152 l 1
 -53 213 l 1
 8 273 l 1xe8
 8 360 l 2
 8 415 47 429 102 429 c 2
 176 428 l 1
 176 454 l 2
 176 468 187 479 201 479 c 2
 241 479 l 2
 255 479 266 466 266 452 c 2
 266 423 l 1
 266 273 l 1
 206 213 l 1
 267 152 l 1xe4
 267 26 l 2
 267 12 256 1 242 1 c 2
 202 1 l 2
 188 1 177 12 177 26 c 2
 177 48 l 1
 177 48 107 49 86 49 c 0xd4
153 174 m 1
 115 212 l 1
 175 273 l 1
 175 298 l 2
 175 314 163 323 147 323 c 2
 126 323 l 2
 110 323 97 311 97 295 c 2
 97 261 l 1
 49 212 l 1
 75 187 l 1xd8
 75 152 l 2
 75 136 87 124 103 124 c 2
 125 124 l 2
 140 124 153 133 153 149 c 2
 153 174 l 1
EndSplineSet
EndChar

StartChar: aring
Encoding: 229 229 76
Width: 285
Flags: MW
HStem: 49 75<60.5 125> 323 105<118 176 126 176>
VStem: 8 89<273 295 261 360 261 387.5> 9 66<144 152 144 152 144 152> 153 114<149 152> 176 90<428 452 273 454 273 461>
LayerCount: 2
Back
Fore
SplineSet
86 49 m 0xd4
 35 49 9 67 9 122 c 2
 9 152 l 1
 -53 213 l 1
 8 273 l 1xe8
 8 360 l 2
 8 415 47 429 102 429 c 2
 176 428 l 1
 176 454 l 2
 176 468 187 479 201 479 c 2
 241 479 l 2
 255 479 266 466 266 452 c 2
 266 423 l 1
 266 273 l 1
 206 213 l 1
 267 152 l 1xe4
 267 26 l 2
 267 12 256 1 242 1 c 2
 202 1 l 2
 188 1 177 12 177 26 c 2
 177 48 l 1
 177 48 107 49 86 49 c 0xd4
153 174 m 1
 115 212 l 1
 175 273 l 1
 175 298 l 2
 175 314 163 323 147 323 c 2
 126 323 l 2
 110 323 97 311 97 295 c 2
 97 261 l 1
 49 212 l 1
 75 187 l 1xd8
 75 152 l 2
 75 136 87 124 103 124 c 2
 125 124 l 2
 140 124 153 133 153 149 c 2
 153 174 l 1
EndSplineSet
EndChar

StartChar: eacute
Encoding: 233 233 77
Width: 292
Flags: MW
HStem: 48 76<234 239> 213 47<75 159 98 159 98 206> 323 106<118 126 126 147>
VStem: 8 89<295 303 295 360 295 387.5> 9 66<144 152 144 152 144 152> 175 90<273 298 298 306>
LayerCount: 2
Back
Fore
SplineSet
265 95 m 2xec
 265 70 l 2
 265 50 256 48 234 48 c 2
 234 48 107 49 86 49 c 0
 35 49 9 67 9 122 c 2
 9 152 l 1
 -53 213 l 1
 8 273 l 1xec
 8 360 l 2
 8 415 46 429 101 429 c 2
 208 429 l 2
 243 429 265 416 265 378 c 2
 265 272 l 1
 206 213 l 1
 75 213 l 1xf4
 75 152 l 2
 75 136 88 124 104 124 c 2
 156 124 l 1
 156 124 225 124 231 124 c 0
 247 124 265 121 265 95 c 2xec
159 260 m 1
 175 273 l 1
 175 298 l 2
 175 314 163 323 147 323 c 2
 126 323 l 2
 110 323 97 311 97 295 c 2xf4
 98 260 l 1
 159 260 l 1
92 484 m 2
 176 500 l 1
 171 525 l 2
 168 541 193 546 196 530 c 2
 205 480 l 1
 97 459 l 2
 81 456 76 481 92 484 c 2
EndSplineSet
EndChar

StartChar: egrave
Encoding: 232 232 78
Width: 292
Flags: MW
HStem: 48 76 213 47<98 159 98 206> 323 106<126 147 147 155>
VStem: 8 89<295 303 295 360 273 303> 9 66<94.5 213 122 213> 175 90<273 273 273 298>
LayerCount: 2
Back
Fore
SplineSet
265 70 m 2xec
 265 95 l 2
 265 121 247 124 231 124 c 0
 225 124 156 124 156 124 c 1
 104 124 l 2
 88 124 75 136 75 152 c 2
 75 213 l 1xec
 206 213 l 1
 265 272 l 1
 265 378 l 2
 265 416 243 429 208 429 c 2
 101 429 l 2
 46 429 8 415 8 360 c 2
 8 273 l 1xf4
 -53 213 l 1
 9 152 l 1
 9 122 l 2
 9 67 35 49 86 49 c 0
 107 49 234 48 234 48 c 2
 256 48 265 50 265 70 c 2xec
175 273 m 1
 159 260 l 1
 98 260 l 1
 97 295 l 2xf4
 97 311 110 323 126 323 c 2
 147 323 l 2
 163 323 175 314 175 298 c 2
 175 273 l 1
198 472 m 2
 215 469 210 444 194 447 c 2
 85 468 l 1
 95 518 l 2
 98 534 122 529 119 513 c 2
 114 488 l 1
 198 472 l 2
EndSplineSet
EndChar

StartChar: ecircumflex
Encoding: 234 234 79
Width: 292
Flags: MW
HStem: 48 76<234 239> 213 47<75 159 98 159 98 206> 323 106<118 126 126 147>
VStem: 8 89<295 303 295 360 295 387.5> 9 66<144 152 144 152 144 152> 175 90<273 298 298 306>
LayerCount: 2
Back
Fore
SplineSet
265 95 m 2xec
 265 70 l 2
 265 50 256 48 234 48 c 2
 234 48 107 49 86 49 c 0
 35 49 9 67 9 122 c 2
 9 152 l 1
 -53 213 l 1
 8 273 l 1xec
 8 360 l 2
 8 415 46 429 101 429 c 2
 208 429 l 2
 243 429 265 416 265 378 c 2
 265 272 l 1
 206 213 l 1
 75 213 l 1xf4
 75 152 l 2
 75 136 88 124 104 124 c 2
 156 124 l 1
 156 124 225 124 231 124 c 0
 247 124 265 121 265 95 c 2xec
159 260 m 1
 175 273 l 1
 175 298 l 2
 175 314 163 323 147 323 c 2
 126 323 l 2
 110 323 97 311 97 295 c 2xf4
 98 260 l 1
 159 260 l 1
80 506 m 2
 94 493 l 1
 141 540 l 1
 204 476 l 2
 216 465 198 447 186 459 c 2
 141 505 l 1
 95 459 l 1
 63 487 l 2
 51 498 67 517 80 506 c 2
EndSplineSet
EndChar

StartChar: edieresis
Encoding: 235 235 80
Width: 292
Flags: MW
HStem: 48 76<234 239> 213 47<75 159 98 159 98 206> 323 106<118 126 126 147>
VStem: 8 89<295 303 295 360 295 387.5> 9 66<144 152 144 152 144 152> 175 90<273 298 298 306>
LayerCount: 2
Back
Fore
SplineSet
265 95 m 2xec
 265 70 l 2
 265 50 256 48 234 48 c 2
 234 48 107 49 86 49 c 0
 35 49 9 67 9 122 c 2
 9 152 l 1
 -53 213 l 1
 8 273 l 1xec
 8 360 l 2
 8 415 46 429 101 429 c 2
 208 429 l 2
 243 429 265 416 265 378 c 2
 265 272 l 1
 206 213 l 1
 75 213 l 1xf4
 75 152 l 2
 75 136 88 124 104 124 c 2
 156 124 l 1
 156 124 225 124 231 124 c 0
 247 124 265 121 265 95 c 2xec
159 260 m 1
 175 273 l 1
 175 298 l 2
 175 314 163 323 147 323 c 2
 126 323 l 2
 110 323 97 311 97 295 c 2xf4
 98 260 l 1
 159 260 l 1
89 540 m 2
 109 540 l 2
 122 540 134 529 134 515 c 2
 134 496 l 2
 134 482 122 471 109 471 c 2
 89 471 l 2
 76 471 64 482 64 496 c 2
 64 515 l 2
 64 529 76 540 89 540 c 2
176 540 m 2
 195 540 l 2
 209 540 220 529 220 515 c 2
 220 496 l 2
 220 482 209 471 195 471 c 2
 176 471 l 2
 162 471 151 482 151 496 c 2
 151 515 l 2
 151 529 162 540 176 540 c 2
EndSplineSet
EndChar

StartChar: iacute
Encoding: 237 237 81
Width: 123
Flags: MW
HStem: 0 20
LayerCount: 2
Back
Fore
SplineSet
8 273 m 1
 7 352 l 1
 97 295 l 1
 97 261 l 1
 49 212 l 1
 98 163 l 1
 98 39 l 2
 98 13 86 0 69 0 c 0
 59 1 41 0 36 0 c 0
 15 0 8 13 8 39 c 2
 9 152 l 1
 -53 213 l 1
 8 273 l 1
-586 531 m 1
 -586 531 -586 531 -586 531 c 1
 -586 531 l 1
 -586 531 l 1
 -586 531 -586 531 -586 531 c 1
 -586 531 l 1
 -586 531 l 1
EndSplineSet
EndChar

StartChar: igrave
Encoding: 236 236 82
Width: 123
Flags: MW
HStem: 0 20
LayerCount: 2
Back
Fore
SplineSet
8 273 m 1
 7 352 l 1
 97 295 l 1
 97 261 l 1
 49 212 l 1
 98 163 l 1
 98 39 l 2
 98 13 86 0 69 0 c 0
 59 1 41 0 36 0 c 0
 15 0 8 13 8 39 c 2
 9 152 l 1
 -53 213 l 1
 8 273 l 1
695 332 m 1
 695 332 695 332 695 332 c 1
 695 332 l 1
 695 332 l 1
 695 332 695 332 695 332 c 1
 695 332 l 1
 695 332 l 1
EndSplineSet
EndChar

StartChar: icircumflex
Encoding: 238 238 83
Width: 123
Flags: MW
HStem: 0 20
LayerCount: 2
Back
Fore
SplineSet
8 273 m 1
 7 352 l 1
 97 295 l 1
 97 261 l 1
 49 212 l 1
 98 163 l 1
 98 39 l 2
 98 13 86 0 69 0 c 0
 59 1 41 0 36 0 c 0
 15 0 8 13 8 39 c 2
 9 152 l 1
 -53 213 l 1
 8 273 l 1
-612 583 m 1
 -612 583 -612 583 -612 583 c 1
 -612 583 l 1
 -612 583 l 1
 -612 583 l 1
 -612 583 -612 583 -612 583 c 1
 -612 583 l 1
 -612 583 l 1
 -612 583 l 1
EndSplineSet
EndChar

StartChar: idieresis
Encoding: 239 239 84
Width: 123
Flags: MW
HStem: 0 20 566 0<4.29497e+09 4.29497e+09>
VStem: -586 0<566 566>
LayerCount: 2
Back
Fore
SplineSet
8 273 m 1
 7 352 l 1
 97 295 l 1
 97 261 l 1
 49 212 l 1
 98 163 l 1
 98 39 l 2
 98 13 86 0 69 0 c 0
 59 1 41 0 36 0 c 0
 15 0 8 13 8 39 c 2
 9 152 l 1
 -53 213 l 1
 8 273 l 1
-586 566 m 1
 -586 566 -586 566 -586 566 c 1
 -586 566 l 1
 -586 566 -586 566 -586 566 c 1
 -586 566 l 1
 -586 566 -586 566 -586 566 c 1
 -586 566 l 1
 -586 566 -586 566 -586 566 c 1
 -586 566 l 1
-586 566 m 1
 -586 566 -586 566 -586 566 c 1
 -586 566 l 1
 -586 566 -586 566 -586 566 c 1
 -586 566 l 1
 -586 566 -586 566 -586 566 c 1
 -586 566 l 1
 -586 566 -586 566 -586 566 c 1
 -586 566 l 1
EndSplineSet
EndChar

StartChar: ntilde
Encoding: 241 241 85
Width: 283
Flags: MW
HStem: 0 20
VStem: 98 72<26 39 39 128 0 200>
LayerCount: 2
Back
Fore
SplineSet
97 266 m 1
 154 266 l 1
 267 152 l 1
 267 33 l 2
 267 15 242 0 217 0 c 2
 217 0 176 0 170 0 c 1
 170 128 l 1
 98 200 l 1
 98 39 l 2
 98 13 86 0 69 0 c 0
 59 1 41 0 36 0 c 0
 15 0 8 13 8 39 c 2
 9 152 l 1
 -53 213 l 1
 8 273 l 1
 7 347 l 1
 53 347 l 2
 85 347 94 335 97 303 c 2
 97 266 l 1
EndSplineSet
EndChar

StartChar: oacute
Encoding: 243 243 86
Width: 282
Flags: MW
HStem: 124 199<118 125 125 126 126 132.5>
VStem: 75 78<149 152 152 174 149 187> 97 78<273 295 261 298>
LayerCount: 2
Back
Fore
SplineSet
267 119 m 2xc0
 267 73 235 48 198 48 c 2
 198 48 107 49 86 49 c 0
 35 49 9 67 9 122 c 2
 9 152 l 1
 -53 213 l 1
 8 273 l 1
 8 355 l 2
 8 410 46 427 102 427 c 2
 197 427 l 2
 236 427 266 400 266 367 c 2
 266 273 l 1
 206 213 l 1
 267 152 l 1
 267 119 l 2xc0
115 212 m 1
 175 273 l 1
 175 298 l 2
 175 314 163 323 147 323 c 2
 126 323 l 2
 110 323 97 311 97 295 c 2
 97 261 l 1xa0
 49 212 l 1
 75 187 l 1
 75 152 l 2
 75 136 87 124 103 124 c 2
 125 124 l 2
 140 124 153 133 153 149 c 2
 153 174 l 1
 115 212 l 1
86 490 m 2
 170 506 l 1
 165 531 l 2
 162 547 187 552 190 536 c 2
 199 486 l 1
 91 465 l 2
 75 462 70 487 86 490 c 2
EndSplineSet
EndChar

StartChar: ograve
Encoding: 242 242 87
Width: 282
Flags: MW
HStem: 124 199<118 125 125 126 126 132.5>
VStem: 75 78<149 152 152 174 149 187> 97 78<273 295 261 298>
LayerCount: 2
Back
Fore
SplineSet
267 119 m 2xc0
 267 73 235 48 198 48 c 2
 198 48 107 49 86 49 c 0
 35 49 9 67 9 122 c 2
 9 152 l 1
 -53 213 l 1
 8 273 l 1
 8 355 l 2
 8 410 46 427 102 427 c 2
 197 427 l 2
 236 427 266 400 266 367 c 2
 266 273 l 1
 206 213 l 1
 267 152 l 1
 267 119 l 2xc0
115 212 m 1
 175 273 l 1
 175 298 l 2
 175 314 163 323 147 323 c 2
 126 323 l 2
 110 323 97 311 97 295 c 2
 97 261 l 1xa0
 49 212 l 1
 75 187 l 1
 75 152 l 2
 75 136 87 124 103 124 c 2
 125 124 l 2
 140 124 153 133 153 149 c 2
 153 174 l 1
 115 212 l 1
189 469 m 2
 206 466 201 441 185 444 c 2
 76 465 l 1
 86 515 l 2
 89 531 113 526 110 510 c 2
 105 485 l 1
 189 469 l 2
EndSplineSet
EndChar

StartChar: ocircumflex
Encoding: 244 244 88
Width: 282
Flags: MW
HStem: 124 199<118 125 125 126 126 132.5>
VStem: 75 78<149 152 152 174 149 187> 97 78<273 295 261 298>
LayerCount: 2
Back
Fore
SplineSet
267 119 m 2xc0
 267 73 235 48 198 48 c 2
 198 48 107 49 86 49 c 0
 35 49 9 67 9 122 c 2
 9 152 l 1
 -53 213 l 1
 8 273 l 1
 8 355 l 2
 8 410 46 427 102 427 c 2
 197 427 l 2
 236 427 266 400 266 367 c 2
 266 273 l 1
 206 213 l 1
 267 152 l 1
 267 119 l 2xc0
115 212 m 1
 175 273 l 1
 175 298 l 2
 175 314 163 323 147 323 c 2
 126 323 l 2
 110 323 97 311 97 295 c 2
 97 261 l 1xa0
 49 212 l 1
 75 187 l 1
 75 152 l 2
 75 136 87 124 103 124 c 2
 125 124 l 2
 140 124 153 133 153 149 c 2
 153 174 l 1
 115 212 l 1
71 500 m 2
 85 487 l 1
 132 534 l 1
 195 470 l 2
 207 459 189 441 177 453 c 2
 132 499 l 1
 86 453 l 1
 54 481 l 2
 42 492 58 511 71 500 c 2
EndSplineSet
EndChar

StartChar: odieresis
Encoding: 246 246 89
Width: 282
Flags: MW
HStem: 124 199<118 125 125 126 126 132.5>
VStem: 75 78<149 152 152 174 149 187> 97 78<273 295 261 298>
LayerCount: 2
Back
Fore
SplineSet
267 119 m 2xc0
 267 73 235 48 198 48 c 2
 198 48 107 49 86 49 c 0
 35 49 9 67 9 122 c 2
 9 152 l 1
 -53 213 l 1
 8 273 l 1
 8 355 l 2
 8 410 46 427 102 427 c 2
 197 427 l 2
 236 427 266 400 266 367 c 2
 266 273 l 1
 206 213 l 1
 267 152 l 1
 267 119 l 2xc0
115 212 m 1
 175 273 l 1
 175 298 l 2
 175 314 163 323 147 323 c 2
 126 323 l 2
 110 323 97 311 97 295 c 2
 97 261 l 1xa0
 49 212 l 1
 75 187 l 1
 75 152 l 2
 75 136 87 124 103 124 c 2
 125 124 l 2
 140 124 153 133 153 149 c 2
 153 174 l 1
 115 212 l 1
83 531 m 2
 103 531 l 2
 116 531 128 520 128 506 c 2
 128 487 l 2
 128 473 116 462 103 462 c 2
 83 462 l 2
 70 462 58 473 58 487 c 2
 58 506 l 2
 58 520 70 531 83 531 c 2
170 531 m 2
 189 531 l 2
 203 531 214 520 214 506 c 2
 214 487 l 2
 214 473 203 462 189 462 c 2
 170 462 l 2
 156 462 145 473 145 487 c 2
 145 506 l 2
 145 520 156 531 170 531 c 2
EndSplineSet
EndChar

StartChar: otilde
Encoding: 245 245 90
Width: 282
Flags: MW
HStem: 124 199<118 125 125 126 126 132.5>
VStem: 75 78<149 152 152 174 149 187> 97 78<273 295 261 298>
LayerCount: 2
Back
Fore
SplineSet
267 119 m 2xc0
 267 73 235 48 198 48 c 2
 198 48 107 49 86 49 c 0
 35 49 9 67 9 122 c 2
 9 152 l 1
 -53 213 l 1
 8 273 l 1
 8 355 l 2
 8 410 46 427 102 427 c 2
 197 427 l 2
 236 427 266 400 266 367 c 2
 266 273 l 1
 206 213 l 1
 267 152 l 1
 267 119 l 2xc0
115 212 m 1
 175 273 l 1
 175 298 l 2
 175 314 163 323 147 323 c 2
 126 323 l 2
 110 323 97 311 97 295 c 2
 97 261 l 1xa0
 49 212 l 1
 75 187 l 1
 75 152 l 2
 75 136 87 124 103 124 c 2
 125 124 l 2
 140 124 153 133 153 149 c 2
 153 174 l 1
 115 212 l 1
EndSplineSet
EndChar

StartChar: uacute
Encoding: 250 250 91
Width: 309
Flags: MW
HStem: 1 74
VStem: 22 90<261 360> 23 67<102.5 110 102.5 152 102.5 152> 188 92<44 154 273 448 448 448>
LayerCount: 2
Back
Fore
SplineSet
188 273 m 1xb0
 188 448 l 2
 190 468 200 479 219 479 c 2
 255 479 l 2
 269 479 280 466 280 452 c 2
 280 273 l 1
 220 213 l 1
 282 152 l 1
 280 44 l 2
 279 10 245 1 205 1 c 0
 185 1 122 0 102 0 c 0
 51 0 23 18 23 73 c 2
 23 152 l 1
 -38 213 l 1
 22 273 l 1xb0
 22 360 l 2
 22 415 55 431 110 430 c 1
 112 261 l 1
 64 212 l 1
 89 187 l 1
 90 110 l 2xd0
 90 95 103 75 118 75 c 2
 162 76 l 2
 177 76 188 92 188 108 c 2
 188 154 l 1
 129 212 l 1
 188 273 l 1xb0
EndSplineSet
EndChar

StartChar: ugrave
Encoding: 249 249 92
Width: 309
Flags: MW
HStem: 1 74
VStem: 22 90<261 360> 23 67<102.5 110 102.5 152 102.5 152> 188 92<44 154 273 448 448 448>
LayerCount: 2
Back
Fore
SplineSet
188 273 m 1xb0
 188 448 l 2
 190 468 200 479 219 479 c 2
 255 479 l 2
 269 479 280 466 280 452 c 2
 280 273 l 1
 220 213 l 1
 282 152 l 1
 280 44 l 2
 279 10 245 1 205 1 c 0
 185 1 122 0 102 0 c 0
 51 0 23 18 23 73 c 2
 23 152 l 1
 -38 213 l 1
 22 273 l 1xb0
 22 360 l 2
 22 415 55 431 110 430 c 1
 112 261 l 1
 64 212 l 1
 89 187 l 1
 90 110 l 2xd0
 90 95 103 75 118 75 c 2
 162 76 l 2
 177 76 188 92 188 108 c 2
 188 154 l 1
 129 212 l 1
 188 273 l 1xb0
EndSplineSet
EndChar

StartChar: ucircumflex
Encoding: 251 251 93
Width: 309
Flags: MW
HStem: 1 74
VStem: 22 90<261 360> 23 67<102.5 110 102.5 152 102.5 152> 188 92<44 154 273 448 448 448>
LayerCount: 2
Back
Fore
SplineSet
188 273 m 1xb0
 188 448 l 2
 190 468 200 479 219 479 c 2
 255 479 l 2
 269 479 280 466 280 452 c 2
 280 273 l 1
 220 213 l 1
 282 152 l 1
 280 44 l 2
 279 10 245 1 205 1 c 0
 185 1 122 0 102 0 c 0
 51 0 23 18 23 73 c 2
 23 152 l 1
 -38 213 l 1
 22 273 l 1xb0
 22 360 l 2
 22 415 55 431 110 430 c 1
 112 261 l 1
 64 212 l 1
 89 187 l 1
 90 110 l 2xd0
 90 95 103 75 118 75 c 2
 162 76 l 2
 177 76 188 92 188 108 c 2
 188 154 l 1
 129 212 l 1
 188 273 l 1xb0
EndSplineSet
EndChar

StartChar: udieresis
Encoding: 252 252 94
Width: 309
Flags: MW
HStem: 1 74
VStem: 22 90<261 360> 23 67<102.5 110 102.5 152 102.5 152> 188 92<44 154 273 448 448 448>
LayerCount: 2
Back
Fore
SplineSet
188 273 m 1xb0
 188 448 l 2
 190 468 200 479 219 479 c 2
 255 479 l 2
 269 479 280 466 280 452 c 2
 280 273 l 1
 220 213 l 1
 282 152 l 1
 280 44 l 2
 279 10 245 1 205 1 c 0
 185 1 122 0 102 0 c 0
 51 0 23 18 23 73 c 2
 23 152 l 1
 -38 213 l 1
 22 273 l 1xb0
 22 360 l 2
 22 415 55 431 110 430 c 1
 112 261 l 1
 64 212 l 1
 89 187 l 1
 90 110 l 2xd0
 90 95 103 75 118 75 c 2
 162 76 l 2
 177 76 188 92 188 108 c 2
 188 154 l 1
 129 212 l 1
 188 273 l 1xb0
EndSplineSet
EndChar

StartChar: acute
Encoding: 180 180 95
Width: 189
Flags: MW
HStem: 600 81
VStem: 39 123 130 22
LayerCount: 2
Back
Fore
SplineSet
49 625 m 2xc0
 133 641 l 1
 128 666 l 2
 125 682 150 687 153 671 c 2
 162 621 l 1
 54 600 l 2xa0
 38 597 33 622 49 625 c 2xc0
EndSplineSet
EndChar

StartChar: dieresis
Encoding: 168 168 96
Width: 264
Flags: MW
HStem: 609 69<62.5 89 69 89 69 156 156 175>
VStem: 44 70<634 653 627 660> 131 69<634 653 627 660>
LayerCount: 2
Back
Fore
SplineSet
69 678 m 2
 89 678 l 2
 102 678 114 667 114 653 c 2
 114 634 l 2
 114 620 102 609 89 609 c 2
 69 609 l 2
 56 609 44 620 44 634 c 2
 44 653 l 2
 44 667 56 678 69 678 c 2
156 678 m 2
 175 678 l 2
 189 678 200 667 200 653 c 2
 200 634 l 2
 200 620 189 609 175 609 c 2
 156 609 l 2
 142 609 131 620 131 634 c 2
 131 653 l 2
 131 667 142 678 156 678 c 2
EndSplineSet
EndChar

StartChar: Agrave
Encoding: 192 192 97
Width: 305
Flags: MW
HStem: -9 20<208.5 258 218 258> 39 19<102 193> 114 20<108.5 141 119 141> 313 20G<136.5 163 142 163> 418 21G<118 192> 469 20G<213 257 217 257>
VStem: 15 20<122 148 148 148> 81 20<152 183 183 183> 103 20<265 295> 159 20<149 169 169 169> 182 20<439 454 429 464> 273 20<26 148 148 148>
LayerCount: 2
Back
Fore
SplineSet
15 122 m 2
 15 148 l 1
 -44 206 l 1
 -44 220 l 1
 14 278 l 1
 14 360 l 2
 14 425 62 439 118 439 c 2
 182 439 l 1
 182 454 l 2
 182 474 198 489 217 489 c 2
 257 489 l 2
 277 489 292 471 292 452 c 2
 292 423 l 1
 292 273 l 1
 289 266 l 1
 236 213 l 1
 290 159 l 1
 293 152 l 1
 293 26 l 2
 293 6 277 -9 258 -9 c 2
 218 -9 l 2
 199 -9 183 7 183 26 c 2
 183 39 l 1
 102 39 l 2
 47 39 15 60 15 122 c 2
35 152 m 1
 35 122 l 2
 35 73 55 59 102 59 c 2
 193 58 l 1
 203 48 l 1
 203 26 l 2
 203 18 210 11 218 11 c 2
 258 11 l 2
 267 11 273 18 273 26 c 2
 273 148 l 1
 215 206 l 1
 215 220 l 1
 272 277 l 1
 272 423 l 1
 272 452 l 2
 272 462 264 469 257 469 c 2
 217 469 l 2
 209 469 202 463 202 454 c 2
 202 429 l 1
 192 418 l 1
 118 419 l 2
 63 419 34 406 34 360 c 2
 34 273 l 1
 31 266 l 1
 -22 213 l 1
 32 159 l 1
 35 152 l 1
123 219 m 1
 181 278 l 1
 181 298 l 2
 181 307 175 313 163 313 c 2
 142 313 l 2
 131 313 123 305 123 295 c 2
 123 261 l 1
 121 254 l 1
 80 212 l 1
 98 194 l 1
 101 187 l 1
 101 152 l 2
 101 142 109 134 119 134 c 2
 141 134 l 2
 152 134 159 140 159 149 c 2
 159 169 l 1
 123 205 l 1
 123 219 l 1
201 273 m 1
 198 266 l 1
 145 212 l 1
 176 181 l 1
 179 174 l 1
 179 149 l 2
 179 126 160 114 141 114 c 2
 119 114 l 2
 98 114 81 131 81 152 c 2
 81 183 l 1
 58 205 l 1
 58 219 l 1
 103 265 l 1
 103 295 l 2
 103 316 120 333 142 333 c 2
 163 333 l 2
 182 333 201 321 201 298 c 2
 201 273 l 1
EndSplineSet
EndChar

StartChar: Atilde
Encoding: 195 195 98
Width: 305
Flags: MW
HStem: -9 20<208.5 258 218 258> 39 19<102 193> 114 20<108.5 141 119 141> 313 20G<136.5 163 142 163> 418 21G<118 192> 469 20G<213 257 217 257>
VStem: 15 20<122 148 148 148> 81 20<152 183 183 183> 103 20<265 295> 159 20<149 169 169 169> 182 20<439 454 429 464> 273 20<26 148 148 148>
LayerCount: 2
Back
Fore
SplineSet
15 122 m 2
 15 148 l 1
 -44 206 l 1
 -44 220 l 1
 14 278 l 1
 14 360 l 2
 14 425 62 439 118 439 c 2
 182 439 l 1
 182 454 l 2
 182 474 198 489 217 489 c 2
 257 489 l 2
 277 489 292 471 292 452 c 2
 292 423 l 1
 292 273 l 1
 289 266 l 1
 236 213 l 1
 290 159 l 1
 293 152 l 1
 293 26 l 2
 293 6 277 -9 258 -9 c 2
 218 -9 l 2
 199 -9 183 7 183 26 c 2
 183 39 l 1
 102 39 l 2
 47 39 15 60 15 122 c 2
35 152 m 1
 35 122 l 2
 35 73 55 59 102 59 c 2
 193 58 l 1
 203 48 l 1
 203 26 l 2
 203 18 210 11 218 11 c 2
 258 11 l 2
 267 11 273 18 273 26 c 2
 273 148 l 1
 215 206 l 1
 215 220 l 1
 272 277 l 1
 272 423 l 1
 272 452 l 2
 272 462 264 469 257 469 c 2
 217 469 l 2
 209 469 202 463 202 454 c 2
 202 429 l 1
 192 418 l 1
 118 419 l 2
 63 419 34 406 34 360 c 2
 34 273 l 1
 31 266 l 1
 -22 213 l 1
 32 159 l 1
 35 152 l 1
123 219 m 1
 181 278 l 1
 181 298 l 2
 181 307 175 313 163 313 c 2
 142 313 l 2
 131 313 123 305 123 295 c 2
 123 261 l 1
 121 254 l 1
 80 212 l 1
 98 194 l 1
 101 187 l 1
 101 152 l 2
 101 142 109 134 119 134 c 2
 141 134 l 2
 152 134 159 140 159 149 c 2
 159 169 l 1
 123 205 l 1
 123 219 l 1
201 273 m 1
 198 266 l 1
 145 212 l 1
 176 181 l 1
 179 174 l 1
 179 149 l 2
 179 126 160 114 141 114 c 2
 119 114 l 2
 98 114 81 131 81 152 c 2
 81 183 l 1
 58 205 l 1
 58 219 l 1
 103 265 l 1
 103 295 l 2
 103 316 120 333 142 333 c 2
 163 333 l 2
 182 333 201 321 201 298 c 2
 201 273 l 1
EndSplineSet
EndChar

StartChar: ydieresis
Encoding: 255 255 99
Width: 292
Flags: MW
HStem: -336 129<22 28 22 87> -120 118<22 28 28 74 6 127> 145 247<66 67 24 119>
VStem: -140 147<-191.5 -186 -186 -141 -191.5 -123> 17 102<273 392> 98 86<-6 114 114 114 179 188 -42 194 -42 194> 184 91<-42 329 273 329 273 338>
LayerCount: 2
Back
Fore
SplineSet
98 179 m 1xfa
 98 194 l 1
 184 273 l 1
 185 305 l 1
 184 331 l 2
 184 345 196 356 209 356 c 2
 250 356 l 2
 263 356 275 343 275 329 c 2xf4
 275 273 l 1
 229 231 184 188 184 188 c 1
 184 -42 l 1
 151 -64 140 -87 127 -120 c 1
 28 -120 l 2
 16 -120 7 -129 7 -141 c 2
 7 -186 l 2
 7 -197 16 -207 28 -207 c 2
 124 -206 l 1
 134 -243 158 -273 191 -296 c 1
 156 -322 112 -336 62 -336 c 0
 -50 -336 -140 -261 -140 -169 c 0
 -140 -77 -50 -2 62 -2 c 0
 86 -2 77 1 98 -6 c 1xfa
 98 114 l 1
 67 145 l 1
 24 145 l 1
 -43 213 l 1
 17 273 l 1xf4
 16 343 l 2
 16 375 33 392 66 392 c 2
 119 392 l 1
 119 289 l 1
 53 224 l 1
 98 179 l 1xfa
EndSplineSet
EndChar

StartChar: Ydieresis
Encoding: 257 376 100
Width: 308
Flags: MW
HStem: -346 20<24 99.5 24 104> -216 20<133 140> -130 20<41 136 44 136 44 143> -12 20<78 88.5> 135 20G<44 79 40 83> 382 20G<68 135 82 125>
VStem: -134 20<-211.5 -126.5 -211.5 -119.5> 13 20<-186 -141> 23 20<274 278> 104 20<8 110 110 110> 125 20<294 382 382 382> 190 20<-37 184 -42 188 -42 188 331 335.5> 281 20<277 329 273 329>
LayerCount: 2
Back
Fore
SplineSet
83 224 m 1xff78
 107 200 l 1
 107 201 l 1
 190 278 l 1
 191 305 l 1
 190 331 l 2
 190 351 206 366 225 366 c 2
 266 366 l 2
 286 366 300 348 301 329 c 2
 301 273 l 1
 298 266 l 1
 259 230 221 194 210 184 c 1
 210 -42 l 1
 206 -51 l 1
 175 -70 165 -91 152 -124 c 1
 143 -130 l 1
 44 -130 l 2
 38 -130 33 -135 33 -141 c 2
 33 -186 l 2
 33 -192 38 -197 44 -197 c 2
 140 -196 l 1
 150 -204 l 1
 159 -238 181 -266 213 -288 c 1
 213 -304 l 1
 176 -331 130 -346 78 -346 c 0
 -38 -346 -134 -269 -134 -169 c 0
 -134 -70 -38 8 78 8 c 0
 86 8 96 10 104 8 c 1
 104 110 l 1
 79 135 l 1
 40 135 l 1
 33 138 l 1
 -35 206 l 1
 -35 220 l 1
 23 278 l 1xfef8
 22 343 l 2
 22 381 43 402 82 402 c 2
 135 402 l 1
 145 392 l 1
 145 289 l 1
 142 282 l 1
 83 224 l 1xff78
210 273 m 1
 207 266 l 1
 124 190 l 1
 124 179 l 1
 107 172 l 1
 62 217 l 1
 62 231 l 1
 125 294 l 1
 125 382 l 1
 82 382 l 2
 54 382 42 370 42 343 c 2
 43 274 l 1
 40 266 l 1
 -13 213 l 1
 44 155 l 1
 83 155 l 1
 90 152 l 1
 121 121 l 1
 124 114 l 1
 124 -6 l 1
 111 -15 l 1
 92 -9 99 -12 78 -12 c 0
 -30 -12 -114 -84 -114 -169 c 0
 -114 -254 -30 -326 78 -326 c 0
 121 -326 158 -315 190 -296 c 1
 163 -275 143 -248 133 -216 c 1
 44 -217 l 2
 27 -217 13 -203 13 -186 c 2xff78
 13 -141 l 2
 13 -124 27 -110 44 -110 c 2
 136 -110 l 1
 148 -81 160 -58 190 -37 c 1
 190 188 l 1
 193 195 l 1
 193 195 236 236 281 277 c 1
 281 329 l 2
 280 339 273 346 266 346 c 2
 225 346 l 2
 217 346 210 340 210 331 c 2
 211 305 l 1
 210 273 l 1
EndSplineSet
EndChar

StartChar: Acircumflex
Encoding: 194 194 101
Width: 305
Flags: MW
HStem: -9 20<208.5 258 218 258> 39 19<102 193> 114 20<108.5 141 119 141> 313 20G<136.5 163 142 163> 418 21G<118 192> 469 20G<213 257 217 257>
VStem: 15 20<122 148 148 148> 81 20<152 183 183 183> 103 20<265 295> 159 20<149 169 169 169> 182 20<439 454 429 464> 273 20<26 148 148 148>
LayerCount: 2
Back
Fore
SplineSet
15 122 m 2
 15 148 l 1
 -44 206 l 1
 -44 220 l 1
 14 278 l 1
 14 360 l 2
 14 425 62 439 118 439 c 2
 182 439 l 1
 182 454 l 2
 182 474 198 489 217 489 c 2
 257 489 l 2
 277 489 292 471 292 452 c 2
 292 423 l 1
 292 273 l 1
 289 266 l 1
 236 213 l 1
 290 159 l 1
 293 152 l 1
 293 26 l 2
 293 6 277 -9 258 -9 c 2
 218 -9 l 2
 199 -9 183 7 183 26 c 2
 183 39 l 1
 102 39 l 2
 47 39 15 60 15 122 c 2
35 152 m 1
 35 122 l 2
 35 73 55 59 102 59 c 2
 193 58 l 1
 203 48 l 1
 203 26 l 2
 203 18 210 11 218 11 c 2
 258 11 l 2
 267 11 273 18 273 26 c 2
 273 148 l 1
 215 206 l 1
 215 220 l 1
 272 277 l 1
 272 423 l 1
 272 452 l 2
 272 462 264 469 257 469 c 2
 217 469 l 2
 209 469 202 463 202 454 c 2
 202 429 l 1
 192 418 l 1
 118 419 l 2
 63 419 34 406 34 360 c 2
 34 273 l 1
 31 266 l 1
 -22 213 l 1
 32 159 l 1
 35 152 l 1
123 219 m 1
 181 278 l 1
 181 298 l 2
 181 307 175 313 163 313 c 2
 142 313 l 2
 131 313 123 305 123 295 c 2
 123 261 l 1
 121 254 l 1
 80 212 l 1
 98 194 l 1
 101 187 l 1
 101 152 l 2
 101 142 109 134 119 134 c 2
 141 134 l 2
 152 134 159 140 159 149 c 2
 159 169 l 1
 123 205 l 1
 123 219 l 1
201 273 m 1
 198 266 l 1
 145 212 l 1
 176 181 l 1
 179 174 l 1
 179 149 l 2
 179 126 160 114 141 114 c 2
 119 114 l 2
 98 114 81 131 81 152 c 2
 81 183 l 1
 58 205 l 1
 58 219 l 1
 103 265 l 1
 103 295 l 2
 103 316 120 333 142 333 c 2
 163 333 l 2
 182 333 201 321 201 298 c 2
 201 273 l 1
EndSplineSet
EndChar

StartChar: Ecircumflex
Encoding: 202 202 102
Width: 308
Flags: MW
HStem: 38 20<250 252 250 261> 114 20G<109.5 172 120 172 172 247> 203 20G<101 218 91 222 101 101> 203 67<124 171 124 222 101 171> 203 130<142 163 163 172.5 142 222 101 163> 419 20G<90 224 117 224>
VStem: 15 20<122 148 148 148> 81 20<152 203> 104 20<260 270> 181 20<278 298 273 302.5> 271 20<70 95 277 378>
LayerCount: 2
Back
Fore
SplineSet
250 38 m 2xe7e0
 102 39 l 2
 47 39 15 60 15 122 c 2
 15 148 l 1
 -44 206 l 1
 -44 220 l 1
 14 278 l 1
 14 360 l 2
 14 424 61 439 117 439 c 2
 224 439 l 2
 262 439 291 423 291 378 c 2
 291 273 l 1
 288 265 l 1
 229 206 l 1
 222 203 l 1
 101 203 l 1
 101 152 l 2
 101 142 109 134 120 134 c 2
 172 134 l 1
 172 134 241 134 247 134 c 0
 264 134 291 131 291 95 c 2
 291 70 l 2
 291 40 272 38 250 38 c 2xe7e0
270 62 m 0
 271 63 271 66 271 70 c 2
 271 95 l 2
 271 111 263 114 247 114 c 0
 241 114 172 114 172 114 c 1
 120 114 l 2
 99 114 81 131 81 152 c 2
 81 213 l 1
 91 223 l 1
 218 223 l 1
 271 277 l 1
 271 378 l 2
 271 408 256 419 224 419 c 2
 117 419 l 2
 63 419 34 406 34 360 c 2
 34 273 l 1
 31 266 l 1
 -22 213 l 1
 32 159 l 1
 35 152 l 1
 35 122 l 2
 35 73 55 59 102 59 c 2
 250 58 l 2
 254 58 269 58 270 62 c 0
181 278 m 1
 181 298 l 2
 181 307 175 313 163 313 c 2
 142 313 l 2
 131 313 123 305 123 295 c 2
 124 270 l 1xd7e0
 171 270 l 1
 181 278 l 1
201 298 m 2
 201 273 l 1
 197 266 l 1
 181 252 l 1
 175 250 l 1
 114 250 l 1
 104 260 l 1
 103 295 l 2
 103 316 120 333 142 333 c 2xcfe0
 163 333 l 2
 182 333 201 321 201 298 c 2
106 515 m 2
 120 502 l 1
 167 549 l 1
 230 485 l 2
 242 474 224 456 212 468 c 2
 167 514 l 1
 121 468 l 1
 89 496 l 2
 77 507 93 526 106 515 c 2
EndSplineSet
EndChar

StartChar: Aacute
Encoding: 193 193 103
Width: 305
Flags: MW
HStem: -9 20<208.5 258 218 258> 39 19<102 193> 114 20<108.5 141 119 141> 313 20G<136.5 163 142 163> 418 21G<118 192> 469 20G<213 257 217 257>
VStem: 15 20<122 148 148 148> 81 20<152 183 183 183> 103 20<265 295> 159 20<149 169 169 169> 182 20<439 454 429 464> 273 20<26 148 148 148>
LayerCount: 2
Back
Fore
SplineSet
15 122 m 2
 15 148 l 1
 -44 206 l 1
 -44 220 l 1
 14 278 l 1
 14 360 l 2
 14 425 62 439 118 439 c 2
 182 439 l 1
 182 454 l 2
 182 474 198 489 217 489 c 2
 257 489 l 2
 277 489 292 471 292 452 c 2
 292 423 l 1
 292 273 l 1
 289 266 l 1
 236 213 l 1
 290 159 l 1
 293 152 l 1
 293 26 l 2
 293 6 277 -9 258 -9 c 2
 218 -9 l 2
 199 -9 183 7 183 26 c 2
 183 39 l 1
 102 39 l 2
 47 39 15 60 15 122 c 2
35 152 m 1
 35 122 l 2
 35 73 55 59 102 59 c 2
 193 58 l 1
 203 48 l 1
 203 26 l 2
 203 18 210 11 218 11 c 2
 258 11 l 2
 267 11 273 18 273 26 c 2
 273 148 l 1
 215 206 l 1
 215 220 l 1
 272 277 l 1
 272 423 l 1
 272 452 l 2
 272 462 264 469 257 469 c 2
 217 469 l 2
 209 469 202 463 202 454 c 2
 202 429 l 1
 192 418 l 1
 118 419 l 2
 63 419 34 406 34 360 c 2
 34 273 l 1
 31 266 l 1
 -22 213 l 1
 32 159 l 1
 35 152 l 1
123 219 m 1
 181 278 l 1
 181 298 l 2
 181 307 175 313 163 313 c 2
 142 313 l 2
 131 313 123 305 123 295 c 2
 123 261 l 1
 121 254 l 1
 80 212 l 1
 98 194 l 1
 101 187 l 1
 101 152 l 2
 101 142 109 134 119 134 c 2
 141 134 l 2
 152 134 159 140 159 149 c 2
 159 169 l 1
 123 205 l 1
 123 219 l 1
201 273 m 1
 198 266 l 1
 145 212 l 1
 176 181 l 1
 179 174 l 1
 179 149 l 2
 179 126 160 114 141 114 c 2
 119 114 l 2
 98 114 81 131 81 152 c 2
 81 183 l 1
 58 205 l 1
 58 219 l 1
 103 265 l 1
 103 295 l 2
 103 316 120 333 142 333 c 2
 163 333 l 2
 182 333 201 321 201 298 c 2
 201 273 l 1
EndSplineSet
EndChar

StartChar: Edieresis
Encoding: 203 203 104
Width: 308
Flags: MW
HStem: 38 20<250 252 250 261> 114 20G<109.5 172 120 172 172 247> 203 20G<101 218 91 222 101 101> 203 67<124 171 124 222 101 171> 203 130<142 163 163 172.5 142 222 101 163> 419 20G<90 224 117 224>
VStem: 15 20<122 148 148 148> 81 20<152 203> 104 20<260 270> 181 20<278 298 273 302.5> 271 20<70 95 277 378>
LayerCount: 2
Back
Fore
SplineSet
250 38 m 2xe7e0
 102 39 l 2
 47 39 15 60 15 122 c 2
 15 148 l 1
 -44 206 l 1
 -44 220 l 1
 14 278 l 1
 14 360 l 2
 14 424 61 439 117 439 c 2
 224 439 l 2
 262 439 291 423 291 378 c 2
 291 273 l 1
 288 265 l 1
 229 206 l 1
 222 203 l 1
 101 203 l 1
 101 152 l 2
 101 142 109 134 120 134 c 2
 172 134 l 1
 172 134 241 134 247 134 c 0
 264 134 291 131 291 95 c 2
 291 70 l 2
 291 40 272 38 250 38 c 2xe7e0
270 62 m 0
 271 63 271 66 271 70 c 2
 271 95 l 2
 271 111 263 114 247 114 c 0
 241 114 172 114 172 114 c 1
 120 114 l 2
 99 114 81 131 81 152 c 2
 81 213 l 1
 91 223 l 1
 218 223 l 1
 271 277 l 1
 271 378 l 2
 271 408 256 419 224 419 c 2
 117 419 l 2
 63 419 34 406 34 360 c 2
 34 273 l 1
 31 266 l 1
 -22 213 l 1
 32 159 l 1
 35 152 l 1
 35 122 l 2
 35 73 55 59 102 59 c 2
 250 58 l 2
 254 58 269 58 270 62 c 0
181 278 m 1
 181 298 l 2
 181 307 175 313 163 313 c 2
 142 313 l 2
 131 313 123 305 123 295 c 2
 124 270 l 1xd7e0
 171 270 l 1
 181 278 l 1
201 298 m 2
 201 273 l 1
 197 266 l 1
 181 252 l 1
 175 250 l 1
 114 250 l 1
 104 260 l 1
 103 295 l 2
 103 316 120 333 142 333 c 2xcfe0
 163 333 l 2
 182 333 201 321 201 298 c 2
EndSplineSet
EndChar

StartChar: Egrave
Encoding: 200 200 105
Width: 308
Flags: MW
HStem: 38 20<250 252 250 261> 114 20G<109.5 172 120 172 172 247> 203 20G<101 218 91 222 101 101> 203 67<124 171 124 222 101 171> 203 130<142 163 163 172.5 142 222 101 163> 419 20G<90 224 117 224>
VStem: 15 20<122 148 148 148> 81 20<152 203> 104 20<260 270> 181 20<278 298 273 302.5> 271 20<70 95 277 378>
LayerCount: 2
Back
Fore
SplineSet
250 38 m 2xe7e0
 102 39 l 2
 47 39 15 60 15 122 c 2
 15 148 l 1
 -44 206 l 1
 -44 220 l 1
 14 278 l 1
 14 360 l 2
 14 424 61 439 117 439 c 2
 224 439 l 2
 262 439 291 423 291 378 c 2
 291 273 l 1
 288 265 l 1
 229 206 l 1
 222 203 l 1
 101 203 l 1
 101 152 l 2
 101 142 109 134 120 134 c 2
 172 134 l 1
 172 134 241 134 247 134 c 0
 264 134 291 131 291 95 c 2
 291 70 l 2
 291 40 272 38 250 38 c 2xe7e0
270 62 m 0
 271 63 271 66 271 70 c 2
 271 95 l 2
 271 111 263 114 247 114 c 0
 241 114 172 114 172 114 c 1
 120 114 l 2
 99 114 81 131 81 152 c 2
 81 213 l 1
 91 223 l 1
 218 223 l 1
 271 277 l 1
 271 378 l 2
 271 408 256 419 224 419 c 2
 117 419 l 2
 63 419 34 406 34 360 c 2
 34 273 l 1
 31 266 l 1
 -22 213 l 1
 32 159 l 1
 35 152 l 1
 35 122 l 2
 35 73 55 59 102 59 c 2
 250 58 l 2
 254 58 269 58 270 62 c 0
181 278 m 1
 181 298 l 2
 181 307 175 313 163 313 c 2
 142 313 l 2
 131 313 123 305 123 295 c 2
 124 270 l 1xd7e0
 171 270 l 1
 181 278 l 1
201 298 m 2
 201 273 l 1
 197 266 l 1
 181 252 l 1
 175 250 l 1
 114 250 l 1
 104 260 l 1
 103 295 l 2
 103 316 120 333 142 333 c 2xcfe0
 163 333 l 2
 182 333 201 321 201 298 c 2
EndSplineSet
EndChar

StartChar: Iacute
Encoding: 205 205 106
Width: 135
Flags: MW
HStem: -10 20<77 82 44 89.5>
VStem: 6 20<27 39 27 40> 96 20<39 159 159 159>
LayerCount: 2
Back
Fore
SplineSet
23 266 m 1
 -30 213 l 1
 24 159 l 1
 27 152 l 1
 26 39 l 2
 26 15 32 11 44 10 c 0
 49 10 67 11 77 10 c 0
 87 10 96 17 96 39 c 2
 96 159 l 1
 50 205 l 1
 50 219 l 1
 95 265 l 1
 95 290 l 1
 25 334 l 1
 26 274 l 1
 23 266 l 1
-52 206 m 1
 -52 220 l 1
 6 278 l 1
 5 352 l 1
 21 361 l 1
 111 304 l 1
 115 295 l 1
 115 261 l 1
 113 254 l 1
 71 212 l 1
 113 170 l 1
 116 163 l 1
 116 39 l 2
 116 10 102 -10 77 -10 c 0
 67 -9 49 -10 44 -9 c 0
 14 -9 6 11 6 40 c 2
 7 148 l 1
 -52 206 l 1
EndSplineSet
EndChar

StartChar: Icircumflex
Encoding: 206 206 107
Width: 135
Flags: MW
HStem: -10 20<77 82 44 89.5>
VStem: 6 20<27 39 27 40> 96 20<39 159 159 159>
LayerCount: 2
Back
Fore
SplineSet
23 266 m 1
 -30 213 l 1
 24 159 l 1
 27 152 l 1
 26 39 l 2
 26 15 32 11 44 10 c 0
 49 10 67 11 77 10 c 0
 87 10 96 17 96 39 c 2
 96 159 l 1
 50 205 l 1
 50 219 l 1
 95 265 l 1
 95 290 l 1
 25 334 l 1
 26 274 l 1
 23 266 l 1
-52 206 m 1
 -52 220 l 1
 6 278 l 1
 5 352 l 1
 21 361 l 1
 111 304 l 1
 115 295 l 1
 115 261 l 1
 113 254 l 1
 71 212 l 1
 113 170 l 1
 116 163 l 1
 116 39 l 2
 116 10 102 -10 77 -10 c 0
 67 -9 49 -10 44 -9 c 0
 14 -9 6 11 6 40 c 2
 7 148 l 1
 -52 206 l 1
4 431 m 2
 18 418 l 1
 65 465 l 1
 128 401 l 2
 140 390 122 372 110 384 c 2
 65 430 l 1
 19 384 l 1
 -13 412 l 2
 -25 423 -9 442 4 431 c 2
EndSplineSet
EndChar

StartChar: Idieresis
Encoding: 207 207 108
Width: 135
Flags: MW
HStem: -10 20<77 82 44 89.5>
VStem: 6 20<27 39 27 40> 96 20<39 159 159 159>
LayerCount: 2
Back
Fore
SplineSet
23 266 m 1
 -30 213 l 1
 24 159 l 1
 27 152 l 1
 26 39 l 2
 26 15 32 11 44 10 c 0
 49 10 67 11 77 10 c 0
 87 10 96 17 96 39 c 2
 96 159 l 1
 50 205 l 1
 50 219 l 1
 95 265 l 1
 95 290 l 1
 25 334 l 1
 26 274 l 1
 23 266 l 1
-52 206 m 1
 -52 220 l 1
 6 278 l 1
 5 352 l 1
 21 361 l 1
 111 304 l 1
 115 295 l 1
 115 261 l 1
 113 254 l 1
 71 212 l 1
 113 170 l 1
 116 163 l 1
 116 39 l 2
 116 10 102 -10 77 -10 c 0
 67 -9 49 -10 44 -9 c 0
 14 -9 6 11 6 40 c 2
 7 148 l 1
 -52 206 l 1
EndSplineSet
EndChar

StartChar: Igrave
Encoding: 204 204 109
Width: 135
Flags: MW
HStem: -10 20<77 82 44 89.5>
VStem: 6 20<27 39 27 40> 96 20<39 159 159 159>
LayerCount: 2
Back
Fore
SplineSet
23 266 m 1
 -30 213 l 1
 24 159 l 1
 27 152 l 1
 26 39 l 2
 26 15 32 11 44 10 c 0
 49 10 67 11 77 10 c 0
 87 10 96 17 96 39 c 2
 96 159 l 1
 50 205 l 1
 50 219 l 1
 95 265 l 1
 95 290 l 1
 25 334 l 1
 26 274 l 1
 23 266 l 1
-52 206 m 1
 -52 220 l 1
 6 278 l 1
 5 352 l 1
 21 361 l 1
 111 304 l 1
 115 295 l 1
 115 261 l 1
 113 254 l 1
 71 212 l 1
 113 170 l 1
 116 163 l 1
 116 39 l 2
 116 10 102 -10 77 -10 c 0
 67 -9 49 -10 44 -9 c 0
 14 -9 6 11 6 40 c 2
 7 148 l 1
 -52 206 l 1
EndSplineSet
EndChar

StartChar: Oacute
Encoding: 211 211 110
Width: 306
Flags: MW
HStem: 38 20<218 234 218 239> 114 20<112.5 145 123 145> 313 20G<140.5 167 146 167> 417 20G<95 217 122 217>
VStem: 19 20<122 148 148 148> 85 20<152 183 183 183> 107 20<265 295> 163 20<149 169 169 169> 185 20<278 298 273 302.5> 276 20<277 367 273 380>
LayerCount: 2
Back
Fore
SplineSet
277 120 m 2
 277 148 l 1
 219 206 l 1
 219 220 l 1
 276 277 l 1
 276 367 l 2
 276 393 252 417 217 417 c 2
 122 417 l 2
 68 417 38 401 38 355 c 2
 38 274 l 1
 35 266 l 1
 -18 213 l 1
 36 159 l 1
 39 152 l 1
 39 122 l 2
 39 73 59 59 106 59 c 2
 218 58 l 2
 250 58 277 79 277 120 c 2
294 159 m 1
 297 152 l 1
 297 119 l 2
 297 67 260 38 218 38 c 2
 106 39 l 2
 51 39 19 60 19 122 c 2
 19 148 l 1
 -40 206 l 1
 -40 220 l 1
 18 278 l 1
 18 355 l 2
 18 419 65 437 122 437 c 2
 217 437 l 2
 261 437 296 407 296 367 c 2
 296 273 l 1
 293 266 l 1
 240 213 l 1
 294 159 l 1
149 212 m 1
 180 181 l 1
 183 174 l 1
 183 149 l 2
 183 126 164 114 145 114 c 2
 123 114 l 2
 102 114 85 131 85 152 c 2
 85 183 l 1
 62 205 l 1
 62 219 l 1
 107 265 l 1
 107 295 l 2
 107 316 124 333 146 333 c 2
 167 333 l 2
 186 333 205 321 205 298 c 2
 205 273 l 1
 202 266 l 1
 149 212 l 1
163 149 m 2
 163 169 l 1
 127 205 l 1
 127 219 l 1
 185 278 l 1
 185 298 l 2
 185 307 179 313 167 313 c 2
 146 313 l 2
 135 313 127 305 127 295 c 2
 127 261 l 1
 125 254 l 1
 84 212 l 1
 102 194 l 1
 105 187 l 1
 105 152 l 2
 105 142 113 134 123 134 c 2
 145 134 l 2
 156 134 163 140 163 149 c 2
EndSplineSet
EndChar

StartChar: Ocircumflex
Encoding: 212 212 111
Width: 306
Flags: MW
HStem: 38 20<218 234 218 239> 114 20<112.5 145 123 145> 313 20G<140.5 167 146 167> 417 20G<95 217 122 217>
VStem: 19 20<122 148 148 148> 85 20<152 183 183 183> 107 20<265 295> 163 20<149 169 169 169> 185 20<278 298 273 302.5> 276 20<277 367 273 380>
LayerCount: 2
Back
Fore
SplineSet
277 120 m 2
 277 148 l 1
 219 206 l 1
 219 220 l 1
 276 277 l 1
 276 367 l 2
 276 393 252 417 217 417 c 2
 122 417 l 2
 68 417 38 401 38 355 c 2
 38 274 l 1
 35 266 l 1
 -18 213 l 1
 36 159 l 1
 39 152 l 1
 39 122 l 2
 39 73 59 59 106 59 c 2
 218 58 l 2
 250 58 277 79 277 120 c 2
294 159 m 1
 297 152 l 1
 297 119 l 2
 297 67 260 38 218 38 c 2
 106 39 l 2
 51 39 19 60 19 122 c 2
 19 148 l 1
 -40 206 l 1
 -40 220 l 1
 18 278 l 1
 18 355 l 2
 18 419 65 437 122 437 c 2
 217 437 l 2
 261 437 296 407 296 367 c 2
 296 273 l 1
 293 266 l 1
 240 213 l 1
 294 159 l 1
149 212 m 1
 180 181 l 1
 183 174 l 1
 183 149 l 2
 183 126 164 114 145 114 c 2
 123 114 l 2
 102 114 85 131 85 152 c 2
 85 183 l 1
 62 205 l 1
 62 219 l 1
 107 265 l 1
 107 295 l 2
 107 316 124 333 146 333 c 2
 167 333 l 2
 186 333 205 321 205 298 c 2
 205 273 l 1
 202 266 l 1
 149 212 l 1
163 149 m 2
 163 169 l 1
 127 205 l 1
 127 219 l 1
 185 278 l 1
 185 298 l 2
 185 307 179 313 167 313 c 2
 146 313 l 2
 135 313 127 305 127 295 c 2
 127 261 l 1
 125 254 l 1
 84 212 l 1
 102 194 l 1
 105 187 l 1
 105 152 l 2
 105 142 113 134 123 134 c 2
 145 134 l 2
 156 134 163 140 163 149 c 2
103 506 m 2
 117 493 l 1
 164 540 l 1
 227 476 l 2
 239 465 221 447 209 459 c 2
 164 505 l 1
 118 459 l 1
 86 487 l 2
 74 498 90 517 103 506 c 2
EndSplineSet
EndChar

StartChar: Ograve
Encoding: 210 210 112
Width: 306
Flags: MW
HStem: 38 20<218 234 218 239> 114 20<123 145> 313 20G<146 167> 417 20G<122 217>
VStem: 19 20<91 152 122 148> 85 20<141.5 187 152 183> 107 20<265 295 265 265> 163 20<144.5 174 149 169> 185 20<278 298 278 278> 276 20<277 367 277 277>
LayerCount: 2
Back
Fore
SplineSet
277 148 m 1
 277 120 l 2
 277 79 250 58 218 58 c 2
 106 59 l 2
 59 59 39 73 39 122 c 2
 39 152 l 1
 36 159 l 1
 -18 213 l 1
 35 266 l 1
 38 274 l 1
 38 355 l 2
 38 401 68 417 122 417 c 2
 217 417 l 2
 252 417 276 393 276 367 c 2
 276 277 l 1
 219 220 l 1
 219 206 l 1
 277 148 l 1
297 152 m 1
 294 159 l 1
 240 213 l 1
 293 266 l 1
 296 273 l 1
 296 367 l 2
 296 407 261 437 217 437 c 2
 122 437 l 2
 65 437 18 419 18 355 c 2
 18 278 l 1
 -40 220 l 1
 -40 206 l 1
 19 148 l 1
 19 122 l 2
 19 60 51 39 106 39 c 2
 218 38 l 2
 260 38 297 67 297 119 c 2
 297 152 l 1
180 181 m 1
 149 212 l 1
 202 266 l 1
 205 273 l 1
 205 298 l 2
 205 321 186 333 167 333 c 2
 146 333 l 2
 124 333 107 316 107 295 c 2
 107 265 l 1
 62 219 l 1
 62 205 l 1
 85 183 l 1
 85 152 l 2
 85 131 102 114 123 114 c 2
 145 114 l 2
 164 114 183 126 183 149 c 2
 183 174 l 1
 180 181 l 1
163 169 m 1
 163 149 l 2
 163 140 156 134 145 134 c 2
 123 134 l 2
 113 134 105 142 105 152 c 2
 105 187 l 1
 102 194 l 1
 84 212 l 1
 125 254 l 1
 127 261 l 1
 127 295 l 2
 127 305 135 313 146 313 c 2
 167 313 l 2
 179 313 185 307 185 298 c 2
 185 278 l 1
 127 219 l 1
 127 205 l 1
 163 169 l 1
204 490 m 2
 221 487 216 462 200 465 c 2
 91 486 l 1
 101 536 l 2
 104 552 128 547 125 531 c 2
 120 506 l 1
 204 490 l 2
EndSplineSet
EndChar

StartChar: Uacute
Encoding: 218 218 113
Width: 302
Flags: MW
HStem: -9 20<79 175 79 179 69 175> 420 20G<100 110> 469 20G<213 255 219 255>
VStem: 12 20<278 360 273 392> 59 20<11 101 101 101> 102 20 178 20<277 447 273 448 273 449 273 449> 270 20<101 106 277 452>
LayerCount: 2
Back
Fore
SplineSet
59 1 m 1
 59 101 l 1
 52 109 25 136 -45 206 c 1
 -45 220 l 1
 12 278 l 1
 12 360 l 2
 12 424 52 441 110 440 c 1
 120 430 l 1
 122 261 l 1
 119 254 l 1
 78 212 l 1
 96 194 l 1
 162 130 l 1
 179 148 l 1
 122 205 l 1
 122 219 l 1
 178 277 l 1
 178 448 l 1
 178 449 l 2
 179 473 194 489 219 489 c 2
 255 489 l 2
 276 490 290 471 290 452 c 2
 290 273 l 1
 287 266 l 1
 235 213 l 1
 289 159 l 1
 292 152 l 1
 290 101 l 1
 287 95 l 1
 186 -6 l 1
 179 -9 l 1
 69 -9 l 1
 59 1 l 1
77 111 m 1
 79 105 l 1
 79 11 l 1
 175 11 l 1
 270 106 l 1
 272 148 l 1
 213 206 l 1
 213 220 l 1
 270 277 l 1
 270 452 l 2
 270 462 263 469 255 469 c 2
 219 469 l 2
 207 469 200 463 198 447 c 2
 198 273 l 1
 195 267 l 1
 143 212 l 1
 200 155 l 1
 200 141 l 1
 169 109 l 1
 155 109 l 1
 82 180 l 1
 57 205 l 1
 57 219 l 1
 102 265 l 1
 100 420 l 1
 54 419 32 404 32 360 c 2
 32 273 l 1
 29 266 l 1
 -24 213 l 1
 58 131 77 111 77 111 c 1
EndSplineSet
EndChar

StartChar: Ucircumflex
Encoding: 219 219 114
Width: 302
Flags: MW
HStem: -9 20<79 175 79 179 69 175> 420 20G<100 110> 469 20G<219 255>
VStem: 12 20<278 360 273 392> 59 20<11 101 101 101> 102 20 178 20<277 447 273 448 273 449 273 449> 270 20<101 106 277 452>
LayerCount: 2
Back
Fore
SplineSet
59 1 m 1
 59 101 l 1
 52 109 25 136 -45 206 c 1
 -45 220 l 1
 12 278 l 1
 12 360 l 2
 12 424 52 441 110 440 c 1
 120 430 l 1
 122 261 l 1
 119 254 l 1
 78 212 l 1
 96 194 l 1
 162 130 l 1
 179 148 l 1
 122 205 l 1
 122 219 l 1
 178 277 l 1
 178 448 l 1
 178 449 l 2
 179 473 194 489 219 489 c 2
 255 489 l 2
 276 490 290 471 290 452 c 2
 290 273 l 1
 287 266 l 1
 235 213 l 1
 289 159 l 1
 292 152 l 1
 290 101 l 1
 287 95 l 1
 186 -6 l 1
 179 -9 l 1
 69 -9 l 1
 59 1 l 1
77 111 m 1
 79 105 l 1
 79 11 l 1
 175 11 l 1
 270 106 l 1
 272 148 l 1
 213 206 l 1
 213 220 l 1
 270 277 l 1
 270 452 l 2
 270 462 263 469 255 469 c 2
 219 469 l 2
 207 469 200 463 198 447 c 2
 198 273 l 1
 195 267 l 1
 143 212 l 1
 200 155 l 1
 200 141 l 1
 169 109 l 1
 155 109 l 1
 82 180 l 1
 57 205 l 1
 57 219 l 1
 102 265 l 1
 100 420 l 1
 54 419 32 404 32 360 c 2
 32 273 l 1
 29 266 l 1
 -24 213 l 1
 58 131 77 111 77 111 c 1
39 519 m 2
 53 506 l 1
 100 553 l 1
 163 489 l 2
 175 478 157 460 145 472 c 2
 100 518 l 1
 54 472 l 1
 22 500 l 2
 10 511 26 530 39 519 c 2
EndSplineSet
EndChar

StartChar: Ugrave
Encoding: 217 217 115
Width: 302
Flags: MW
HStem: -9 20<79 175 79 179 79 179> 420 20G<100 110> 469 20G<219 255>
VStem: 12 20<278 360 278 278> 59 20<11 101 1 105> 102 20 178 20<277 447 273 448 277 277 273 449> 270 20<101 106 277 452 277 277>
LayerCount: 2
Back
Fore
SplineSet
59 101 m 1
 59 1 l 1
 69 -9 l 1
 179 -9 l 1
 186 -6 l 1
 287 95 l 1
 290 101 l 1
 292 152 l 1
 289 159 l 1
 235 213 l 1
 287 266 l 1
 290 273 l 1
 290 452 l 2
 290 471 276 490 255 489 c 2
 219 489 l 2
 194 489 179 473 178 449 c 2
 178 448 l 1
 178 277 l 1
 122 219 l 1
 122 205 l 1
 179 148 l 1
 162 130 l 1
 96 194 l 1
 78 212 l 1
 119 254 l 1
 122 261 l 1
 120 430 l 1
 110 440 l 1
 52 441 12 424 12 360 c 2
 12 278 l 1
 -45 220 l 1
 -45 206 l 1
 25 136 52 109 59 101 c 1
79 105 m 1
 77 111 l 1
 77 111 58 131 -24 213 c 1
 29 266 l 1
 32 273 l 1
 32 360 l 2
 32 404 54 419 100 420 c 1
 102 265 l 1
 57 219 l 1
 57 205 l 1
 82 180 l 1
 155 109 l 1
 169 109 l 1
 200 141 l 1
 200 155 l 1
 143 212 l 1
 195 267 l 1
 198 273 l 1
 198 447 l 2
 200 463 207 469 219 469 c 2
 255 469 l 2
 263 469 270 462 270 452 c 2
 270 277 l 1
 213 220 l 1
 213 206 l 1
 272 148 l 1
 270 106 l 1
 175 11 l 1
 79 11 l 1
 79 105 l 1
152 505 m 2
 169 502 164 477 148 480 c 2
 39 501 l 1
 49 551 l 2
 52 567 76 562 73 546 c 2
 68 521 l 1
 152 505 l 2
EndSplineSet
EndChar

StartChar: dotlessi
Encoding: 258 305 116
Width: 123
Flags: MW
HStem: 0 20
LayerCount: 2
Back
Fore
SplineSet
8 273 m 1
 7 352 l 1
 97 295 l 1
 97 261 l 1
 49 212 l 1
 98 163 l 1
 98 39 l 2
 98 13 86 0 69 0 c 0
 59 1 41 0 36 0 c 0
 15 0 8 13 8 39 c 2
 9 152 l 1
 -53 213 l 1
 8 273 l 1
EndSplineSet
EndChar

StartChar: circumflex
Encoding: 259 710 117
Width: 224
Flags: MW
HStem: 628 85
VStem: 53 35
LayerCount: 2
Back
Fore
SplineSet
74 679 m 2
 88 666 l 1
 135 713 l 1
 198 649 l 2
 210 638 192 620 180 632 c 2
 135 678 l 1
 89 632 l 1
 57 660 l 2
 45 671 61 690 74 679 c 2
EndSplineSet
EndChar

StartChar: tilde
Encoding: 260 732 118
Width: 215
Flags: MW
HStem: 615 25<132 159 132 184> 652 25<71 107 71 71>
VStem: 46 25<627 652> 107 25<640 652 652 652> 159 25<640 665 615 673>
LayerCount: 2
Back
Fore
SplineSet
46 627 m 2
 46 677 l 1
 132 677 l 1
 132 640 l 1
 159 640 l 1
 159 665 l 2
 159 681 184 681 184 665 c 2
 184 615 l 1
 107 615 l 1
 107 652 l 1
 71 652 l 1
 71 627 l 2
 71 611 46 611 46 627 c 2
EndSplineSet
EndChar

StartChar: template
Encoding: 261 -1 119
Width: 481
Flags: MW
HStem: -337 130<162.5 168 168 227.5> -121 119<168 214 146.5 267 146.5 267>
VStem: 0 147<-186 -141 -141 -135.5 -186 -123.5>
LayerCount: 2
Back
Fore
SplineSet
338 -37 m 1
 277 -13 l 2
 255 -7 226 -2 202 -2 c 0
 91 -2 0 -77 0 -170 c 0
 0 -262 91 -337 202 -337 c 0
 253 -337 296 -322 331 -297 c 1
 298 -274 275 -244 265 -207 c 1
 168 -207 l 2
 157 -207 147 -198 147 -186 c 2
 147 -141 l 2
 147 -130 157 -121 168 -121 c 2
 267 -121 l 1
 280 -87 305 -58 338 -37 c 1
156 273 m 1
 156 153 l 1
 96 213 l 1
 156 273 l 1
414 273 m 1
 414 153 l 1
 354 213 l 1
 414 273 l 1
EndSplineSet
EndChar

StartChar: hyphen
Encoding: 45 45 120
Width: 286
Flags: MW
HStem: 152 36 152 121
LayerCount: 2
Back
Fore
SplineSet
183 273 m 1x80
 273 273 l 1
 213 213 l 1
 275 152 l 1
 15 154 l 1
 -45 213 l 1
 15 273 l 1
 119 273 l 1
 57 212 l 1
 82 187 l 1
 148 188 l 1x40
 122 212 l 1
 183 273 l 1x80
EndSplineSet
EndChar

